<svg xmlns="http://www.w3.org/2000/svg" viewBox="0 0 200.81 88.6"><defs><style>.cls-1{fill:#afa89c;}.cls-2{opacity:0.8;}</style></defs><title>docmeti-expert</title><g id="Layer_2" data-name="Layer 2"><g id="Capa_1" data-name="Capa 1"><path class="cls-1" d="M70.13,26.9a12,12,0,0,1-3.66,8.91,12.58,12.58,0,0,1-9.2,3.62,12.55,12.55,0,0,1-9.2-3.62,12,12,0,0,1-3.66-8.91A12.09,12.09,0,0,1,48.07,18a12.49,12.49,0,0,1,9.2-3.64A12.52,12.52,0,0,1,66.47,18,12.09,12.09,0,0,1,70.13,26.9Zm-18.9,0a7,7,0,0,0,1.7,4.86,5.95,5.95,0,0,0,8.68,0A7,7,0,0,0,63.3,26.9,7.07,7.07,0,0,0,61.61,22a5.91,5.91,0,0,0-8.68,0A7.08,7.08,0,0,0,51.23,26.9Z"/><path class="cls-1" d="M86.81,33.41q3.39,0,6.1-3.39l4,4.52q-4.7,4.89-10.17,4.89A13.18,13.18,0,0,1,77.52,36a11.69,11.69,0,0,1-3.78-9,11.77,11.77,0,0,1,3.82-9.09,13,13,0,0,1,9.06-3.5,14.24,14.24,0,0,1,5.32,1.08,13.66,13.66,0,0,1,4.72,3.21l-3.53,4.61A8.41,8.41,0,0,0,86.9,20.3,6.65,6.65,0,0,0,82.31,22a6.22,6.22,0,0,0-1.92,4.84,6.14,6.14,0,0,0,1.92,4.82A6.55,6.55,0,0,0,86.81,33.41Z"/><path class="cls-1" d="M123.78,26V39.06H117V25.77a8,8,0,0,0-.88-4.24,3.14,3.14,0,0,0-2.85-1.36,4.86,4.86,0,0,0-3.48,1.47A5.74,5.74,0,0,0,108.23,26V39.06h-6.78V14.74h6.78V17.5a8.39,8.39,0,0,1,6.42-3.16,7,7,0,0,1,4.18,1.35,9,9,0,0,1,2.83,3.3,9.53,9.53,0,0,1,3.77-3.43,10.25,10.25,0,0,1,4.77-1.22,9.51,9.51,0,0,1,6.92,2.55c1.74,1.7,2.62,4.17,2.62,7.39V39.06h-6.83V25.77q0-5.6-4.11-5.6a4.87,4.87,0,0,0-3.53,1.47A5.81,5.81,0,0,0,123.78,26Z"/><path class="cls-1" d="M167,35.54a13.6,13.6,0,0,1-9.65,3.89A12.78,12.78,0,0,1,148.15,36a12,12,0,0,1-3.62-9.15,11.82,11.82,0,0,1,3.68-9.13,12.44,12.44,0,0,1,8.71-3.39,12.59,12.59,0,0,1,8.52,3,10.43,10.43,0,0,1,3.5,8.31V29.3H151.22a4.79,4.79,0,0,0,2.08,3.25,6.6,6.6,0,0,0,4,1.27,7.77,7.77,0,0,0,5.87-2.4Zm-6.51-14.42A5.14,5.14,0,0,0,157,19.94a6.16,6.16,0,0,0-3.69,1.22,4.7,4.7,0,0,0-1.94,3.3h10.67A4.82,4.82,0,0,0,160.44,21.12Z"/><path class="cls-1" d="M181.64,19.63V30.52a3.08,3.08,0,0,0,.73,2.19,2.23,2.23,0,0,0,1.71.79,3.91,3.91,0,0,0,3.21-1.71l2.53,4.74a9.79,9.79,0,0,1-6.66,2.9,8.11,8.11,0,0,1-8.34-8.59V19.63H172V14.74h2.85V7.47h6.82v7.27h5.88v4.89Z"/><path class="cls-1" d="M194,11.65a3.85,3.85,0,0,1-1.16-2.83A3.84,3.84,0,0,1,194,6a4,4,0,0,1,5.65,0,3.87,3.87,0,0,1,1.15,2.82,3.88,3.88,0,0,1-1.15,2.83,4,4,0,0,1-5.65,0Zm6.21,27.41h-6.78V14.74h6.78Z"/><path class="cls-1" d="M33.55,5.74Q27.28,0,15.56,0H.07V43.82h9.2V31.38l-2.7-.28.31-3.64L7,26.19C7.17,24,8,18.56,12.13,15c3.64-3.15,8.62-3.4,11.27-3.27a20.55,20.55,0,0,1,2.08.21l3,.53.09,3.09c0,.84.11,8.41-4.93,12.77-3.82,3.31-9.12,3.43-11.25,3.33V43.82h2.63q12.54,0,18.65-6t6.12-16.17Q39.82,11.48,33.55,5.74Z"/><path class="cls-1" d="M25.12,15.43s-6.68-1.17-10.67,2.29c-3.09,2.68-3.86,7.11-4,9L19,20.66l.07.08L11.6,28.13c2.19.23,6.8.08,9.73-2.46C25.32,22.21,25.12,15.43,25.12,15.43Z"/><path class="cls-1" d="M2.27,55A3.16,3.16,0,0,1,1,53.81a3.71,3.71,0,0,1,0-3.54,3.2,3.2,0,0,1,1.23-1.22,3.67,3.67,0,0,1,1.79-.43A3.44,3.44,0,0,1,5.62,49,2.46,2.46,0,0,1,6.7,50L6,50.41a2.16,2.16,0,0,0-.84-.75,2.66,2.66,0,0,0-1.12-.25,2.63,2.63,0,0,0-1.31.33,2.33,2.33,0,0,0-.91.93,3,3,0,0,0,0,2.75,2.37,2.37,0,0,0,.91.92,2.63,2.63,0,0,0,1.31.33,2.66,2.66,0,0,0,1.12-.25A2.06,2.06,0,0,0,6,53.68l.68.46a2.49,2.49,0,0,1-1.09,1,3.43,3.43,0,0,1-1.55.34A3.67,3.67,0,0,1,2.27,55Z"/><path class="cls-1" d="M19.68,48.67v6.74h-.87V54.18a2.45,2.45,0,0,1-1,1,2.88,2.88,0,0,1-1.43.34,2.87,2.87,0,0,1-2.08-.73,2.88,2.88,0,0,1-.77-2.16V48.67h.91v3.82A2.25,2.25,0,0,0,15,54.1a2,2,0,0,0,1.5.55A2.21,2.21,0,0,0,18.16,54a2.53,2.53,0,0,0,.61-1.8V48.67Z"/><path class="cls-1" d="M27.35,47a.62.62,0,0,1,0-.91.65.65,0,0,1,.47-.19.61.61,0,0,1,.47.19.59.59,0,0,1,.2.44.63.63,0,0,1-.2.47.65.65,0,0,1-.94,0Zm0,1.67h.91v6.74h-.91Z"/><path class="cls-1" d="M42.08,45.9v9.51h-.87V54.08a2.67,2.67,0,0,1-1.08,1,3.19,3.19,0,0,1-1.52.36A3.43,3.43,0,0,1,36.89,55a3.13,3.13,0,0,1-1.2-1.22,3.82,3.82,0,0,1,0-3.56,3,3,0,0,1,1.2-1.21,3.43,3.43,0,0,1,1.72-.43,3.13,3.13,0,0,1,1.48.34,2.7,2.7,0,0,1,1.08,1V45.9ZM40,54.34a2.37,2.37,0,0,0,.9-.93,3.09,3.09,0,0,0,0-2.74,2.37,2.37,0,0,0-.9-.93,2.48,2.48,0,0,0-1.27-.33,2.53,2.53,0,0,0-1.29.33,2.37,2.37,0,0,0-.9.93,3,3,0,0,0,0,2.74,2.37,2.37,0,0,0,.9.93,2.53,2.53,0,0,0,1.29.33A2.48,2.48,0,0,0,40,54.34Z"/><path class="cls-1" d="M54.13,49.28a2.54,2.54,0,0,1,.7,1.95v4.18H54v-1a2.06,2.06,0,0,1-.9.82,3.27,3.27,0,0,1-1.42.29,2.75,2.75,0,0,1-1.79-.54,1.71,1.71,0,0,1-.67-1.42,1.73,1.73,0,0,1,.62-1.38,3.06,3.06,0,0,1,2-.53h2.14v-.41a1.72,1.72,0,0,0-.48-1.32A2,2,0,0,0,52,49.41a3.7,3.7,0,0,0-1.23.21,3.06,3.06,0,0,0-1,.59l-.41-.68a3.66,3.66,0,0,1,1.23-.68,5,5,0,0,1,1.51-.23A2.87,2.87,0,0,1,54.13,49.28Zm-1,5.12a2,2,0,0,0,.82-1v-1.1H51.81c-1.16,0-1.73.4-1.73,1.21a1.11,1.11,0,0,0,.45.93,2.06,2.06,0,0,0,1.25.34A2.37,2.37,0,0,0,53.1,54.4Z"/><path class="cls-1" d="M68.61,45.9v9.51h-.87V54.08a2.76,2.76,0,0,1-1.09,1,3.16,3.16,0,0,1-1.52.36A3.39,3.39,0,0,1,63.42,55a3.15,3.15,0,0,1-1.21-1.22,3.9,3.9,0,0,1,0-3.56,3.06,3.06,0,0,1,1.21-1.21,3.39,3.39,0,0,1,1.71-.43,3.13,3.13,0,0,1,1.48.34,2.79,2.79,0,0,1,1.09,1V45.9Zm-2.12,8.44a2.28,2.28,0,0,0,.89-.93,3,3,0,0,0,0-2.74,2.28,2.28,0,0,0-.89-.93,2.67,2.67,0,0,0-2.57,0,2.28,2.28,0,0,0-.89.93,3,3,0,0,0,0,2.74,2.28,2.28,0,0,0,.89.93,2.67,2.67,0,0,0,2.57,0Z"/><path class="cls-1" d="M77.27,55A3.2,3.2,0,0,1,76,53.81a3.71,3.71,0,0,1,0-3.54,3.2,3.2,0,0,1,1.23-1.22,3.8,3.8,0,0,1,3.51,0A3.11,3.11,0,0,1,82,50.27a3.71,3.71,0,0,1,0,3.54A3.11,3.11,0,0,1,80.78,55a3.72,3.72,0,0,1-3.51,0Zm3-.69a2.28,2.28,0,0,0,.89-.93,3.09,3.09,0,0,0,0-2.74,2.28,2.28,0,0,0-.89-.93,2.67,2.67,0,0,0-2.57,0,2.37,2.37,0,0,0-.9.93,3,3,0,0,0,0,2.74,2.37,2.37,0,0,0,.9.93,2.67,2.67,0,0,0,2.57,0Z"/><path class="cls-1" d="M104.06,45.9v9.51h-.87V54.08a2.67,2.67,0,0,1-1.08,1,3.16,3.16,0,0,1-1.52.36A3.46,3.46,0,0,1,98.87,55a3.13,3.13,0,0,1-1.2-1.22,3.82,3.82,0,0,1,0-3.56,3,3,0,0,1,1.2-1.21,3.46,3.46,0,0,1,1.72-.43,3.13,3.13,0,0,1,1.48.34,2.7,2.7,0,0,1,1.08,1V45.9Zm-2.12,8.44a2.37,2.37,0,0,0,.9-.93,3,3,0,0,0,0-2.74,2.37,2.37,0,0,0-.9-.93,2.48,2.48,0,0,0-1.27-.33,2.53,2.53,0,0,0-1.29.33,2.37,2.37,0,0,0-.9.93,3.09,3.09,0,0,0,0,2.74,2.37,2.37,0,0,0,.9.93,2.53,2.53,0,0,0,1.29.33A2.48,2.48,0,0,0,101.94,54.34Z"/><path class="cls-1" d="M117.6,52.32H112a2.4,2.4,0,0,0,.81,1.7,2.67,2.67,0,0,0,1.84.65,2.88,2.88,0,0,0,1.15-.23,2.48,2.48,0,0,0,.91-.66l.52.59a3,3,0,0,1-1.12.82,3.8,3.8,0,0,1-1.49.28,3.65,3.65,0,0,1-1.83-.44,3.12,3.12,0,0,1-1.25-1.22,3.48,3.48,0,0,1-.45-1.77,3.57,3.57,0,0,1,.43-1.77,3.08,3.08,0,0,1,1.18-1.22,3.5,3.5,0,0,1,3.36,0,3.16,3.16,0,0,1,1.17,1.21,3.69,3.69,0,0,1,.42,1.78ZM112.71,50a2.44,2.44,0,0,0-.75,1.62h4.78A2.44,2.44,0,0,0,116,50a2.33,2.33,0,0,0-1.65-.62A2.3,2.3,0,0,0,112.71,50Z"/><path class="cls-1" d="M133.08,45.9H134v9.51h-.91Z"/><path class="cls-1" d="M146,49.28a2.55,2.55,0,0,1,.71,1.95v4.18h-.88v-1a2.06,2.06,0,0,1-.9.82,3.27,3.27,0,0,1-1.42.29,2.77,2.77,0,0,1-1.79-.54,1.74,1.74,0,0,1-.67-1.42,1.71,1.71,0,0,1,.63-1.38,3,3,0,0,1,2-.53h2.14v-.41a1.73,1.73,0,0,0-.49-1.32,2,2,0,0,0-1.42-.46,3.61,3.61,0,0,0-1.23.21,3.11,3.11,0,0,0-1,.59l-.41-.68a3.86,3.86,0,0,1,1.23-.68,5.08,5.08,0,0,1,1.52-.23A2.84,2.84,0,0,1,146,49.28Zm-1,5.12a2.1,2.1,0,0,0,.82-1v-1.1h-2.12c-1.15,0-1.73.4-1.73,1.21a1.11,1.11,0,0,0,.45.93,2.1,2.1,0,0,0,1.26.34A2.37,2.37,0,0,0,145,54.4Z"/><path class="cls-1" d="M168,49.05a3,3,0,0,1,1.2,1.21,3.59,3.59,0,0,1,.44,1.78,3.62,3.62,0,0,1-.44,1.79A3,3,0,0,1,168,55a3.38,3.38,0,0,1-1.72.43,3.13,3.13,0,0,1-1.48-.34,2.7,2.7,0,0,1-1.08-1v3.75h-.91V48.67h.87V50a2.79,2.79,0,0,1,1.08-1,3.19,3.19,0,0,1,1.52-.36A3.43,3.43,0,0,1,168,49.05Zm-.5,5.29a2.37,2.37,0,0,0,.9-.93,3,3,0,0,0,0-2.74,2.51,2.51,0,0,0-.9-.93,2.67,2.67,0,0,0-2.57,0,2.51,2.51,0,0,0-.9.93,3,3,0,0,0,0,2.74,2.37,2.37,0,0,0,.9.93,2.67,2.67,0,0,0,2.57,0Z"/><path class="cls-1" d="M176.62,47a.62.62,0,0,1-.19-.46.61.61,0,0,1,.19-.45.67.67,0,0,1,.47-.19.65.65,0,0,1,.48.19.61.61,0,0,1,.19.44.67.67,0,0,1-.19.47.66.66,0,0,1-.48.2A.63.63,0,0,1,176.62,47Zm0,1.67h.91v6.74h-.91Z"/><path class="cls-1" d="M191.07,52.32h-5.64a2.44,2.44,0,0,0,.81,1.7,2.69,2.69,0,0,0,1.85.65,2.88,2.88,0,0,0,1.15-.23,2.57,2.57,0,0,0,.91-.66l.51.59a2.89,2.89,0,0,1-1.12.82,3.75,3.75,0,0,1-1.48.28,3.71,3.71,0,0,1-1.84-.44A3.19,3.19,0,0,1,185,53.81a3.48,3.48,0,0,1-.45-1.77,3.68,3.68,0,0,1,.43-1.77,3.15,3.15,0,0,1,1.18-1.22,3.52,3.52,0,0,1,3.37,0,3.14,3.14,0,0,1,1.16,1.21,3.69,3.69,0,0,1,.43,1.78ZM186.18,50a2.44,2.44,0,0,0-.75,1.62h4.78a2.44,2.44,0,0,0-.75-1.62,2.48,2.48,0,0,0-3.28,0Z"/><path class="cls-1" d="M198.07,45.9H199v9.51h-.91Z"/><g class="cls-2"><rect class="cls-1" x="1.79" y="62.29" width="197.24" height="1"/><path class="cls-1" d="M1.88,64.67a1.88,1.88,0,1,1,1.88-1.88A1.88,1.88,0,0,1,1.88,64.67Z"/><circle class="cls-1" cx="198.93" cy="62.79" r="1.88"/></g><path class="cls-1" d="M134.65,88.6h-5.29a5.52,5.52,0,0,1-3.54-.87,3.87,3.87,0,0,1-1-3.07v-11h9.85v2.61h-6.93v3.5h4.85l-.21,2.61h-4.64v2.08a1.5,1.5,0,0,0,.4,1.21,2.26,2.26,0,0,0,1.45.34h5.08Z"/><path class="cls-1" d="M149.31,88.6h-3.62l-3.13-5.2-3.08,5.2h-3.61l5-7.66-4.7-7.29h3.59l2.79,4.83,2.84-4.83H149l-4.7,7.29Z"/><path class="cls-1" d="M160.38,74.94a6.23,6.23,0,0,1,0,7.59,4.92,4.92,0,0,1-3.64,1.29h-2.88V88.6h-2.92V73.65h5.8A4.92,4.92,0,0,1,160.38,74.94Zm-1.62,3.79c0-1.65-.73-2.47-2.17-2.47h-2.73v4.93h2.73a2.15,2.15,0,0,0,1.61-.57A2.62,2.62,0,0,0,158.76,78.73Z"/><path class="cls-1" d="M174,88.6h-5.29a5.52,5.52,0,0,1-3.54-.87,3.87,3.87,0,0,1-1-3.07v-11H174v2.61h-6.93v3.5h4.85l-.21,2.61h-4.64v2.08a1.5,1.5,0,0,0,.4,1.21,2.26,2.26,0,0,0,1.45.34H174Z"/><path class="cls-1" d="M188.16,88.6h-3.39l-2.91-5.54h-2.11V88.6h-2.91V76.87a3.32,3.32,0,0,1,.77-2.45,3.65,3.65,0,0,1,2.61-.77h2.48a4.59,4.59,0,0,1,4.85,4.79,4.44,4.44,0,0,1-.79,2.62,4.12,4.12,0,0,1-1.94,1.52ZM184,80a2.21,2.21,0,0,0,.6-1.59,2.15,2.15,0,0,0-.58-1.55,2.07,2.07,0,0,0-1.54-.58h-1.45a1.16,1.16,0,0,0-1.31,1.32v3h2.76A2,2,0,0,0,184,80Z"/><path class="cls-1" d="M200.29,76.26h-4V88.6h-2.92V76.26h-4V73.65h10.92Z"/></g></g></svg>