<svg xmlns="http://www.w3.org/2000/svg" viewBox="0 0 519.67 149.88"><defs><style>.cls-1{fill:#fff;}</style></defs><title>docmeti-logo</title><g id="Layer_2" data-name="Layer 2"><g id="Layer_1-2" data-name="Layer 1"><path class="cls-1" d="M181.36,69.65a31.16,31.16,0,0,1-9.48,23.06q-9.48,9.36-23.81,9.36t-23.82-9.36a31.16,31.16,0,0,1-9.48-23.06,31.31,31.31,0,0,1,9.48-23.11q9.48-9.42,23.82-9.42t23.81,9.42A31.31,31.31,0,0,1,181.36,69.65Zm-48.91,0q0,7.72,4.38,12.58a15.42,15.42,0,0,0,22.47,0q4.39-4.86,4.39-12.58T159.3,57a15.31,15.31,0,0,0-22.47,0Q132.45,61.93,132.45,69.65Z"/><path class="cls-1" d="M224.54,86.5q8.78,0,15.8-8.77l10.42,11.7q-12.18,12.63-26.34,12.64t-23.93-9q-9.77-8.94-9.77-23.4t9.89-23.52a33.52,33.52,0,0,1,23.46-9.07,36.39,36.39,0,0,1,13.75,2.81,34.62,34.62,0,0,1,12.23,8.31l-9.12,11.93a21.72,21.72,0,0,0-16.16-7.6,17.08,17.08,0,0,0-11.87,4.5q-5,4.5-5,12.52t5,12.47A16.9,16.9,0,0,0,224.54,86.5Z"/><path class="cls-1" d="M320.27,67.19v33.94H302.6V66.72c0-5-.77-8.65-2.28-11s-4-3.52-7.38-3.52a12.56,12.56,0,0,0-9,3.81Q280,59.82,280,67.19v33.94H262.46v-63H280v7.14q7.26-8.19,16.62-8.19a18,18,0,0,1,10.82,3.51,22.75,22.75,0,0,1,7.31,8.54,24.68,24.68,0,0,1,9.78-8.89,26.71,26.71,0,0,1,12.35-3.16q11.1,0,17.9,6.61t6.79,19.13v38.27H343.9V66.72q0-14.51-10.65-14.51A12.54,12.54,0,0,0,324.13,56Q320.26,59.82,320.27,67.19Z"/><path class="cls-1" d="M432,92a35.21,35.21,0,0,1-25,10.07q-14.34,0-23.7-8.84T374,69.53q0-14.85,9.54-23.63A32.1,32.1,0,0,1,406,37.12q13,0,22.06,7.84t9.07,21.53v9.36H391.3a12.51,12.51,0,0,0,5.38,8.43A17.26,17.26,0,0,0,407,87.55a20.18,20.18,0,0,0,15.21-6.2ZM415.17,54.67a13.27,13.27,0,0,0-8.83-3,15.77,15.77,0,0,0-9.54,3.16,12,12,0,0,0-5,8.54h27.61A12.46,12.46,0,0,0,415.17,54.67Z"/><path class="cls-1" d="M470.06,50.81V79a8.11,8.11,0,0,0,1.87,5.68,5.82,5.82,0,0,0,4.45,2q4.9,0,8.3-4.45l6.56,12.29Q483,102.07,474,102.07a21.37,21.37,0,0,1-15.33-6q-6.27-6-6.26-16.27v-29H445V38.17h7.38V19.33h17.67V38.17h15.21V50.81Z"/><path class="cls-1" d="M502.06,30.15a9.93,9.93,0,0,1-3-7.31,10.3,10.3,0,1,1,20.59,0,10.34,10.34,0,0,1-17.61,7.31Zm16.09,71H500.6v-63h17.55Z"/><path class="cls-1" d="M86.66,14.85Q70.43,0,40.09,0H0V113.44H23.81V81.23l-7-.72.79-9.42.27-3.28c.48-5.64,2.72-19.75,13.31-28.92,9.42-8.17,22.33-8.81,29.19-8.47a45,45,0,0,1,5.37.55l7.86,1.37.24,8c.06,2.2.27,21.79-12.79,33.08C51.22,82,37.49,82.28,32,82v31.43h6.82q32.46,0,48.28-15.41t15.82-41.88Q102.89,29.71,86.66,14.85Z"/><path class="cls-1" d="M64.85,40s-17.29-3-27.63,5.94c-8,6.92-10,18.39-10.4,23.32l22.3-15.73.18.21L29.86,72.82c5.65.59,17.59.2,25.17-6.37C65.38,57.5,64.85,40,64.85,40Z"/><path class="cls-1" d="M5.7,142.48a8.19,8.19,0,0,1-3.2-3.17,9.64,9.64,0,0,1,0-9.17A8.21,8.21,0,0,1,5.7,127a9.45,9.45,0,0,1,4.63-1.13,9,9,0,0,1,4,.88,6.71,6.71,0,0,1,2.81,2.57l-1.76,1.2a5.5,5.5,0,0,0-2.19-1.94,6.41,6.41,0,0,0-2.89-.65,6.78,6.78,0,0,0-3.4.85,5.91,5.91,0,0,0-2.35,2.4,7.88,7.88,0,0,0,0,7.12,6,6,0,0,0,2.35,2.38,6.78,6.78,0,0,0,3.4.85,6.67,6.67,0,0,0,2.89-.63A5.45,5.45,0,0,0,15.41,139l1.76,1.19a6.67,6.67,0,0,1-2.82,2.57,9,9,0,0,1-4,.88A9.45,9.45,0,0,1,5.7,142.48Z"/><path class="cls-1" d="M50.77,126v17.45H48.52v-3.18A6.47,6.47,0,0,1,46,142.73a7.62,7.62,0,0,1-3.71.88,7.46,7.46,0,0,1-5.4-1.91,7.44,7.44,0,0,1-2-5.59V126h2.36v9.89a5.81,5.81,0,0,0,1.36,4.18,5.1,5.1,0,0,0,3.88,1.43,5.69,5.69,0,0,0,4.34-1.68,6.49,6.49,0,0,0,1.6-4.66V126Z"/><path class="cls-1" d="M70.61,121.68a1.63,1.63,0,0,1-.5-1.19,1.6,1.6,0,0,1,.5-1.16,1.64,1.64,0,0,1,1.23-.5,1.69,1.69,0,0,1,1.22.48,1.5,1.5,0,0,1,.5,1.14,1.64,1.64,0,0,1-.5,1.23,1.75,1.75,0,0,1-2.45,0Zm0,4.31H73v17.45H70.64Z"/><path class="cls-1" d="M108.76,118.83v24.61H106.5V140a7.16,7.16,0,0,1-2.8,2.69,8.21,8.21,0,0,1-3.93.93,8.9,8.9,0,0,1-4.45-1.13,8.14,8.14,0,0,1-3.12-3.15,10,10,0,0,1,0-9.22A8.05,8.05,0,0,1,95.32,127a9,9,0,0,1,4.45-1.11,8.34,8.34,0,0,1,3.83.88,7.26,7.26,0,0,1,2.8,2.57V118.83Zm-5.49,21.84a6,6,0,0,0,2.32-2.4,7.84,7.84,0,0,0,0-7.1,6,6,0,0,0-2.32-2.4,6.49,6.49,0,0,0-3.3-.85,6.56,6.56,0,0,0-3.34.85,6,6,0,0,0-2.32,2.4,7.84,7.84,0,0,0,0,7.1,6,6,0,0,0,2.32,2.4,6.56,6.56,0,0,0,3.34.85A6.49,6.49,0,0,0,103.27,140.67Z"/><path class="cls-1" d="M139.94,127.57a6.6,6.6,0,0,1,1.83,5.06v10.81h-2.26v-2.72a5.39,5.39,0,0,1-2.34,2.13,8.16,8.16,0,0,1-3.66.76,7.18,7.18,0,0,1-4.65-1.39,4.81,4.81,0,0,1-.12-7.27c1.08-.9,2.79-1.36,5.13-1.36h5.54v-1.06a4.46,4.46,0,0,0-1.26-3.43,5.18,5.18,0,0,0-3.68-1.18,9.26,9.26,0,0,0-3.19.55,7.86,7.86,0,0,0-2.62,1.51l-1.06-1.76a9.47,9.47,0,0,1,3.18-1.74,12.42,12.42,0,0,1,3.92-.62A7.38,7.38,0,0,1,139.94,127.57Zm-2.65,13.27a5.44,5.44,0,0,0,2.12-2.64v-2.85h-5.47q-4.49,0-4.48,3.12a2.82,2.82,0,0,0,1.16,2.4,5.26,5.26,0,0,0,3.25.88A6.19,6.19,0,0,0,137.29,140.84Z"/><path class="cls-1" d="M177.43,118.83v24.61h-2.26V140a7.16,7.16,0,0,1-2.8,2.69,8.21,8.21,0,0,1-3.93.93,8.9,8.9,0,0,1-4.45-1.13,8,8,0,0,1-3.12-3.15,10,10,0,0,1,0-9.22A7.92,7.92,0,0,1,164,127a9,9,0,0,1,4.45-1.11,8.34,8.34,0,0,1,3.83.88,7.26,7.26,0,0,1,2.8,2.57V118.83Zm-5.49,21.84a6,6,0,0,0,2.32-2.4,7.84,7.84,0,0,0,0-7.1,6,6,0,0,0-2.32-2.4,6.49,6.49,0,0,0-3.3-.85,6.56,6.56,0,0,0-3.34.85,6,6,0,0,0-2.32,2.4,7.84,7.84,0,0,0,0,7.1,6,6,0,0,0,2.32,2.4,6.56,6.56,0,0,0,3.34.85A6.49,6.49,0,0,0,171.94,140.67Z"/><path class="cls-1" d="M199.85,142.47a8.35,8.35,0,0,1-3.18-3.17,9.62,9.62,0,0,1,0-9.16,8.16,8.16,0,0,1,3.18-3.15,9.71,9.71,0,0,1,9.09,0,8.07,8.07,0,0,1,3.17,3.15,9.77,9.77,0,0,1,0,9.16,8.25,8.25,0,0,1-3.17,3.17,9.63,9.63,0,0,1-9.09,0Zm7.88-1.8a5.94,5.94,0,0,0,2.31-2.4,8,8,0,0,0,0-7.1,5.94,5.94,0,0,0-2.31-2.4,7,7,0,0,0-6.67,0,6,6,0,0,0-2.32,2.4,7.84,7.84,0,0,0,0,7.1,6,6,0,0,0,2.32,2.4,7,7,0,0,0,6.67,0Z"/><path class="cls-1" d="M269.22,118.83v24.61H267V140a7.16,7.16,0,0,1-2.8,2.69,8.21,8.21,0,0,1-3.93.93,8.9,8.9,0,0,1-4.45-1.13,8.14,8.14,0,0,1-3.12-3.15,10,10,0,0,1,0-9.22,8.05,8.05,0,0,1,3.12-3.14,9,9,0,0,1,4.45-1.11,8.34,8.34,0,0,1,3.83.88,7.26,7.26,0,0,1,2.8,2.57V118.83Zm-5.49,21.84a6,6,0,0,0,2.32-2.4,7.84,7.84,0,0,0,0-7.1,6,6,0,0,0-2.32-2.4,6.49,6.49,0,0,0-3.3-.85,6.56,6.56,0,0,0-3.34.85,6,6,0,0,0-2.32,2.4,7.84,7.84,0,0,0,0,7.1,6,6,0,0,0,2.32,2.4,6.56,6.56,0,0,0,3.34.85A6.49,6.49,0,0,0,263.73,140.67Z"/><path class="cls-1" d="M304.25,135.45h-14.6a6.25,6.25,0,0,0,2.09,4.4,7,7,0,0,0,4.78,1.67,7.52,7.52,0,0,0,3-.58,6.59,6.59,0,0,0,2.35-1.71l1.33,1.53a7.49,7.49,0,0,1-2.91,2.12,10.47,10.47,0,0,1-8.59-.41,8.27,8.27,0,0,1-3.23-3.17,9,9,0,0,1-1.16-4.58,9.38,9.38,0,0,1,1.11-4.58,8,8,0,0,1,3-3.15,8.53,8.53,0,0,1,4.36-1.13,8.45,8.45,0,0,1,4.35,1.13,8,8,0,0,1,3,3.13,9.45,9.45,0,0,1,1.09,4.6Zm-12.66-6a6.37,6.37,0,0,0-1.94,4.2H302a6.42,6.42,0,0,0-1.94-4.2,6.44,6.44,0,0,0-8.5,0Z"/><path class="cls-1" d="M344.32,118.83h2.36v24.61h-2.36Z"/><path class="cls-1" d="M377.86,127.57a6.6,6.6,0,0,1,1.83,5.06v10.81h-2.26v-2.72a5.39,5.39,0,0,1-2.34,2.13,8.16,8.16,0,0,1-3.66.76,7.18,7.18,0,0,1-4.65-1.39,4.81,4.81,0,0,1-.12-7.27c1.08-.9,2.79-1.36,5.13-1.36h5.54v-1.06a4.46,4.46,0,0,0-1.26-3.43,5.18,5.18,0,0,0-3.68-1.18,9.26,9.26,0,0,0-3.19.55,7.86,7.86,0,0,0-2.62,1.51l-1.06-1.76a9.47,9.47,0,0,1,3.18-1.74,12.42,12.42,0,0,1,3.92-.62A7.38,7.38,0,0,1,377.86,127.57Zm-2.65,13.27a5.44,5.44,0,0,0,2.12-2.64v-2.85h-5.47q-4.49,0-4.48,3.12a2.82,2.82,0,0,0,1.16,2.4,5.26,5.26,0,0,0,3.25.88A6.19,6.19,0,0,0,375.21,140.84Z"/><path class="cls-1" d="M434.75,127a7.92,7.92,0,0,1,3.12,3.14,10,10,0,0,1,0,9.25,7.94,7.94,0,0,1-3.1,3.14,8.94,8.94,0,0,1-4.46,1.11,8.19,8.19,0,0,1-3.83-.88,7.21,7.21,0,0,1-2.81-2.57v9.72h-2.35V126h2.25v3.46a7.32,7.32,0,0,1,2.81-2.66,8.21,8.21,0,0,1,3.93-.93A8.92,8.92,0,0,1,434.75,127Zm-1.29,13.7a6,6,0,0,0,2.34-2.4,7.36,7.36,0,0,0,.84-3.55,7.23,7.23,0,0,0-.84-3.53,6.23,6.23,0,0,0-2.34-2.41,6.57,6.57,0,0,0-3.32-.86,6.5,6.5,0,0,0-3.33.86,6.11,6.11,0,0,0-2.32,2.41,7.12,7.12,0,0,0-.85,3.53,7.25,7.25,0,0,0,.85,3.55,5.9,5.9,0,0,0,2.32,2.4,6.5,6.5,0,0,0,3.33.85A6.56,6.56,0,0,0,433.46,140.67Z"/><path class="cls-1" d="M457.05,121.68a1.59,1.59,0,0,1-.5-1.19,1.56,1.56,0,0,1,.5-1.16,1.63,1.63,0,0,1,1.22-.5,1.7,1.7,0,0,1,1.23.48,1.54,1.54,0,0,1,.5,1.14,1.73,1.73,0,0,1-2.95,1.23Zm0,4.31h2.35v17.45h-2.35Z"/><path class="cls-1" d="M494.47,135.45h-14.6a6.25,6.25,0,0,0,2.09,4.4,7,7,0,0,0,4.78,1.67,7.44,7.44,0,0,0,3-.58,6.63,6.63,0,0,0,2.36-1.71l1.32,1.53a7.46,7.46,0,0,1-2.9,2.12,10.47,10.47,0,0,1-8.59-.41,8.27,8.27,0,0,1-3.23-3.17,9,9,0,0,1-1.17-4.58,9.28,9.28,0,0,1,1.12-4.58,8,8,0,0,1,3.05-3.15,9,9,0,0,1,8.71,0,8,8,0,0,1,3,3.13,9.45,9.45,0,0,1,1.1,4.6Zm-12.66-6a6.33,6.33,0,0,0-1.94,4.2h12.37a6.33,6.33,0,0,0-1.94-4.2,6.43,6.43,0,0,0-8.49,0Z"/><path class="cls-1" d="M512.58,118.83h2.35v24.61h-2.35Z"/></g></g></svg>