<svg xmlns="http://www.w3.org/2000/svg" viewBox="0 0 797.96 797.96"><defs><style>.a{fill:#ebfaff;}</style></defs><title>docmeti-texture</title><polygon class="a" points="5.09 0 0 8.44 0 10.89 6.56 0 5.09 0"/><path class="a" d="M718.09,86.51a3.67,3.67,0,0,0,.66-.05,3.73,3.73,0,0,0,2.45-1.55,3.69,3.69,0,0,0,.58-1.26l77.29,6.69V89.11l-77.19-6.69c0-.12,0-.24,0-.36a3.73,3.73,0,0,0-1.55-2.45,3.62,3.62,0,0,0-1.25-.57l6.09-68.74.36,0A3.81,3.81,0,0,0,727,3.42a3.73,3.73,0,0,0-2.84-.64,3.77,3.77,0,0,0-3.05,4.55L694.4,17.93a3.87,3.87,0,0,0-1.06-1.15,3.81,3.81,0,0,0-2.79-.64l-5-15h-1.3l5.13,15.43A3.87,3.87,0,0,0,688,17.69a3.75,3.75,0,0,0-.64,2.85,3.46,3.46,0,0,0,.31.94l-32.1,21.78,6.3-42.15h-1.24L654.23,44.2l-6.56,4.45a2.94,2.94,0,0,0-.56-.49,4.24,4.24,0,0,0-.72-.4L657.54,1.11h-1.26L645.19,47.49a3.48,3.48,0,0,0-.91,0,3.71,3.71,0,0,0-1.61.7L622.9,29.08a3.77,3.77,0,0,0-.57-5l15-23H635.9L621.32,23.44a3.79,3.79,0,0,0-4.43,5.92L573.84,80a3.79,3.79,0,0,0-2.59-.51A3.82,3.82,0,0,0,568.79,81a3.71,3.71,0,0,0,.07,4.45l-45.47,47.27a3.8,3.8,0,0,0-5.9,3.78,3.71,3.71,0,0,0,1.09,2.05l-77,108.86a3.8,3.8,0,0,0-3.84,6.52,3.73,3.73,0,0,0,2.18.69,3.84,3.84,0,0,0,3.12-1.6h0a3.88,3.88,0,0,0,.63-1.59l37.46-9.57,4.26,21.59a3.76,3.76,0,0,0-1.77,1.35,3.87,3.87,0,0,0-.64,2.86,3.8,3.8,0,0,0,3.73,3.14,4.89,4.89,0,0,0,.66-.05,3.82,3.82,0,0,0,2.46-1.56L490,269,521.52,277a3.79,3.79,0,0,0,1.58,3.44,3.72,3.72,0,0,0,2.18.7,3.66,3.66,0,0,0,.65-.06,3.71,3.71,0,0,0,1.91-.94l88.51,70.15a3.75,3.75,0,0,0,1.12,4.94,3.72,3.72,0,0,0,2.18.7,3.56,3.56,0,0,0,.65,0,3.83,3.83,0,0,0,3.11-4.38,4,4,0,0,0-.38-1.09l77.55-57.18a2.8,2.8,0,0,0,.45.39,3.74,3.74,0,0,0,2.18.7,3.8,3.8,0,0,0,3.76-4.44c0-.1-.06-.19-.08-.28l31.72-13.8-5.35,12.52a3.72,3.72,0,0,0-.88-.11,3.52,3.52,0,0,0-2.48,1.08,3.57,3.57,0,0,0-1,2.53,3.5,3.5,0,0,0,.58,1.87L653,364.61a3.54,3.54,0,1,0-2.14,6.35,3.58,3.58,0,0,0,1.07-.18l41.26,78.79c-.13.11-.27.21-.4.34a3.56,3.56,0,0,0-1,2.55,3.5,3.5,0,0,0,1.08,2.47,3.59,3.59,0,0,0,2.48,1l.29,0,16.2,61.57-38.1-34.19a4,4,0,0,0-.57-5,4,4,0,0,0-2.82-1.12,4,4,0,0,0-2,.61L622.7,425a3.95,3.95,0,0,0-4.9-6L576,364.17a4,4,0,0,0-.11-5.59,4.16,4.16,0,0,0-2.82-1.11,3.89,3.89,0,0,0-2.32.81L470.06,261a4,4,0,0,0-6.09-5,3.94,3.94,0,0,0,1.66,6.52l3.93,40.46-23.13,1a4,4,0,0,0-1.13-2.07,4,4,0,0,0-2.83-1.11,3.91,3.91,0,0,0-2.77,1.21,4,4,0,0,0,.09,5.61c.08.08.17.13.25.2l-13.41,31.45a4,4,0,0,0-1-.14h-.06a4,4,0,0,0-3.22,6.17l-64.67,60-.46-47.38a5.8,5.8,0,0,0,1.22-.27,6.13,6.13,0,0,0,3.81-7.76h0a6.13,6.13,0,0,0-3.82-3.8l42.22-193c.2,0,.41,0,.62,0a6.11,6.11,0,0,0,5.77-8.09h0a6.1,6.1,0,0,0-11.68.44l-65.58-9.27,37.37-19.41a4.29,4.29,0,0,0,3.44,1.76,4.36,4.36,0,0,0,.51,0h0a4.26,4.26,0,0,0,2.1-7.59,4.28,4.28,0,0,0-3.15-.86,4.14,4.14,0,0,0-1.52.51L310.87,35a3.47,3.47,0,0,0,.32-.34,4.23,4.23,0,0,0,.86-3.12,4.43,4.43,0,0,0-.49-1.53L348.12,2.15,367.19,21a2.66,2.66,0,0,0-.3.61h0A2.7,2.7,0,0,0,368.65,25a2.37,2.37,0,0,0,.36.09l2.74,57.17a2.52,2.52,0,0,0-.54.21,2.7,2.7,0,0,0,.42,5,2.6,2.6,0,0,0,.82.13A2.72,2.72,0,0,0,375,85.65a3,3,0,0,0,.11-.83l54-12.12s0,.07.05.1a2.64,2.64,0,0,0,1.58,1.33,2.56,2.56,0,0,0,.82.13l9.94,44.64a2.71,2.71,0,0,0-1.44,1.61h0a2.7,2.7,0,0,0,1.75,3.4,2.85,2.85,0,0,0,.81.13,2.7,2.7,0,0,0,2.41-3.93l14.65-12a2.61,2.61,0,0,0,.85.47,2.54,2.54,0,0,0,.81.13,2.71,2.71,0,0,0,1.09-.24l24.89,34.27a2.55,2.55,0,0,0-.56,1,2.69,2.69,0,0,0,1.75,3.39,2.6,2.6,0,0,0,.82.13,2.71,2.71,0,0,0,2.57-1.88,2.68,2.68,0,0,0-.17-2.06,2.62,2.62,0,0,0-1.14-1.14l14.54-52.31.16,0a2.71,2.71,0,0,0,1.24-.31A2.63,2.63,0,0,0,507.86,88a2.68,2.68,0,0,0-.17-2.06,2.71,2.71,0,0,0-.85-1l17-40.59a2.72,2.72,0,0,0,.49.05,2.63,2.63,0,0,0,1.25-.31,2.68,2.68,0,0,0,.43-4.49l19-38.55h-1.28L526.56,36,536.2,1.11H535l-10.48,38a2.47,2.47,0,0,0-.61,0L517.52,23.6a2.68,2.68,0,0,0,.87-3.45,2.64,2.64,0,0,0-1.58-1.33,2.53,2.53,0,0,0-.72-.12L512.93,1.11h-1.17L515,18.9l-.21.09a2.67,2.67,0,0,0-1.33,1.58l0,.13-26.61-1.17A2.71,2.71,0,0,0,485,17.42a2.66,2.66,0,0,0-2,.16L469.85,1.11h-1.48L482,18.3l-.07.09L455.25,6.31l1.65-5.2h-1.21l-1.5,4.72L443.74,1.11h-2.8l12.89,5.83-8,25.19a2.48,2.48,0,0,0-1.12.14L425.82,1.11h-1.35l19.25,31.75a2.68,2.68,0,0,0-.65,1L372.16,22.25a2.8,2.8,0,0,0-.18-.81L403.25,1.11h-2.11L371.36,20.48a2.63,2.63,0,0,0-.49-.39l6.55-19H376.2l-6.42,18.6a2.7,2.7,0,0,0-1.78.43L349,1.45l.44-.34h-2.42l.15.14L310.78,29c-.11-.1-.21-.22-.34-.32a4.15,4.15,0,0,0-3.13-.86,4.26,4.26,0,0,0-2.84,1.6l0,0L253.11,1.11h-2.6l53.34,29.42a4,4,0,0,0-.27,1.13L245,35.6a4.23,4.23,0,0,0-4.35-3.32L234.22,1.11h-1.29l6.43,31.41a4.29,4.29,0,0,0-1.88,1.36,4.22,4.22,0,0,0-.89,2.52l-23.73,2.94L191.13,12.78l0-2.4a3.21,3.21,0,0,0,.19-.31,6.06,6.06,0,0,0,.29-4.67,6.44,6.44,0,0,0-.52-1.13l0-3.16h-1.27V2.76a6.12,6.12,0,0,0-5.95-1.16l-.05,0,.25-.51h-1.41l-.85,1.69a6.15,6.15,0,0,0-2.05,4.06l-7.92,15.69L154.23,42.92,110.51,26.84a4.18,4.18,0,0,0-2.46-4.75l5.62-21h-1.31l-5.53,20.65a4.18,4.18,0,0,0-1,0,4.25,4.25,0,0,0-3.7,4.74,4.2,4.2,0,0,0,1,2.27L49,92.32l-1.38-1.19,15.47-90H61.77L46.48,90.16,45.19,89,30,7.18,46.6,1.11H42.9L29.77,5.92l-.89-4.81H27.6l1,5.25L1.11,16.41v1.35L28.81,7.62l14.85,80.1L37.6,82.47,1.11,25.33v2.36L34.23,79.55,1.11,50.87v1.84l35.75,31,6.33,9.91a4.23,4.23,0,0,0-.1,6.31L7.45,151.8a4.06,4.06,0,0,0-1.52-.42L1.11,80.93V99.49l3.56,52A4.23,4.23,0,0,0,2.22,153,4.25,4.25,0,0,0,3,159a4.25,4.25,0,0,0,2.61.91,4.55,4.55,0,0,0,.53,0h0a4.13,4.13,0,0,0,3.46-2.78l60.84,12.13-22.68,74a6.06,6.06,0,0,0-3.09.22l-.11.05L1.11,156.67v3.11L43.3,244.1c-.18.12-.36.24-.52.37L1.11,203.75v1.94l40.28,39.37L1.11,219.49v1.65l40,25.4a6.11,6.11,0,0,0,5.51,8.77h.19L54,303.91l-.42.12a7,7,0,0,0-.92.42L1.11,230.81v2.42l50.36,72a6.1,6.1,0,0,0-1.75,6.55,7.26,7.26,0,0,0,.37.85l-49,33.1v1.68l49.77-33.64a6.09,6.09,0,0,0,6.61,1.81,6.07,6.07,0,0,0,3.7-3.54l84,22.41a6.15,6.15,0,0,0,.25,2.87,6.08,6.08,0,0,0,3.42,3.63L138,414.57a6.28,6.28,0,0,0-2.17.32,6.11,6.11,0,0,0-3.51,3.09,6.39,6.39,0,0,0-.54,1.67l-69-3.79a6.1,6.1,0,0,0-11.58-2.33.61.61,0,0,0,0,.12l-50-47v1.91l49.55,46.61a5.88,5.88,0,0,0,0,2.4l-49.59,17V436l50.06-17.14A6,6,0,0,0,54,421.7a5.77,5.77,0,0,0,1.6.52L51.3,488.74a6.18,6.18,0,0,0-1.68.33,6,6,0,0,0-3.07,2.37L1.11,467.93v1.56l44.78,23.18a6.11,6.11,0,0,0,3,7.67,6.33,6.33,0,0,0,1.56.51L47.1,550.77,10,505.69l-8.92-23.1v3.87l6.1,15.8-6.1-7.42V497l7.7,9.36,33,85.49a6.1,6.1,0,0,0,.12,10.87,6.4,6.4,0,0,0,1.62.53L42.76,616l-19.83,4.67a3.38,3.38,0,0,0-.18-.44,4.26,4.26,0,0,0-1.67-1.72l-20-58.33v4.29l18.31,53.49a4.34,4.34,0,0,0-1.78,8.47,4.29,4.29,0,0,0,3.31-.33c.08,0,.15-.1.22-.14l1.68,2,11.79,34.45-33.53,25V689l34-25.31,2,5.87a6.1,6.1,0,0,0,2.63,11.62,5.9,5.9,0,0,0,2-.33,6.12,6.12,0,0,0,3.8-7.75h0a6.15,6.15,0,0,0-1.63-2.51L48.79,658c.1-.08.19-.18.29-.27l36.1,27.71L38,693.64l-36.93-1v1.27l30.6.84L1.11,700v1.29l37-6.4,31.53.87-4.13.67L1.11,702v1.27l48-4.09L1.11,707v1.27l64.38-10.51,7-.6A4.11,4.11,0,0,0,73,698l-19.9,21.39a4.24,4.24,0,0,0-5.75.9,4.12,4.12,0,0,0-.71,1.38L1.11,709.57v1.32l45.39,12a4,4,0,0,0,0,.49,4.4,4.4,0,0,0,.42,1.36l-44,30.7a4.37,4.37,0,0,0-1.4-.29l-.43-3.46v11.93c.11,0,.21,0,.32,0a4.58,4.58,0,0,0,.53,0,4.25,4.25,0,0,0,2.18-7.49l43.52-30.37a4.27,4.27,0,0,0,3.09,1.35,4.19,4.19,0,0,0,.5,0h0a4.15,4.15,0,0,0,.48-.11l17.4,42.64a4.24,4.24,0,0,0-.27,7.11L57.59,799.07H59L70,777.3a4.74,4.74,0,0,0,.72.18l.15,21.59h1.27L72,777.47a4.22,4.22,0,0,0,3.49-3.31l32.56,2a.75.75,0,0,0,0,.15,4.27,4.27,0,0,0,4.22,3.74h.23l3.9,19.05h1.29l-4-19.31a4.15,4.15,0,0,0,1.89-1.37l0,0,37.56,20.71h2.6l-39.57-21.82a4.06,4.06,0,0,0,.25-1.93L155.84,765a4,4,0,0,0,.24.57,4.34,4.34,0,0,0,2.58,2.13,4.38,4.38,0,0,0,1.29.19,4.3,4.3,0,0,0,2-.51,4.21,4.21,0,0,0,1.54-1.42l56.91,27.23-7.76,5.91h2.09l7-5.29L232.67,799v0a0,0,0,0,1,0,0H241a.74.74,0,0,0,0-.14l17.56-8.86,25.31,6.65-37.48,2.35h20.36l21-1.32,5,1.32h4.94l-6-1.57L321,795.67l-2.8,3.4H320l2.9-3.52,5.89-.37,4.69,3.89h2l-4.82-4,19-1.19.61,5.2h1.27l-.61-5.28,8.32-.52,2.61,4.07-.29,1.73h2.9l-1.15-1.8.72-4.3,26.42-1.66a3.22,3.22,0,0,0,.2.67l-12.56,7.09h2.57l10.6-6a4.35,4.35,0,1,0,4.69-6.83c-.13,0-.26,0-.39-.08l-1-14.24,15.28,27.14h1.65l-17.16-30.46L393,748.19a4.4,4.4,0,0,0,2.08-1.11l84.36,52h2.73l-.37-.23,16.42-44.12,55.56,9.38,5.22,35h1.45l-5.19-34.72,62,10.46a6.74,6.74,0,0,0,1.33,4.43,6.24,6.24,0,0,0,.92,1l-13.4,18.83h1.76l12.81-18a6.65,6.65,0,0,0,2.32.79,6.39,6.39,0,0,0,1,.07,6.72,6.72,0,0,0,5.39-2.75l34.15,19.89h2.83L630,778a6.57,6.57,0,0,0,.54-1.78,6.74,6.74,0,0,0-5.69-7.6,6.63,6.63,0,0,0-4.13.73l-79.1-115.92L570.36,666a4.11,4.11,0,0,0-.14,1.06,3.93,3.93,0,0,0,1.21,2.78h0a4,4,0,0,0,5.61-.1,3.84,3.84,0,0,0,1-1.81l114.53,53.36,6.62,77.82h1.45L694,722l46,21.42a6.3,6.3,0,0,0-.3,1.21,6.71,6.71,0,0,0,2.62,6.33l-28.67,48.16h1.67l28.23-47.42a6.74,6.74,0,0,0,1.84.54,6.2,6.2,0,0,0,1,.07,6.74,6.74,0,0,0,3.29-.88l34.09,47.69h1.77l-34.69-48.53a6.68,6.68,0,0,0,.92-9,6.76,6.76,0,0,0-1.33-1.34L779,692.5l13.86,63.32-4.51,43.25h1.44l4-38.78,5.2,23.75v-6.72l-4.72-21.58,4.72-45.2V696.71l-5.7,54.57L780.11,690.7l19-31.6v-2.8l-19.41,32.35-6.8-31.08,25.78-7.1a7.29,7.29,0,0,0,.43.89V644.7a6.71,6.71,0,0,0-.81,4.39l-25.71,7.08-3-13.64,17.75-15.65,11.76,14.92v-2.32l-10.68-13.55,10.68-9.42V614.6L787.5,624.8l-26.19-33.23A6.7,6.7,0,1,0,750,585.85h0a6,6,0,0,0-.07.84L689.5,600.34a6.7,6.7,0,0,0-12.75.15L595,584.13l1.45-6,.31,0h.09a3.92,3.92,0,0,0,2.76-1.22,3.7,3.7,0,0,0,.8-1.21l70.42,17.32c0,.13,0,.26,0,.4a4,4,0,1,0,3.71-4L667.8,560a4,4,0,0,0,2.49-3.73l49.57-8.4,3,11.48a3.56,3.56,0,0,0-1.08.75,3.5,3.5,0,0,0-1,2.53,3.55,3.55,0,0,0,3.54,3.49h.07a3.56,3.56,0,0,0,3.43-4.11l52.83-18.24a3.71,3.71,0,0,0,.62.85h0a3.58,3.58,0,0,0,5-.09,3.9,3.9,0,0,0,.4-.51l12.34,5.4v-1.32l-11.86-5.19a3.36,3.36,0,0,0,.11-.9,3.51,3.51,0,0,0-1-2.43l12.77-17.82v-2.08l-13.76,19.19a3.14,3.14,0,0,0-1.35-.34l-8.62-73.83a3.43,3.43,0,0,0,2.51-3.08l21.22-1.8V458.6l-21.32,1.8a3.72,3.72,0,0,0-.34-.83l21.66-17.74v-1.57l-22.43,18.37-.28-.22,21.45-45.47a3.75,3.75,0,0,0,.94.14c.11,0,.21,0,.32,0v-7c-.14,0-.27,0-.41,0l-12.87-37.94a3.42,3.42,0,0,0,1.75-4L799.07,359v-1.33l-12,5.33a3.17,3.17,0,0,0-.47-.57,3.39,3.39,0,0,0-2.53-1,3.52,3.52,0,0,0-2.5,1.08,3.49,3.49,0,0,0-.92,1.77l-68.51-1.84a2.94,2.94,0,0,0-.16-.65l70.4-39.31,16.71,10v-1.42l-15.49-9.3,15.49-8.65v-1.39l-16.69,9.32-24.51-14.71L772.68,289a3.54,3.54,0,0,0,4.36-.58l0,0,22,14.49v-1.45l-21.34-14.06a3.54,3.54,0,0,0-.77-4,3.32,3.32,0,0,0-.69-.51l3.73-10,14.63,6.36,4.44,10.36v-3.09L796.25,280l2.82,1.22V279.9l-3.51-1.52-8.12-18.95.26-.2,11.37,10.17v-1.62l-10.55-9.44a3.46,3.46,0,0,0,.53-1.94,3.51,3.51,0,0,0-.79-2.16l10.81-4.7V248.2l-11.86,5.16a3.56,3.56,0,0,0-1.77-.45,4,4,0,0,0-.77.11l-14.06-32.43.14-.11,28.32,27.37v-1.69L771.6,219.61a3.56,3.56,0,0,0-.47-4.54,3.51,3.51,0,0,0-2.46-1h-.07a3.53,3.53,0,0,0-3.48,3.6,3.52,3.52,0,0,0,1.08,2.5h0a3.53,3.53,0,0,0,1.35.8L771,256.46l-20.23.85a3.45,3.45,0,0,0-1-1.79,3.55,3.55,0,1,0-4.93,5.1h0c.06.06.13.1.19.15l-5.72,13.42-32.89,14.3a4.41,4.41,0,0,0-.47-.58l76.89-103.36a3.75,3.75,0,0,0,1.73.43,3.68,3.68,0,0,0,.66-.06,3.56,3.56,0,0,0,.56-.15L799.07,210v-2.63l-12.2-23.14a3.71,3.71,0,0,0,.81-.82,3.8,3.8,0,0,0-.9-5.3,4,4,0,0,0-.64-.36L799.07,129v-4.82L785,177.41a3.81,3.81,0,0,0-3.44,1.53L685,130a3.72,3.72,0,0,0,.14-1.62L799.07,94.08V92.8L684.8,127.23a3.57,3.57,0,0,0-.58-.87l32-40.33A3.82,3.82,0,0,0,718.09,86.51ZM461.24,103.36a2.7,2.7,0,0,0-2.45,1.86h0a2.68,2.68,0,0,0,.17,2l-14.64,12a2.71,2.71,0,0,0-.87-.47,2.57,2.57,0,0,0-.82-.11L432.7,74l.1,0A2.67,2.67,0,0,0,434,70.47l37-27.28a3,3,0,0,0,.75.46Zm1.14.2,10.37-58.91,6.13,38.23-16.34,20.75ZM482,69.85a2.61,2.61,0,0,0,.67.11l.73,4.34A2.66,2.66,0,0,0,481.84,76h0a2.73,2.73,0,0,0,.5,2.53l-2.48,3.15-5.63-35.11L481.34,65a2.61,2.61,0,0,0-1.09,1.42h0A2.71,2.71,0,0,0,482,69.85Zm1.58,9.51a2.41,2.41,0,0,0,.43.1l3.77,51.78-7.7-48,3.15-4A2.63,2.63,0,0,0,483.59,79.36Zm4.68,62.74-24.9-34.26a2.64,2.64,0,0,0,.07-3.5l15.69-19.91,9.23,57.64Zm1.4-.87-4.49-61.86a2.67,2.67,0,0,0,1.33-.89l16.18,8.06a2.68,2.68,0,0,0,1.34,3ZM516.14,24.07a1.75,1.75,0,0,0,.32,0l6.38,15.52a2.71,2.71,0,0,0-1,1.39h0a2.71,2.71,0,0,0,1,3L506.65,82.48Zm-31.51-1.44a2.53,2.53,0,0,0,.75-.24,2.67,2.67,0,0,0,1.33-1.58s0-.08,0-.13l26.61,1.17a2.77,2.77,0,0,0,.25.77A2.7,2.7,0,0,0,515,23.89L505.14,84.5a2.72,2.72,0,0,0-1.95,1l-16.17-8a2.7,2.7,0,0,0-1.79-3.23,3.35,3.35,0,0,0-.68-.12l-.72-4.33a2.71,2.71,0,0,0,1.56-1.68,2.69,2.69,0,0,0-1.75-3.39l-.17,0Zm-1.23,0,.08,0-1.15,41.76-8.08-21a2.68,2.68,0,0,0,.28-4.3ZM454.9,7.42l26.6,12a2.69,2.69,0,0,0,.88,2.61l-8.87,16.52A2.67,2.67,0,0,0,470.35,40l-22.09-5.15a2.73,2.73,0,0,0-.29-1.28,2.69,2.69,0,0,0-1.05-1.09Zm-9.74,30.06a2.83,2.83,0,0,0,.41,0,2.73,2.73,0,0,0,1.24-.3A2.65,2.65,0,0,0,448,36l22.09,5.16a2.63,2.63,0,0,0,.23,1.13l-37,27.27-.31-.22Zm-1.43-.71a2.54,2.54,0,0,0,.36.29L432,68.9a2.7,2.7,0,0,0-3,1.84h0a2.61,2.61,0,0,0-.12.83l-53.62,12Zm-73-12A2.65,2.65,0,0,0,372,23.38L442.88,35a2.5,2.5,0,0,0,.19.86L374.29,82.87a2.62,2.62,0,0,0-1-.61,2.21,2.21,0,0,0-.37-.08L370.17,25A3.55,3.55,0,0,0,370.71,24.79ZM732.45,295.34a3.56,3.56,0,0,0,2.55-1.08,1.67,1.67,0,0,0,.12-.16L756,306.64l-45.59,53.25-.12-.06,21.62-64.54A4.75,4.75,0,0,0,732.45,295.34Zm-2.14-.74a4.53,4.53,0,0,0,.46.3l-21.62,64.54a2.88,2.88,0,0,0-.59-.06,3.54,3.54,0,0,0-2.49,1.08,3.46,3.46,0,0,0-1,2.13l-50.8,4a3.39,3.39,0,0,0-.46-1.05Zm-35,154.23a3.68,3.68,0,0,0-1,.18L653,370.22a4.13,4.13,0,0,0,.39-.34,3.5,3.5,0,0,0,1-2.13l50.79-3.95a3.49,3.49,0,0,0,1,1.68h0a3.54,3.54,0,0,0,1.35.81Zm13.43-82.36a3.45,3.45,0,0,0,1.35-.3l28.56,42.75L697.43,449.5a3.37,3.37,0,0,0-.95-.47Zm86.58,43.84-42.52,17.62-12.59-18.85L759.58,390l35.8,18.51a3.86,3.86,0,0,0-.18,1.12A3.38,3.38,0,0,0,795.29,410.31Zm-23.4,48.44-.11.09a3.55,3.55,0,0,0-.84,1.47l-72-8.14a3.72,3.72,0,0,0-.08-.57l53.48-22.17Zm-20.26-30.34-53.27,22.07a.54.54,0,0,1-.07-.13l41-40.4ZM670.45,485.1h.07a3.92,3.92,0,0,0,2.41-.9l39.51,35.45L716,533.21l-71-29a4,4,0,0,0-.36-2.76L667.7,484A4,4,0,0,0,670.45,485.1Zm47,48.68-3.34-12.66,22.85,20.5,0,.1Zm9.25,5.12-8.61-2.68-.25-.93ZM579.79,497.44l-23,27.93a4,4,0,0,0-2.07-.56,3.81,3.81,0,0,0-2.3.81l-30.2-29.19,36-29.49a3.94,3.94,0,0,0,2.63,1,4,4,0,0,0,1.76-.42L580,492l-.07.06a3.93,3.93,0,0,0-.11,5.38ZM302.84,769a4.35,4.35,0,0,0-.49-1.89,4.85,4.85,0,0,0-.93-1.17L319,739.61l36.26,2.47-4,16.79-11.65,14.18Zm35.77,5.23-13.39,16.3-23-19.12a4.08,4.08,0,0,0,.46-1,.76.76,0,0,0,0-.16Zm-84.71-8.41a4.31,4.31,0,0,0,.49,1.52l-8.92,6.79,3.79-12.46,4.81,2.35A4.18,4.18,0,0,0,253.9,765.81Zm-5.42-5.93-23.39-11.44a4.23,4.23,0,0,0-1.44-4.64l.13-.22,30-5.77a4.2,4.2,0,0,0,1.19.84ZM55,722.35l33-9.14L81.31,727l0,0h0A4.33,4.33,0,0,0,76,729.4l-21.15-5.6A4.15,4.15,0,0,0,55,722.35Zm34.61-9.59,67-18.55a4.25,4.25,0,0,0,3.11,2.46l-1,31.41h0a4.24,4.24,0,0,0-2.83,1.6,4.19,4.19,0,0,0-.86,3.14,4,4,0,0,0,.4,1.32l-6.69,4.54a4.24,4.24,0,0,0-7,1l-57.41-8.61a4.35,4.35,0,0,0-1.9-3.57ZM77.41,500.65A4.35,4.35,0,0,0,80,502.77a4.6,4.6,0,0,0,1.27.19c.13,0,.25,0,.38,0l12.29,51.75-1.14.47a6.08,6.08,0,0,0-7.32-2.83,2.9,2.9,0,0,0-.41.16L55.19,499.76a6.07,6.07,0,0,0,1.89-2.22,5.89,5.89,0,0,0,.61-2.23l22.15-.81a4.35,4.35,0,0,0-2.43,6.15Zm66.41-81.14,54.45-17.16,33.07,46.24-14.07,14.62L143.48,423A6.06,6.06,0,0,0,143.82,419.51Zm84.67-147.93-91.6,19.87-22.26-65a6.15,6.15,0,0,0,2.72-2.59l111.34,45.5A6.17,6.17,0,0,0,228.49,271.58Zm-33.1-162.15a4.26,4.26,0,0,0-1.35-2.6l32.69-48.34,29.47,36,12.38,44.82-16.32,8.42-57.21-36.1A4.3,4.3,0,0,0,195.39,109.43ZM352.17,529.21,335.1,534l-20.94-23.4,38.17,15.91A6.18,6.18,0,0,0,352.17,529.21Zm46.44-101.38a4,4,0,0,0,1.61-.37l32.53,48.7-46.9,46.21a4,4,0,0,0-1.15-.6Zm-15.14,93.75h0a4,4,0,0,0-1.2.23l-23.86-45.57-.47-48.59,36.8-2.85a4,4,0,0,0,1.1,1.92h0a3.85,3.85,0,0,0,1.57.91Zm198.84-98.73c.1.1.22.18.33.27l-20.48,37.15a4.23,4.23,0,0,0-1.41-.25,3.94,3.94,0,0,0-3.88,4.18L504.7,475.41a3.89,3.89,0,0,0-.93-1.42,4,4,0,0,0-2.89-1.1l-14.67-43.23a4.3,4.3,0,0,0,1-.74,4,4,0,0,0,1-3.77L526.94,408a4.18,4.18,0,0,0,.57.69h0a4,4,0,0,0,5.61-.1,3.93,3.93,0,0,0,1.09-2.65l46.93,13.61A4,4,0,0,0,582.31,422.85ZM482.93,623.68a3.63,3.63,0,0,0-1.24.59l-35.31-35.83,12.06-24.17a7,7,0,0,0,1.38.35,6.46,6.46,0,0,0,1,.07,6.65,6.65,0,0,0,3.73-1.16l13.18,15.54Zm-3.77-42.9,20.35,24L485.76,624a3.84,3.84,0,0,0-1.6-.42Zm.94,47.39L428.55,646l10.86-29.69a4.48,4.48,0,0,0,.88.1,4.35,4.35,0,0,0,1.26-8.52,4.3,4.3,0,0,0-3.31.33,4.42,4.42,0,0,0-1.08.84l-.77-.55,9.4-18.85,35,35.53a3.87,3.87,0,0,0-.79,2.41A3.18,3.18,0,0,0,480.1,628.17Zm-67.25,24.24-26.08,52.27-7.56-50.28a4.34,4.34,0,0,0,2.89-2.88,4.29,4.29,0,0,0-.19-3L410.6,631l4.26,16.2a3.93,3.93,0,0,0-2,5.25Zm-43.4,75.15a6.61,6.61,0,0,0-2.62,4.41,6.73,6.73,0,0,0,1.86,5.66l-3.18,3.87-8.67-.59,20.72-86.34c.12,0,.25,0,.38,0h0l7.84,52-10,20a7,7,0,0,0-1.38-.35A6.7,6.7,0,0,0,369.45,727.56Zm2.21,11.83-.43,2.5-4-.27,2.53-3.08A6.76,6.76,0,0,0,371.66,739.39Zm-15.12,2.78,8,.54-11.43,13.92Zm-1-1.34-35.74-2.44,56.27-84.22.23.1Zm17.51-1.21c.14,0,.28,0,.43,0a6.59,6.59,0,0,0,2.62-.56l1.83,3.26-5.28-.36Zm4.29-1.22.13-.08a6.7,6.7,0,0,0,1.28-1.27l9.11,5.61h0a2,2,0,0,0-.07.35l-8.16-.56Zm2.17-2.57a5.83,5.83,0,0,0,.4-1.08l10.35,1.75.5,3.28a4.37,4.37,0,0,0-2.24,1.61Zm.64-2.49a6.72,6.72,0,0,0-.44-2.85l8.95-4.64,1.38,9.16Zm-1.1-4.11-.21-.31a6.88,6.88,0,0,0-1.77-1.64l9.07-18.17,2.29,15.25Zm57.24-115.52L432.65,616l3.16-6.33.61.42a3.83,3.83,0,0,0-.29.7A4.28,4.28,0,0,0,436.31,613.71Zm-6,3.66-19,11.63-11.86-45.07,35.11,24.85ZM411.7,630.28l17.57-10.77-13.36,26.77Zm19.88-12.19L437,614.8a4.46,4.46,0,0,0,1.26,1L427,646.49l-7.08,2.43a4,4,0,0,0-.72-1,3.93,3.93,0,0,0-2-1Zm34.06-55.48a6.53,6.53,0,0,0,1.54-2.61l8.5,1.7,1.73,14.79Zm1.82-4a6.71,6.71,0,0,0-5.73-7.25,6.75,6.75,0,0,0-7.61,5.69h0a6.77,6.77,0,0,0,3,6.6l-11.84,23.74-58.62-59.47a3.87,3.87,0,0,0,.63-1.29l82,9.28a3.94,3.94,0,0,0,3.79,3.76l2.4,20.55Zm8.74-225a4.08,4.08,0,0,0-.81-.59l4.29-11.5,16.71,7.27,12.43,29a4,4,0,0,0-.74.58l-.07.09-31-20.41a3.88,3.88,0,0,0-.84-4.47Zm32,30.4h0a3.91,3.91,0,0,0,2.75,1.12H511a4.64,4.64,0,0,0,.91-.13l16.22,37.49a3.27,3.27,0,0,0-.37.28l-.31-.09-.14.51-.08.1-43.6-26.17,24.2-13.51A3.26,3.26,0,0,0,508.18,364Zm18.4,40.33a4,4,0,0,0-.28,1.54,3.84,3.84,0,0,0,.14,1L487.69,424a3.74,3.74,0,0,0-.56-.7,4,4,0,0,0-5.61.1,3.9,3.9,0,0,0-1,2l-78-2.08a4.2,4.2,0,0,0-.2-.85l80.1-44.72ZM485,430.06l14.61,43.08a4,4,0,0,0-1.49.95c-.12.13-.22.27-.33.41l-40.42-20.9L482,429.34a3.9,3.9,0,0,0,2.34.79h.07C484.64,430.12,484.84,430.09,485,430.06Zm-82.57-5.46,78,2.08a3.78,3.78,0,0,0,.69,1.78L456.25,453l-53.92-27.89A4.84,4.84,0,0,0,402.47,424.6Zm54,29.91,40.78,21.09a4.14,4.14,0,0,0-.22,1.31,4.05,4.05,0,0,0,.12.86l-48.43,20.08-14.38-21.53Zm14.1,78.29c-.05.05-.11.08-.17.14a3.84,3.84,0,0,0-1,1.7l-82-9.27a3.66,3.66,0,0,0-.1-.75l60.9-25.24Zm-23-34.47-60.68,25.15-.15-.23,46.72-46Zm24.05,33.77-22.18-33.2,48.22-20a3.8,3.8,0,0,0,.61.79,5.3,5.3,0,0,0,.52.42L474.36,531.9A4,4,0,0,0,471.61,532.1Zm28.3-51.46a4.07,4.07,0,0,0,1.1.17h.07a4,4,0,0,0,2.31-.81l16.92,16.36L475.9,532.74a4.12,4.12,0,0,0-.41-.32Zm21.3,16.59,30.3,29.28a4,4,0,0,0-.7,2l-73.7,6.25a3.94,3.94,0,0,0-.43-1Zm-17-18.12a4,4,0,0,0,.73-2.33.77.77,0,0,0,0-.15l52.16-11.21a5.85,5.85,0,0,0,.28.56l-36.12,29.59Zm28.28-76.55a4,4,0,0,0-3.24-.59l-16.23-37.5a4.54,4.54,0,0,0,.73-.58,3.94,3.94,0,0,0,1.06-2.11l36.27.17,11.08,9.91Zm1.75-57.33,35,15.22a2.21,2.21,0,0,0-.08.35l-17.63-.09Zm15.44,15.47-34.88-.17A3.91,3.91,0,0,0,510,357.3l-11.91-27.82,32.59,14.17Zm-52.38-32.88-9.26-21.63a4.61,4.61,0,0,0,.38-.28L527.71,341Zm-1.66-.73-15.57-6.76,5.08-13.6a4.13,4.13,0,0,0,.78.08,4,4,0,0,0,1-.13ZM479,319.83l-6.81-3-1.24-12.77,11.16-.47a3.93,3.93,0,0,0,1.13,2.07h0a3.87,3.87,0,0,0,.82.59Zm-.43,1.17-4.31,11.55a3.31,3.31,0,0,0-.55-.06l-1.38-14.2Zm-2.24,18.18.06-.09,31,20.41a4,4,0,0,0-.11,3l-24.82,13.86-28-16.79,16.93-19.77a3.94,3.94,0,0,0,2.07.59A4,4,0,0,0,476.3,339.18Zm-22.94,19.74-24-14.43a3.88,3.88,0,0,0,.28-1.4l40.06-5.52a3.89,3.89,0,0,0,.77,1.41Zm.26,1.6,27.54,16.53-79.48,44.38-.1-.12Zm-51.87,65.69,53.57,27.7-21.67,21.36-32.39-48.5.17-.14A4.23,4.23,0,0,0,401.75,426.21ZM385.81,528.77l58.92,59.76-9.53,19.09L399,582l-13.9-52.84A3.81,3.81,0,0,0,385.81,528.77Zm24.45,100.91-29,17.79a4.24,4.24,0,0,0-2.06-1.38h0a4.24,4.24,0,0,0-2-.11L343.4,545.91a4.26,4.26,0,0,0,1.15-.87l53.38,37.77ZM376,646.38l-.08,0a4.44,4.44,0,0,0-1.39,1.19l-56.89-31.77,23.05-69.51a4.76,4.76,0,0,0,.75.07,4.13,4.13,0,0,0,.78-.08Zm-180,65-33.35,18.39a4.31,4.31,0,0,0-.75-.79,4.2,4.2,0,0,0-1.85-.81l1-31.42h0a4.28,4.28,0,0,0,3.72-4l28.14.43a4.39,4.39,0,0,0,.47,1.49,4.34,4.34,0,0,0,2.58,2.11,4.05,4.05,0,0,0,.5.12Zm.31,30.51L209.52,745l-10,1.93a4.47,4.47,0,0,0-.25-.6,4.34,4.34,0,0,0-2.58-2.13,4.26,4.26,0,0,0-.49-.1Zm-23.93-7.06-8.86-2.13a4.32,4.32,0,0,0,0-.88,4.27,4.27,0,0,0-.24-.95l32.68-18-.2,6.33Zm23.32-14.09L195,740.26l-21-5.06ZM163.7,671.17a4.34,4.34,0,0,0-2.31-2l8.68-39.37.31,0a4.34,4.34,0,0,0,2-.51,4.27,4.27,0,0,0,1.87-2L219,641l-19.48,44.57-11.19,1.81L164,674.63l.06-.15A4.33,4.33,0,0,0,163.7,671.17Zm-95-63.62,7.55-19.14,13.54,16.46L72,609.07Zm1.09,2-2.09.49.49-1.23ZM194.42,490.31l59.37-2.17a4.64,4.64,0,0,0,.16.74l-31.66,13-27.58-9.13A4.24,4.24,0,0,0,194.42,490.31ZM350.37,352a6.3,6.3,0,0,0,.12,1L248.59,385l-4.85-41.59ZM243.57,342,236,276.9c.19,0,.39-.08.58-.14a6.08,6.08,0,0,0,2.69-1.86L351,349a.35.35,0,0,1-.05.08,6,6,0,0,0-.5,1.52ZM254,443.38l-5.18-5.79a4.35,4.35,0,0,0-5.39-6.62,4.3,4.3,0,0,0-2.12,2.57,4.36,4.36,0,0,0,.73,3.92l-9.72,10.11-32.66-45.66,47.74-15.05Zm4.43,37.89c-.2,0-.39.1-.59.16a6.7,6.7,0,0,0-1,.45l-23.79-33.27L243,438.33a4.34,4.34,0,0,0,1.25.64,4.54,4.54,0,0,0,1.27.19,4.28,4.28,0,0,0,2-.51c.13-.07.23-.16.35-.23l6.4,7.15Zm-2.56-33.9L273.41,467l-10.63,14.9a6.23,6.23,0,0,0-3-.77Zm-.14,35.32a5.7,5.7,0,0,0-.89,1l-36.41-19.86,13.66-14.21ZM255,491l-16.61,16.28-14.07-4.67,30.16-12.4A7.18,7.18,0,0,0,255,491Zm82.18,52L251.29,575.3a4.32,4.32,0,0,0-5.65-1.81l-7.18-10.74,88.27-24.91,10.42,3.45A4.27,4.27,0,0,0,337.18,543ZM174.34,623.73l69.84-43.52a4.43,4.43,0,0,0,1,.87l-25.65,58.7L174.66,626.1A4.34,4.34,0,0,0,174.34,623.73ZM107,597.59h0a4.4,4.4,0,0,0-1.64-.17L97,562.17l37.26,13,13.37,19-18.53,15.45-19.11-7A4.34,4.34,0,0,0,107,597.59Zm-10.41-37-1.19-5,19.44-8,18,25.66Zm58.78,25.23a5.84,5.84,0,0,0,.68,1.37l-7.47,6.23-12.3-17.51,18.91,6.6A6.12,6.12,0,0,0,155.41,585.79Zm-7,9.55,18.95,27a4.57,4.57,0,0,0-.84,1.06L130.62,610.2Zm1-.81,7.56-6.3a6.29,6.29,0,0,0,1.51,1.08,6.08,6.08,0,0,0,2.7.63,6.18,6.18,0,0,0,2-.33,6.12,6.12,0,0,0,4-6.75l9.33-2.64-6.15,40.91a4.38,4.38,0,0,0-2,.46Zm27.35-15.83-10,2.81a6,6,0,0,0-.82-1.42L178.39,568Zm3.12-12.22,36-35.25,20.48,30.66-58.25,16.43Zm-2,13.37,59.3-16.74,7.4,11.08a4.31,4.31,0,0,0-1.06,4.94l-69.84,43.52a4.34,4.34,0,0,0-2-1.35h0Zm59.77-18.33L216.8,530.33l22.06-21.6,85.5,28.33Zm-15.13-58.2,14.85,4.92L216,529.15,203.88,511Zm-7.43,26.73L180.23,564.2l7-46.37,15.48-6.36Zm-36.36,35.62L165,579.09a5.9,5.9,0,0,0-1.16-.75,6,6,0,0,0-4.66-.29,4.34,4.34,0,0,0-.62.28L134.4,539.54l51.44-21.15ZM157.4,579.06a6.16,6.16,0,0,0-1.7,2.08v0L135,573.94l-18.87-26.87,17-7Zm-42.14-33.15-31-44.16a4.36,4.36,0,0,0,1.18-1.88,4,4,0,0,0,.17-.89l21.07-1.27,25.68,41.17Zm-1.2.49-18.94,7.79L82.87,502.64a2.72,2.72,0,0,0,.35-.16ZM95.21,560.07l-1.8-.63a6.14,6.14,0,0,0-.09-3l.93-.38Zm.38,1.6,8.56,36.06a4.32,4.32,0,0,0-2.54,2.76,4.36,4.36,0,0,0-.18,1.64L91.3,604.52,76.83,586.93l9-22.95a6,6,0,0,0,1.58.23,6.21,6.21,0,0,0,2-.33,6.09,6.09,0,0,0,3.51-3.1v0ZM90.68,606l13.53,16.45a5.53,5.53,0,0,0-.83,1.08L73.85,609.92Zm1.51-.36,9.55-2.25c.06.15.11.3.18.44a4.35,4.35,0,0,0,2.58,2.12,4.25,4.25,0,0,0,1.27.19,4.38,4.38,0,0,0,2-.51l0,0L118,618.93l-4.65,3.88a5.86,5.86,0,0,0-2.06-1.66,6,6,0,0,0-4.65-.29,6.11,6.11,0,0,0-1.33.66Zm16.66-.81a4.32,4.32,0,0,0,.74-1l18.4,6.75-9,7.54Zm20.64,6.34,36.64,13.45a4.27,4.27,0,0,0,.4,2.93,4.34,4.34,0,0,0,2.3,2l-8.67,39.37a4.35,4.35,0,0,0-2.39.52l-38-50.17Zm70.95,75.53,3.73-.6-4.11,3.35a4.81,4.81,0,0,0-.62-.47ZM193,691.2a.76.76,0,0,0-.06.16,3.48,3.48,0,0,0-.12.56l-22.79-.35,18.07-2.92Zm.59-1.13-3.38-1.76,8.7-1.41-.67,1.53A4.34,4.34,0,0,0,193.63,690.07Zm3.54,22,51.1-28.18L197,718.27Zm.05-1.47.42-13.7a4.34,4.34,0,0,0,3.33-6.37s-.07-.1-.1-.16l5.82-4.75,50.08-8.08.06.18Zm8.91-26.17-5.09.82,19.21-44,25.26,7.7a4.38,4.38,0,0,0,.46,2.7l.1.15Zm39.75-36.66-25.12-7.65,25.58-58.55a3.71,3.71,0,0,0,.65.12l2,63.67a4.51,4.51,0,0,0-1.27.42A4.36,4.36,0,0,0,245.88,647.8Zm2.38-66.12a4.35,4.35,0,0,0,2.68-1.63l38.83,21.68L252.09,646a4,4,0,0,0-1-.48,4.32,4.32,0,0,0-.78-.16Zm42.63,20.68,25.19,14.07-10.9,32.85-51.09-.23a4.36,4.36,0,0,0-1-2.25ZM254,650.93a4.52,4.52,0,0,0,.12-.62l50.68.23-12.12,36.57a4.3,4.3,0,0,0-2.79.43,4,4,0,0,0-.59.39L253,652.63A4.38,4.38,0,0,0,254,650.93Zm52.14-.38,67.55.31a3.8,3.8,0,0,0,.14.67L295.48,689a4.33,4.33,0,0,0-1.63-1.46ZM373.78,649a3.19,3.19,0,0,0-.12.6l-67.14-.3,10.69-32.23,56.68,31.65A1.62,1.62,0,0,0,373.78,649Zm-57.3-33.79-24.75-13.82,47.39-55.67a3.79,3.79,0,0,0,.34.2ZM290.6,600.75l-39.05-21.81c0-.09.07-.17.1-.27a4.18,4.18,0,0,0,.08-2.19l85.89-32.33a4.41,4.41,0,0,0,.53.75Zm46.94-60.66-8.63-2.86,5.87-1.66,3.3,3.68A4.14,4.14,0,0,0,337.54,540.09Zm-3.8-5.68-7.2,2-86.66-28.71L256,492a6.07,6.07,0,0,0,9.16-1.76l46.3,19.31Zm-68.05-45.5a6.1,6.1,0,0,0-.08-3.68h0a6.1,6.1,0,0,0-1.7-2.55L274.36,468l34.94,39Zm8.48-23-18.56-20.74-6.85-58.74,102.17-32.21a6.12,6.12,0,0,0,1.48,2Zm77.65-118.1L240,273.74a6.09,6.09,0,0,0,.35-4.75h0a6.13,6.13,0,0,0-3-3.46L247,239.62a4.28,4.28,0,0,0,2.58.89,4.36,4.36,0,0,0,.51,0h0a4.27,4.27,0,0,0,2.1-7.59,3.79,3.79,0,0,0-.6-.38l23.49-64.93a4.47,4.47,0,0,0,.82.08,4.89,4.89,0,0,0,.54,0,4.19,4.19,0,0,0,2.82-1.59,4.26,4.26,0,0,0,.88-3.15,4.59,4.59,0,0,0-.2-.85l13.72-7.13L354,346.19A6.07,6.07,0,0,0,351.82,347.82ZM249.82,232l21.34-57.37-20.78,57.46A3.63,3.63,0,0,0,249.82,232Zm39.42-95.68a6.1,6.1,0,0,0,3.42-4l32.86,4.64-31,16.11Zm4,17.36-13.94,7.24a3.89,3.89,0,0,0-.81-.86,4.14,4.14,0,0,0-1.64-.78l8.41-22.61a6,6,0,0,0,1.46.19,5.82,5.82,0,0,0,1.17-.13Zm-17.83,5.51h-.05l-5.27-19.08,11.59-6a6,6,0,0,0,2.29,2.05Zm-1.26.35a4.19,4.19,0,0,0-1.48,1.09l-19.06-12L269,140.7Zm7.09-31.48a6,6,0,0,0-.29,4.66c0,.07.06.12.08.18l-11.32,5.84L258.18,96.93l24.2,29.57A6.26,6.26,0,0,0,281.26,128.06Zm-28.94,21.23L272,161.71a4.22,4.22,0,0,0-.35,1.48l-57.33,5.7Zm19.46,15.17a4.2,4.2,0,0,0,1,1.84l-24.52,65.9A4.23,4.23,0,0,0,246,234l-84.37-37.88,49.65-25.61ZM160,195.35l-33.27-14.93.56-1.63,80.23-8ZM126.32,181.6l32.25,14.49-41.49,21.4a6.2,6.2,0,0,0-2.44-2.11Zm-.1-4-.63.06a4.35,4.35,0,0,0-.68-1.46l2.72-2.68Zm-2.19-2.3a4.81,4.81,0,0,0-.75-.45l20.21-68.63,7.18.65-22.11,64Zm-33.37-53a5.93,5.93,0,0,0-1.29-2.16l15.09-17.49,8.94.81,7,71.1a4.17,4.17,0,0,0-1.34.6l-27.63-30L87.18,130a6,6,0,0,0,3.48-7.6Zm14.82-20.82,6.93-8,.86,8.73Zm9.2,2.1,27.53,2.49-20.15,68.4a2.21,2.21,0,0,0-.37,0ZM152.1,107l34.83,3.16a2.43,2.43,0,0,0,0,.27,4.21,4.21,0,0,0,.81,2L130.8,168.66Zm34.93,1.9-34.51-3.13,15-43.31,21.27,44a4,4,0,0,0-1.74,2.49ZM167.22,59,162.83,50a4.45,4.45,0,0,0,1-.88,4.18,4.18,0,0,0,.88-2.5l7.16-.89Zm-.58,1.68-15.55,45-7.24-.66,16-54.35a3.53,3.53,0,0,0,.56,0,3.27,3.27,0,0,0,.54,0,4.54,4.54,0,0,0,.75-.16Zm-24.07,44.19-28-2.54-1-10.17,34-39.36,9.34-4.11a4.26,4.26,0,0,0,1,1.1,4,4,0,0,0,.82.48ZM113.35,90.28l-2.12-21.49,33.31-14.65Zm-1.13,1.31-8.46,9.8L54.27,96.91l-2.35-2L110,69.33Zm-9.47,11L88.3,119.31a5.09,5.09,0,0,0-.74-.46,6,6,0,0,0-4.66-.29,6.11,6.11,0,0,0-2.15,1.29L55.9,98.32Zm-19,27.78a6.72,6.72,0,0,0,1.1.11,6.37,6.37,0,0,0,1-.08L89.39,143l-7.12-7.74Zm6.37,15.3,7.8,27.75-25.79-5.14,9.69-31.62Zm2.08,2.26,26,28.17a4.26,4.26,0,0,0-.67,1.22l-18-3.59Zm25,30.62a4.45,4.45,0,0,0,0,.73,4.23,4.23,0,0,0,1.61,2.84,4.19,4.19,0,0,0,2.6.9,4.9,4.9,0,0,0,.54,0,4.19,4.19,0,0,0,2.82-1.59A3.7,3.7,0,0,0,125,181l-11.72,33.89a5.87,5.87,0,0,0-2.29-.07l-11.18-39.8Zm.64,44a6.09,6.09,0,0,0-.09-3.63h0c0-.06-.05-.12-.08-.19l42.48-21.91,85.26,38.29a4.12,4.12,0,0,0,.48,3.36L236,265.05a6,6,0,0,0-3.44.14,6.13,6.13,0,0,0-3.36,2.85Zm116.7,54.55h0l7.56,64.82-84.85-6.77a6,6,0,0,0-.33-1.77,6.09,6.09,0,0,0-.56-1.18l73.79-57A6.17,6.17,0,0,0,234.58,277.09Zm-77.9,61a6,6,0,0,0,.5-1.52l85.14,6.8,4.92,42.14-48.43,15.26-43.52-60.84A6.17,6.17,0,0,0,156.68,338Zm60.75,126.84,36.74,20a6.28,6.28,0,0,0-.44,1.83l-59.42,2.17ZM194.33,494l26.16,8.66-17.4,7.16-9.73-14.56A4.16,4.16,0,0,0,194.33,494Zm7.56,16.31-14.44,5.94,3-19.86h0a4.32,4.32,0,0,0,1.85-.42Zm-15.8,6.5-52.44,21.56-25.4-40.74,78-4.7a4.34,4.34,0,0,0,3,3.27h0Zm.19-26a3.87,3.87,0,0,0-.16.89l-78.64,4.73-1.76-2.83,80.63-2.95C186.33,490.66,186.3,490.7,186.28,490.76Zm-80.38,5.72-20.4,1.23a4.83,4.83,0,0,0-.4-1.16,4.37,4.37,0,0,0-2.58-2.11l-.15,0,21.74-.8ZM75.82,585.69l-7.51-9.13L83.45,562.7a5.78,5.78,0,0,0,1.13.77Zm-.59,1.48L67.43,607l-17-7.8a6,6,0,0,0,0-3.88,6.23,6.23,0,0,0-.85-1.59l17.71-16.2ZM49.84,600.42l17.08,7.85-.87,2.2-21.88,5.15L45,603.36a5.91,5.91,0,0,0,4.89-2.94Zm17.3,11.08,4.51-1.06,31.13,14.3a6.13,6.13,0,0,0,5.8,8,5.93,5.93,0,0,0,2-.34,6.09,6.09,0,0,0,3.8-7.76,5.06,5.06,0,0,0-.3-.67l4.75-4,37.95,50.14a4.28,4.28,0,0,0-1,1.71L50.39,654.71a3.5,3.5,0,0,0,0-.65Zm89,63.89a4.31,4.31,0,0,0,2.48,2,4.67,4.67,0,0,0,1.28.19,4.39,4.39,0,0,0,2-.52,4.32,4.32,0,0,0,1.45-1.3l22.9,11.92-21.76,3.51a4.25,4.25,0,0,0-4.58-2.92,4.18,4.18,0,0,0-2.83,1.6,4.34,4.34,0,0,0-.76,1.5l-37.64-.57a3.43,3.43,0,0,0-.09-.44Zm-12.73,17-25.1.84a3.71,3.71,0,0,0,.27-.65,3.86,3.86,0,0,0,.12-.57Zm-25.24-3.25a4.34,4.34,0,0,0-7.91.91,4.23,4.23,0,0,0-.17,1.41L101.87,693a3.39,3.39,0,0,0-.27-.66A4.3,4.3,0,0,0,99,690.18h0a4.36,4.36,0,0,0-4.28,1.05l-6.5-5L154,674.87Zm-7.5,4.35-5.88.2,5.52-1a4.32,4.32,0,0,0,.28.67A.83.83,0,0,0,110.63,693.53Zm-14.13,5a4.53,4.53,0,0,0,1.26.19,4.37,4.37,0,0,0,4.16-3.08c0-.18.07-.36.1-.53l9.66-.33a4.21,4.21,0,0,0,1.44.75,4.33,4.33,0,0,0,1.28.2,4.27,4.27,0,0,0,2-.51,4.2,4.2,0,0,0,.87-.63l37.87-1.28-64.86,18,6.16-12.76ZM141.39,741a3.88,3.88,0,0,0,0,1.13,3.25,3.25,0,0,0,.12.54l-15.29,6.53-41-16.62Zm.58,2.84a3.43,3.43,0,0,0,.24.33l-8.05,8.26-6.31-2.56Zm-7.5,10.08,5.83,2.36L116.91,771.9Zm.95-1,7.69-7.89a4.15,4.15,0,0,0,2.47.81l.53,0a4.18,4.18,0,0,0,3.67-3.58l9.37,1.41-17.58,11.77Zm14.37-12a4,4,0,0,0-.38-1.2l6.69-4.55a3.25,3.25,0,0,0,.5.48,4.19,4.19,0,0,0,2.6.9,4.71,4.71,0,0,0,.53,0,4.24,4.24,0,0,0,2.84-1.62,3.8,3.8,0,0,0,.57-1l7.74,1.86-10.18,6.82Zm22.77-4.78,22.42,5.4-.07,2.53a4.35,4.35,0,0,0-1.56.48,4.3,4.3,0,0,0-2.11,2.58h0l-28.68-4.3Zm19.14,14.52a4.31,4.31,0,0,0,3.7,2.09,4.37,4.37,0,0,0,4.16-3.08,4.56,4.56,0,0,0,.17-1.46l12.76-2.46,4.31,1a4.6,4.6,0,0,0,0,.83l-47,12.36Zm23.79-5.49,2-.39a3.66,3.66,0,0,0-.42.78Zm-3-.72-16.24-3.9.65-20.73,60.76-40.69a4.74,4.74,0,0,0,.51.49h0L223,742.45Zm40.12-11a4.33,4.33,0,0,0,.28,3.21l-28.33,5.46,34.72-61.9a4.19,4.19,0,0,0,1.49.28l.55,0a4.26,4.26,0,0,0,3.69-4.74,4.23,4.23,0,0,0-4.74-3.7,4.26,4.26,0,0,0-3.72,4.26l-47.93,7.74,38.23-31.19a4.13,4.13,0,0,0,1.65.95,4.26,4.26,0,0,0,3.31-.31l.1-.07,36.43,35.41a4.6,4.6,0,0,0-.64,1.27,4.35,4.35,0,0,0,1,4.2L259,731a4.31,4.31,0,0,0-6.36,2.47Zm37.05-38.35a4.74,4.74,0,0,0,.94.43,4.55,4.55,0,0,0,1.25.18,4.34,4.34,0,0,0,4.17-5.63l78.3-37.43a4.3,4.3,0,0,0,.68.79l-56.67,84.83-57.23-3.89a4.11,4.11,0,0,0-.49-1.7,3.92,3.92,0,0,0-.65-.89Zm-28.91,41.33.31-.06-.1-.54a1.06,1.06,0,0,0,0-.19l56.51,3.85-17.18,25.73a4.35,4.35,0,0,0-.59-.25,4.26,4.26,0,0,0-3.3.32,4.16,4.16,0,0,0-.87.62L260.51,737A5.28,5.28,0,0,0,260.78,736.45Zm89.69,25.6-2,8.25a4.36,4.36,0,0,0-4.56,3.07.8.8,0,0,0,0,.15l-2.62-.29Zm1.84-2.24,14-17,4.75.32-2.81,16.66-17,11.85a4.09,4.09,0,0,0-1.52-1Zm20.14-16.56,6.25.43,3.56,6.32-12.4,8.66Zm7.95.54,7.32.5a4.33,4.33,0,0,0,.44,1.59l-4.72,3.3Zm8.5,3.13a4.24,4.24,0,0,0,1.88,1.19,5.06,5.06,0,0,0,.93.17l1.23,17.77-8.87-15.75Zm1-21.69,10.29-5.34-5.79,15.85-3-.51Zm-.23-1.49-2.5-16.6,26.66-53.42a4,4,0,0,0,2.66,1h.08a3.91,3.91,0,0,0,2.77-1.21,4,4,0,0,0,1-3.44l6.1-2.11-25.56,69.92ZM428,647.46l52.51-18.12a3.68,3.68,0,0,0,.73,1,4,4,0,0,0,5.61-.1,4.09,4.09,0,0,0,.49-.61l43.09,18.86a6.25,6.25,0,0,0,.45,2L402.55,717.05Zm102.49-.36a.06.06,0,0,0,0,0l-42.67-18.66a4.25,4.25,0,0,0,.15-1.07,3.91,3.91,0,0,0-1.18-2.74l13.55-18.91,31.94,37.66A6.62,6.62,0,0,0,530.49,647.1Zm-51.63-68.9L477,562l46.56,9.33-23.15,32.29Zm-2.08-17.75-2.45-21a3.81,3.81,0,0,0,1.77-1,3.9,3.9,0,0,0,1.1-2.47l73.71-6.26A3.94,3.94,0,0,0,552,531.6L524.44,570ZM553,532.3a3.88,3.88,0,0,0,1.69.43L561,577.3l-35.17-7Zm10.6-65.48a.5.5,0,0,1,.08-.07,2.63,2.63,0,0,0,.3-.38l58.9,31.26c0,.1,0,.2-.08.3l-36.11-3.37a3.91,3.91,0,0,0-5.69-3.28Zm74.81,39.35a3.91,3.91,0,0,0,2.76,1.12h.06a3.67,3.67,0,0,0,1-.18l3.1,6.52L588.61,496l34.06,3.17a3.94,3.94,0,0,0,1.18,2.6h0a3.94,3.94,0,0,0,6.32-1.12l7.07,2.14a4.32,4.32,0,0,0,0,.62A3.93,3.93,0,0,0,638.4,506.17Zm-52.12-9.6,59.82,18.59,18,37.88a4.62,4.62,0,0,0-.55.46l-77.28-56.87Zm57.12,10a3.88,3.88,0,0,0,1.14-1.22l71.87,29.34.28,1.08L647,514.13ZM667,483,643.9,500.47a4,4,0,0,0-2.81-1.11,3.87,3.87,0,0,0-3.48,2.24l-7.08-2.15a4,4,0,0,0,.05-.6,4,4,0,0,0-6.82-2.7,2.63,2.63,0,0,0-.3.38l-58.9-31.26a3.83,3.83,0,0,0,.22-1.35,4,4,0,0,0-1.21-2.78,4.19,4.19,0,0,0-.33-.26l20.48-37.16a3.87,3.87,0,0,0,1.34.24,4,4,0,0,0,2.83-1.18l79,56.59A4,4,0,0,0,667,483Zm-47.29-56.6h.07a3.94,3.94,0,0,0,2-.6l44.79,51.8-78-55.82a4.24,4.24,0,0,0,.32-.88l26.84,1.88a3.91,3.91,0,0,0,3.93,3.62Zm-3.85-4.85L589,419.65a3.94,3.94,0,0,0-6.78-2.41,4.16,4.16,0,0,0-.72,1.08L534,404.55a3.94,3.94,0,0,0-.59-1.13l29.71-30.73,53.21,47.59A3.93,3.93,0,0,0,615.83,421.54Zm-45-56.86a3.94,3.94,0,0,0,2.26.72h.08a3.81,3.81,0,0,0,1.79-.49l40.22,52.7L564,371.79Zm-7.8,6.29L553,362l16.23.08a4,4,0,0,0,.75,1.78ZM469.2,261.86l100.7,97.31a1.34,1.34,0,0,0-.11.14L531.34,342.6l-42-37.6a3.86,3.86,0,0,0,.63-2.22,4,4,0,0,0-4-3.9,4.1,4.1,0,0,0-.93.14l-16-37Zm-2.31.8h0a3.52,3.52,0,0,0,.92-.13l16,37a4.29,4.29,0,0,0-.72.57,4,4,0,0,0-1.08,2.3l-11.24.47Zm-20.42,42.47,23.21-1,1.19,12.15-24.5-10.65A3.1,3.1,0,0,0,446.47,305.13Zm-5.35,3.25a4,4,0,0,0,1.42.27h.07a3.89,3.89,0,0,0,2.79-1.21,3.61,3.61,0,0,0,.49-.62L471,317.72l1.45,14.88a4,4,0,0,0-1.86,1.06,4,4,0,0,0-1.1,2.68l-40.06,5.52a3.92,3.92,0,0,0-1-1.7,3.88,3.88,0,0,0-.65-.5ZM425.66,347h.07a3.93,3.93,0,0,0,2.78-1.21l.17-.22,23.87,14.32-51.9,60.63-.25-.13L425,346.91A3.7,3.7,0,0,0,425.66,347Zm-2.44-.86a4,4,0,0,0,.62.39L399.23,420a3.78,3.78,0,0,0-.75,0,3.93,3.93,0,0,0-3.84,3.64l-36.73,2.86-.19-19.56Zm-65,188.23a5.9,5.9,0,0,0,2-.33,6.12,6.12,0,0,0,3.8-7.76,6,6,0,0,0-3.09-3.51,6.32,6.32,0,0,0-2.05-.59L358.42,479l22.72,43.41a6.12,6.12,0,0,0-.48.41,4,4,0,0,0,.09,5.61h0a4,4,0,0,0,2.76,1.11c.13,0,.26,0,.39,0l13.52,51.42L345.29,544a4.15,4.15,0,0,0,.28-.69,4.34,4.34,0,0,0-6.21-5.1,2.37,2.37,0,0,0-.33.22l-2.9-3.24,16.43-4.64A6.11,6.11,0,0,0,358.21,534.35Zm-.76-12.18a6.56,6.56,0,0,0-1.22.29,6,6,0,0,0-3.34,2.81l-40.88-17L275.11,467l78.43-109.9c.08,0,.16.11.25.15a5.85,5.85,0,0,0,2.06.59l.47,48.63-20.94,19.42a4,4,0,0,0-5.19,5.95,3.91,3.91,0,0,0,2.75,1.12H333a4,4,0,0,0,1.2-.23L357,476.26ZM336.8,428.05a4,4,0,0,0-.56-1.28l20.1-18.64.18,18.39Zm19.73-.29.44,45.77L335.3,432.14a4.83,4.83,0,0,0,.49-.41,3.91,3.91,0,0,0,1.09-2.45Zm38.66-281a6,6,0,0,0,4.12,5.93l-42.21,193a5.93,5.93,0,0,0-1.78.07L294.9,154.25l32.77-17ZM245.07,36.85l58.62-3.94a4.21,4.21,0,0,0,4.13,3.35,4.71,4.71,0,0,0,.53,0,4.24,4.24,0,0,0,1.53-.5l57.68,75.54a2.73,2.73,0,0,0-.23.25L244.75,38.12A3.89,3.89,0,0,0,245.07,36.85Zm-1,2.36L366.69,112.6a4.15,4.15,0,0,0-.32,2.13,5,5,0,0,0,.21.87l-38.94,20.22-34.79-4.92a6.08,6.08,0,0,0-.31-2.13h0a6.13,6.13,0,0,0-7.77-3.81,5.82,5.82,0,0,0-1.32.66l-26.19-32L242.55,40.38A4.23,4.23,0,0,0,244.11,39.21Zm-3.28,1.56.51,0,13.94,50.44-27.74-33.9L239,40.34A4.21,4.21,0,0,0,240.83,40.77Zm-4.09-3.12a4.21,4.21,0,0,0,1.21,2L226.71,56.26,213.8,40.49ZM225.89,57.47,193,106.11a4.42,4.42,0,0,0-1.24-.36l-.42-62.48,20.82-2.58ZM211.22,39.54,191.33,42l-.19-27Zm-20.06,74.67a4.73,4.73,0,0,0,.53,0,4.19,4.19,0,0,0,2.68-1.45L251,148.43l-40.39,20.83-82.83,8.23,2.13-6.14,58.75-58A4.24,4.24,0,0,0,191.16,114.21Zm-.65-8.46a4.15,4.15,0,0,0-.61.14L168.08,60.81l5.29-15.31,16.7-2.07Zm-6-92.42a5.82,5.82,0,0,0,1.32.17,6.23,6.23,0,0,0,2-.33,5.75,5.75,0,0,0,1.31-.66l.76.93.2,28.72-16.24,2ZM180,9.17l.06.19a5.93,5.93,0,0,0,1.3,2.15l-6.12,7.09Zm-7.35,14.56,9.76-11.3a6.94,6.94,0,0,0,.8.46L172.29,44.36l-7.77,1A4.24,4.24,0,0,0,162.89,43Zm-3.41,3.95-7.44,14.75a4.45,4.45,0,0,0-1.86-.2,4.22,4.22,0,0,0-2.83,1.62.47.47,0,0,0-.06.09l-1.39-.51ZM154.74,44.45l1.69.62a4.29,4.29,0,0,0-.22,1.92,5.43,5.43,0,0,0,.13.58l-6.91,3ZM110.08,28l43.27,15.92-6.89,8L111.09,67.47l-3.7-37.38A4.28,4.28,0,0,0,110.08,28Zm-6,1.56a4.11,4.11,0,0,0,2,.64L109.88,68l-59,26-.94-.81ZM51.9,96.69l-1.68-.15c0-.1,0-.19,0-.28a3.75,3.75,0,0,0-.13-.58l.43-.19Zm-2.57,2.73a4.24,4.24,0,0,0,.78-1.63l3.42.31,26.33,22.8a5.87,5.87,0,0,0-.47.75,6.12,6.12,0,0,0,2.8,8.18l.25.11-1.26,4.12L49.3,99.45Zm-3.12-7.66-.14.79h-.23l-.25-1.32Zm-6-5.18,3.85,3.33.53,2.86a3.27,3.27,0,0,0-.33.14ZM9.83,155.82a4.33,4.33,0,0,0,0-.72,4.18,4.18,0,0,0-1.33-2.57l35.65-51.94A4.17,4.17,0,0,0,46,101a4.71,4.71,0,0,0,.53,0,4.18,4.18,0,0,0,1.85-.71l32.39,35.15L70.78,168Zm62,13.65,26.54,5.29,11.37,40.48a6.1,6.1,0,0,0-3.53,7.42L51.92,246.15a6.15,6.15,0,0,0-2.85-2.54ZM61.3,307.83h0a6.14,6.14,0,0,0-6-4.13l-7.13-48.61.41-.1a6.13,6.13,0,0,0,3.87-7.56l54.25-23.5A6.12,6.12,0,0,0,112,227a5.69,5.69,0,0,0,1.29-.16l22.22,64.91L61.3,307.84Zm84.21,25.28-84-22.41a5.78,5.78,0,0,0,0-1.5L136,293.07l12.58,36.76A6.1,6.1,0,0,0,145.51,333.11Zm-8.16-40.34,91.44-19.83h0a6,6,0,0,0,.56,1.17l-73.79,57a6,6,0,0,0-5.68-1.72Zm12.82,48.6a6.9,6.9,0,0,0,1,.09,6.23,6.23,0,0,0,2-.33,6.7,6.7,0,0,0,1-.45l43.26,60.48-54,17a6.07,6.07,0,0,0-4-3.42Zm-88,77.53a6.2,6.2,0,0,0,.54-1.66l69,3.8a6,6,0,0,0,.31,1.61,6.13,6.13,0,0,0,5.79,4.14,6.08,6.08,0,0,0,5-2.6l73.45,40.06L193,488.5a4.22,4.22,0,0,0-1.25-.64,4.33,4.33,0,0,0-3.31.32,4.47,4.47,0,0,0-1.24,1l-82.29,3L60.46,421A6,6,0,0,0,62.15,418.9ZM57,422.31a5.63,5.63,0,0,0,1.14-.18l.26.25.41-.44.49-.23,44,70.54-45.62,1.67a6.82,6.82,0,0,0-.26-1.06,6,6,0,0,0-3.07-3.5,5.92,5.92,0,0,0-1.62-.53Zm-5.08,78.62a6.14,6.14,0,0,0,1.69-.31c.14-.05.26-.12.39-.18l29.88,52.72a6.13,6.13,0,0,0-2.19,6.92,6.25,6.25,0,0,0,.84,1.6l-15.08,13.8-19-23.13Zm-3.63,53.44,18.13,22L48.64,592.67a6.3,6.3,0,0,0-1.31-.89,6.1,6.1,0,0,0-1.58-.52Zm-5.15,37L11.63,509.82l35.33,43-2.6,38.37A5.92,5.92,0,0,0,43.11,591.36Zm-3.72,77.56a5.62,5.62,0,0,0-1,.14l-2.15-6.29L40,660Zm.68-10.59-4.26,3.17L25.33,630.88l15.32,18.29ZM24.19,627.55l-1.27-3.71a2.55,2.55,0,0,0,.14-.35,4.36,4.36,0,0,0,.18-1.64l19.43-4.58-1.91,30.08Zm18.05,29.16-.71.53.41-6.52.88,1a4.49,4.49,0,0,0-.92,1.62A4.35,4.35,0,0,0,42.24,656.71Zm.45,13a6.16,6.16,0,0,0-1.91-.69l.64-10.1L43,657.72a4.39,4.39,0,0,0,1.79,1.1,4.25,4.25,0,0,0,1.27.19,4.4,4.4,0,0,0,.88-.1Zm4.64-19.21a4.36,4.36,0,0,0-3.32.32c-.08,0-.14.1-.22.15l-1.73-2.07,2-31.95,21.4-5.05L49.61,652.17A4.32,4.32,0,0,0,47.33,650.49Zm2.53,6.28a4.73,4.73,0,0,0,.35-.8l105.31,17.18v.17L86.88,685.19ZM73,692.7a4.28,4.28,0,0,0-.82,1.88l-27.7-.77,42.07-7.28L94,692.22a4.13,4.13,0,0,0-.37.86,4.28,4.28,0,0,0-.17,1l-.83.07-12.07.41A4.22,4.22,0,0,0,79,692a4.27,4.27,0,0,0-6,.74Zm1,6.12a4.18,4.18,0,0,0,2.38.76,4.9,4.9,0,0,0,.54,0,4.25,4.25,0,0,0,3.57-3.08l12.44-1.07.66,0a4.36,4.36,0,0,0,1.78,2.56L88.68,711.7l-34.07,9.44a3.62,3.62,0,0,0-.55-.93ZM70.79,769l-.47.11L52.91,726.52a4.29,4.29,0,0,0,1.2-1c.11-.15.2-.32.3-.48l21.28,5.63a4.36,4.36,0,0,0,3,4.66,4.6,4.6,0,0,0,1.27.19,4.36,4.36,0,0,0,2-.52,4.2,4.2,0,0,0,1.7-1.64l40.8,16.54L74.93,771A4.28,4.28,0,0,0,70.79,769Zm43.95,3.29a4.23,4.23,0,0,0-6.63,2.56l-32.56-2s0-.09,0-.14a4.71,4.71,0,0,0-.12-.54l50.78-21.69,7,2.84Zm40.86-8.61L116.15,774.1a.69.69,0,0,1-.05-.13l25.62-17.16,14,5.68A4.28,4.28,0,0,0,155.6,763.72Zm5.6-4.38h0a4.36,4.36,0,0,0-5,2L143,756l18-12.07,30.06,4.5a4.61,4.61,0,0,0,.13,1.11l-27.58,11.75A4.31,4.31,0,0,0,161.2,759.34Zm3,3.43,53-13.93a4.25,4.25,0,0,0,3.89,2.58,4.71,4.71,0,0,0,.53,0,4.24,4.24,0,0,0,2.83-1.6c0-.07.08-.15.13-.22l23.58,11.53-4.37,14.34-9.24,7L164.24,764A4.15,4.15,0,0,0,164.19,762.77Zm78.92,14.74-2,6.68-5-1.32ZM221.57,792.3l-55.36-26.49,67,17.62Zm11.67,5.58-10.39-5,11.93-9.07,5.92,1.55L237.47,796A4.32,4.32,0,0,0,233.24,797.88Zm7.13-.07a4.3,4.3,0,0,0-1.69-1.42l3.25-10.67,14.72,3.86Zm18-9.08-16-4.22,2.54-8.32,10.33-7.86a4.22,4.22,0,0,0,2.94,1.22,3.23,3.23,0,0,0,.53,0h0a4.26,4.26,0,1,0-4-6.62l-5-2.45,6.52-21.4a4.89,4.89,0,0,0,.66.05,4.34,4.34,0,0,0,2-.51,4.49,4.49,0,0,0,.86-.62l35.08,28.95a5,5,0,0,0-.45,1,4.4,4.4,0,0,0,0,2.64Zm63.75,5.6-34.28,2.14-27.62-7.26L295,771.65a4.24,4.24,0,0,0,2.26,1.66,4.32,4.32,0,0,0,4.17-.93l23,19.12Zm2-.12,1.47-1.79,1.9,1.58Zm5.21-.33-2.93-2.44,14-17,3.46.38a4.34,4.34,0,0,0,3.06,4A4.51,4.51,0,0,0,348,779l1.59,13.63Zm21.56-1.35-1.59-13.71a3.68,3.68,0,0,0,.66-.23l8.62,13.46Zm11.39,3-1.47-2.3,1.88-.12Zm.63-3.7L360,792l-9-14.06a4.32,4.32,0,0,0,1-5.21l15.94-11.12Zm30.34-22.41,1.16,16.72a4.36,4.36,0,0,0-3.77,3.06,4.75,4.75,0,0,0-.17.9l-26.1,1.64,5.27-31.27,13.33-9.3Zm-.25-29.66a3.92,3.92,0,0,0-.89-.1l-.44-2.89,2.28.38Zm87.6,58.36-84.6-52.14a5,5,0,0,0,.29-.71,4.39,4.39,0,0,0-2.1-5.1l1-2.8,101.61,17.15Zm16.74-45L395.64,736,401.83,719l129.71-67.27.21.32a6.67,6.67,0,0,0,2.38,2Zm1.44.24,36.78-98.79a5.27,5.27,0,0,0,.69.14,6.42,6.42,0,0,0,1,.07l.27,0L553.52,762.6Zm120.86,16.76a6.66,6.66,0,0,0-2.11,3.29L555,762.85,538.82,654.52a6.23,6.23,0,0,0,1.47-.57ZM538.09,641.4a6.67,6.67,0,0,0-4.72,1.1l-32.17-38,23.66-33,36.3,7.27,8.22,58.43-26.1,8.14A6.7,6.7,0,0,0,538.09,641.4Zm32.69-3.1L581.34,635l-3.82,15.66-5-.42Zm.42,11.85-27.36-2.26a6.12,6.12,0,0,0-.13-1.14l25.87-8.07Zm-.62-13.28-8.13-57.8,31,6.21-11.73,48.11Zm.27,27.93-28.54-12.48a6.48,6.48,0,0,0,.56-.81L571,664.61C571,664.68,570.89,664.73,570.85,664.8Zm1.28-1.23-28.64-13.35a6.71,6.71,0,0,0,.22-.91l27.69,2.29L573,663.17A4.5,4.5,0,0,0,572.13,663.57Zm2.13-.58-1.59-11.28,4.5.37L574.51,663Zm3.83,3.35A4,4,0,0,0,577,664.1a4,4,0,0,0-1.23-.8l2.71-11.12,109,9,5,58.41Zm164.25,73.83a6.81,6.81,0,0,0-1.73,1.9L693.9,720.31l-5-59,47.32,3.91a6.72,6.72,0,0,0,5.76,6.49l.51,0,2.89,67.15A6.62,6.62,0,0,0,742.34,740.17Zm36.24-49.72-29.39,49a7,7,0,0,0-1.87-.55l-.52,0-2.89-67.15a6.71,6.71,0,0,0,5.65-5.66,6.64,6.64,0,0,0,0-2l21.93-6Zm-7.42-33.9-22,6.05a6.57,6.57,0,0,0-.76-1.4l19.94-17.58Zm-11-64.08,26.24,33.28-17.21,15.17-10.46-47.77A6.06,6.06,0,0,0,760.18,592.47Zm-70.38,11a6.68,6.68,0,0,0,0-1.73L750,588.13a6.84,6.84,0,0,0,1.21,2.7,6.69,6.69,0,0,0,4.42,2.62,7.73,7.73,0,0,0,1,.06,5.83,5.83,0,0,0,.72-.06L768,642l-20.54,18.11a6.69,6.69,0,0,0-8.55-.43l-.07.06-50.54-52.92A6.79,6.79,0,0,0,689.8,603.46Zm-2.63,4.42.07-.06,50.54,52.92a6.64,6.64,0,0,0-1.46,3.07l-47.57-3.94-4.32-50.78A6.62,6.62,0,0,0,687.17,607.88ZM677,605.18a6.76,6.76,0,0,0,.78,1.35,6.66,6.66,0,0,0,4.42,2.62,7.36,7.36,0,0,0,.81.06l4.31,50.54-108.53-9,4-16.2Zm-.53-3.29a6.85,6.85,0,0,0,.1,1.92L583.12,633l11.58-47.43Zm-82.65-18-31.57-6.32-6.33-45a3.74,3.74,0,0,0,1-.47l36.76,39.73a3.94,3.94,0,0,0,.35,5.3,4.09,4.09,0,0,0,1.22.8Zm.8-12.93-36.76-39.74a3.94,3.94,0,0,0-.15-5.05l23-27.93a4,4,0,0,0,2,.55h.06l12.71,71.73A3.82,3.82,0,0,0,594.61,571Zm78.72,18.8a3.93,3.93,0,0,0-1.38.92,4.09,4.09,0,0,0-.8,1.22l-70.41-17.32a2.56,2.56,0,0,0,0-.39,3.92,3.92,0,0,0-1.2-2.79,4,4,0,0,0-2.83-1.12L584,498.55a4,4,0,0,0,1.48-.91l77.29,56.86a4,4,0,0,0,3.51,5.78h.06l.21,0Zm-3.27-34.7a4,4,0,0,0-1-1.59,4,4,0,0,0-3.86-.94L647.7,515.66l69.37,21.56,2.48,9.43Zm48.36-17.41,17.92,5.57a4,4,0,0,0-.05.6l-15.55,2.64Zm61.8,4.48c0,.17,0,.33.06.5l-52.83,18.23a3.41,3.41,0,0,0-3.4-1.81l-3-11.38L736.51,545a4,4,0,0,0,1,1.58,3.89,3.89,0,0,0,2.75,1.12h.07a3.93,3.93,0,0,0,2.78-1.21,4,4,0,0,0-.1-5.61,3.9,3.9,0,0,0-2.75-1.11h-.07a3.91,3.91,0,0,0-2.42.9L713.5,518.94,696.84,455.6a2.5,2.5,0,0,0,.55-.31L780.9,540A3.57,3.57,0,0,0,780.22,542.12Zm2.54-3.45a3.21,3.21,0,0,0-1,.47l-83.5-84.7a3.66,3.66,0,0,0,.52-1.07l72,8.14a3.54,3.54,0,0,0,1.06,2.35h0a3.58,3.58,0,0,0,2.27,1Zm-7.49-80.78a3,3,0,0,0-1-.13,3.42,3.42,0,0,0-1.38.3L753.46,429l42.3-17.53a3.62,3.62,0,0,0,.52.65h0a3.55,3.55,0,0,0,.44.35Zm6.78-90.06a3.6,3.6,0,0,0,2.06.66,4.93,4.93,0,0,0,.54-.05l12.82,37.79a3.52,3.52,0,0,0-1.27.84,2.69,2.69,0,0,0-.26.33l-35.45-18.33Zm-69.95-4.2,68.51,1.83a3.68,3.68,0,0,0,.58,1.51l-21.83,21.51L712,364C712,363.87,712.07,363.75,712.1,363.63Zm46.35,25.75-19,18.68-28.43-42.57a1.09,1.09,0,0,0,.11-.1,3,3,0,0,0,.27-.33Zm22.71-67.65-69.79,39,0,0,45.72-53.4Zm-24.35-16-21-12.64a3.51,3.51,0,0,0,.22-1.16l35.14-4.84a3.57,3.57,0,0,0,.64,1.18Zm18.33-23.2a2.47,2.47,0,0,0-.39,0l-1.2-12.35,5.34,2.32Zm9.71-22.57a3.7,3.7,0,0,0,.66.07h.06a3.86,3.86,0,0,0,.76-.1l7.61,17.76-13.51-5.87Zm-5.53,11.38-5.9-2.57-.75-7.73,8.69-3.78.68,0a3.51,3.51,0,0,0,1.68,2.3Zm-6.78-11.58-.2-2.12,5.62-.24Zm-3.75-38.59a4.31,4.31,0,0,0,.71-.09l14.06,32.44a3.48,3.48,0,0,0-.6.49,3.52,3.52,0,0,0-.88,1.6l-1,.45-8.82.37Zm3.36,47-8-3.48,7.35-3.19Zm-21.34-9.68,20.31-.85.25,2.58-8.76,3.81-11.87-5.16A2.53,2.53,0,0,0,750.81,258.52Zm-4.73,2.87a3.71,3.71,0,0,0,1.23.22,3.5,3.5,0,0,0,2.54-1.08,3,3,0,0,0,.42-.52l10.82,4.71-20.17,8.77Zm-5.86,13.74,22.41-9.74,9.65,4.19,1.27,13a3.56,3.56,0,0,0-1.61.94,3.51,3.51,0,0,0-1,2.34l-35.15,4.84a3.51,3.51,0,0,0-.89-1.47,3.57,3.57,0,0,0-.54-.42ZM655.36,44.92l33-22.42a4,4,0,0,0,.49.42l-42.3,81h0Zm23.39,86.68-23.06,32.62-33-29.59a3.78,3.78,0,0,0-.08-4.2l20.47-19.9s0,0,.07,0a3.73,3.73,0,0,0,2.18.69,3.81,3.81,0,0,0,2.9-1.36l29.61,17.61A3.79,3.79,0,0,0,678.75,131.6Zm-164.4,98.64-.08-.05L529,198.12a3.77,3.77,0,0,0,1,.14,3.91,3.91,0,0,0,1.82-.47l16.62,21.32-11.73,28.72-21-13A3.78,3.78,0,0,0,514.35,230.24ZM567.14,173l.09.05L549,217.8,532.75,197a3.81,3.81,0,0,0,.33-.36h0a3.81,3.81,0,0,0,.39-3.67l32.9-20.69a2.2,2.2,0,0,0,.31.3l0,.3Zm-1.68-2.53a4,4,0,0,0,.25.83L532.82,192a3.65,3.65,0,0,0-.65-.59,3.75,3.75,0,0,0-2.13-.69l-5.1-34.14,7.7-11.84,33.16,23.45A3.78,3.78,0,0,0,565.46,170.44Zm-36.64,20.42a3.76,3.76,0,0,0-2.35,5.06l-24.38,15.21,8.59-32.68,13.25-20.37Zm-28.25,21.22-19,11.85c-.09-.11-.2-.2-.3-.3l27.26-41.91Zm-.46,1.74L496,229.37l-13.49-2.79a3.72,3.72,0,0,0-.3-1.61Zm-3.19,17,11.45,2.37a3.85,3.85,0,0,0,0,.48L495.29,237Zm.31-1.2,4.4-16.75,25.5-15.9a3.73,3.73,0,0,0,.65.6l.08.05-14.7,32.07a3.79,3.79,0,0,0-4.11,1.46,3.85,3.85,0,0,0-.43.83Zm52-9.39,53.27,68.33-.07.08-64.74-40.15Zm.54-1.32,18.54-45.42a4,4,0,0,0,.84.11,3.47,3.47,0,0,0,.64-.06,3.53,3.53,0,0,0,.87-.27l21.79,33.94a3.76,3.76,0,0,0-.56.63,3.77,3.77,0,0,0,3,6l9.35,73.68a4.78,4.78,0,0,0-.74.3Zm67.54-83.21a3.83,3.83,0,0,0,2.18.69,4,4,0,0,0,.77-.09l18.11,47.43a3.88,3.88,0,0,0-1.2,1.09,3.79,3.79,0,0,0-.62,2.88l-38.52,20.06a3.89,3.89,0,0,0-.84-.83,3.79,3.79,0,0,0-3.7-.37l-21.79-33.95a4.13,4.13,0,0,0,.56-.62,3.78,3.78,0,0,0-3.54-6l6-46.1a3.78,3.78,0,0,0,3-1.59,3.47,3.47,0,0,0,.18-.33l37.91,13.88A3.8,3.8,0,0,0,617.36,135.7Zm24.28-27.58a3.88,3.88,0,0,0,.64,1.52l-20.47,19.9-.06,0a3.84,3.84,0,0,0-.39-.22l20.87-59.94a2.06,2.06,0,0,0,.26,0l2.06,34.43a3.77,3.77,0,0,0-2.91,4.33Zm1.35,76.2,12.91-18.26,40.65,36.5c-.08.13-.15.25-.22.39l-52.25-15.47A3.79,3.79,0,0,0,643,184.32Zm-1-.71a3.78,3.78,0,0,0-2.42-.31l-18.11-47.44.46-.31L655,165.23Zm-43.2,25.79a3.44,3.44,0,0,0-.15-.55l38.39-20a3.72,3.72,0,0,0,1.1,1.24,3.09,3.09,0,0,0,.42.25l-13.78,41-26.36-19.63A3.7,3.7,0,0,0,598.79,209.4Zm-2.67,4.25a3.71,3.71,0,0,0,1.54-.9l26.69,19.87-18.41,54.77a3.75,3.75,0,0,0-.47-.05Zm29.27,19.74,23.2,17.27-40.92,37.49s-.09-.09-.15-.13a3.3,3.3,0,0,0-.41-.23Zm.41-1.23,13.92-41.4a4.07,4.07,0,0,0,.61.05,3.83,3.83,0,0,0,1.41-.3l25.92,42.67-18.15,16.63Zm17-42.26a3.83,3.83,0,0,0,.64-.69h0a4.21,4.21,0,0,0,.3-.55L696,204.13a3.39,3.39,0,0,0,0,1.1,3.83,3.83,0,0,0,.57,1.45l-28,25.66ZM656.61,165l23.14-32.72a3.87,3.87,0,0,0,1.66.38l.28,0,16.58,68.44a4.07,4.07,0,0,0-.89.54ZM645,55.05a3.8,3.8,0,0,0,3-1.6,3.75,3.75,0,0,0,.65-2.83,3.8,3.8,0,0,0-.32-.95L654,45.85l-8.33,55.73-1.94-32.3a3.69,3.69,0,0,0,2.27-1.5,3.8,3.8,0,0,0-.91-5.29A3.7,3.7,0,0,0,644,62ZM618.64,30.54a4,4,0,0,0,1.13.17,3.81,3.81,0,0,0,2.26-.77L641.8,49.1a3.81,3.81,0,0,0,.92,5.27,4.17,4.17,0,0,0,1.06.52l-1,6.92a3.77,3.77,0,0,0-3,1.59,3.71,3.71,0,0,0-.64,2.83,3.77,3.77,0,0,0,1.55,2.47,4,4,0,0,0,.39.23l-20.86,59.93a3.79,3.79,0,0,0-3.76,1.54,2.17,2.17,0,0,0-.19.33l-37.9-13.87a3.81,3.81,0,0,0-1.49-3.78ZM575,85.42a3.75,3.75,0,0,0-.21-4.65l42.11-49.51-41.12,81.28a3.39,3.39,0,0,0-.84-.17L572.81,86.9A3.75,3.75,0,0,0,575,85.42Zm-4.62,1.27a3.7,3.7,0,0,0,1.22.3l2.12,25.49a3.69,3.69,0,0,0-2.18,1.47,3.81,3.81,0,0,0,.91,5.3,3.63,3.63,0,0,0,1.1.54l-6.06,46.64a3.86,3.86,0,0,0-1,.7l-33.2-23.47Zm-2.51,1.6L532.31,143l-7.66-5.42a3.82,3.82,0,0,0-.38-3.92Zm-43.93,50.24,7.71,5.45-7,10.72-2.27-15.23A3.8,3.8,0,0,0,523.93,138.53Zm-2.75,1.15,2.48,16.57-12,18.42,9.21-35ZM442.8,248.34l-.18-.19,77-108.85.12,0-10.15,38.6-29.27,45a3.78,3.78,0,0,0-5,5Zm.9,1.85a3.8,3.8,0,0,0-.25-.81l32.45-20.44a4,4,0,0,0,.64.58,3.8,3.8,0,0,0,2.19.7h.12l2.07,10.47ZM480.06,230a3.83,3.83,0,0,0,1.78-1.34h0a4.12,4.12,0,0,0,.42-.84l13.44,2.79-1.79,6.79-11.8,3Zm7.05,33.3a3.69,3.69,0,0,0-.47,0l-4.28-21.66,11.2-2.86Zm35.07,11.91a4.09,4.09,0,0,0-.38.67l-31.33-8a3.82,3.82,0,0,0-1.52-3.9,4,4,0,0,0-.64-.36l6.62-25.18,13.76-3.52a3.83,3.83,0,0,0,1.27,1.59,3.79,3.79,0,0,0,2.19.69,3.91,3.91,0,0,0,.48,0l11,36.87A3.85,3.85,0,0,0,522.18,275.17Zm2.63-1.56-11-36.86a3.71,3.71,0,0,0,1.18-.92L536.21,249l-10.07,24.67A3.72,3.72,0,0,0,524.81,273.61Zm2.67.65-.21-.12,10-24.5,64.55,40c0,.06,0,.14-.07.21L529.08,277.4A3.81,3.81,0,0,0,527.48,274.26Zm89.62,75.09L528.59,279.2a3.56,3.56,0,0,0,.27-.6l72.67,12.5a3.85,3.85,0,0,0,.05.67,3.81,3.81,0,0,0,1.55,2.46,3.77,3.77,0,0,0,2.18.7l.28,0,12.61,53.76A4.07,4.07,0,0,0,617.1,349.35Zm5.2.1a2.74,2.74,0,0,0-.45-.38,3.71,3.71,0,0,0-2.45-.68l-12.62-53.76a3.85,3.85,0,0,0,1.65-1.31h0a3.8,3.8,0,0,0,.64-1.6l90.41-.53a3.73,3.73,0,0,0,.37,1.08ZM699.48,290l-90.41.53a3.66,3.66,0,0,0-.57-1.44l41.09-37.65,50.27,37.42A3.74,3.74,0,0,0,699.48,290Zm1.1-2.13-50.07-37.28,17.79-16.3,32.46,53.43C700.7,287.73,700.64,287.77,700.58,287.83Zm1.23-.79L669.23,233.4l28.17-25.82c.06,0,.1.09.15.13a4,4,0,0,0,1.74.66l3.17,78.48A3,3,0,0,0,701.81,287Zm80-103.23L705,287.19a3.73,3.73,0,0,0-1.27-.39l-3.18-78.49a3.8,3.8,0,0,0,2.34-1.52h0a3.8,3.8,0,0,0,.66-2.59l77.64-21.44A3.85,3.85,0,0,0,781.85,183.81Zm-97.37-52.67L781,180a3.83,3.83,0,0,0-.16,1.54L703.18,203a3.69,3.69,0,0,0-3.71-2.18l-16.58-68.45A3.82,3.82,0,0,0,684.48,131.14Zm-1.22-5.54a3.73,3.73,0,0,0-4.74.87l-29.6-17.61a3.85,3.85,0,0,0,.21-2L714.77,84.5a3.53,3.53,0,0,0,.53.77ZM715,80.52a3.77,3.77,0,0,0-.64,2.81l-65.64,22.36a3.76,3.76,0,0,0-1.05-1.24l42.29-81a3.64,3.64,0,0,0,1.18.19,3.79,3.79,0,0,0,3.75-4.43c0-.06,0-.11,0-.17l26.74-10.6a4,4,0,0,0,1.06,1.15,4,4,0,0,0,1.25.57L717.83,79A3.79,3.79,0,0,0,715,80.52Z" transform="translate(-1.11 -1.11)"/></svg>