<svg xmlns="http://www.w3.org/2000/svg" viewBox="0 0 798.04 798.08"><defs><style>.a{fill:#f7f7f7;}</style></defs><title>expert-texture</title><polygon class="a" points="5.13 0.06 0.04 8.5 0.04 10.95 6.6 0.06 5.13 0.06"/><path class="a" d="M717,85.4a3.67,3.67,0,0,0,.66-.05,3.8,3.8,0,0,0,3-2.81L798,89.23V88l-77.19-6.69V81a3.73,3.73,0,0,0-1.55-2.45,3.64,3.64,0,0,0-1.25-.57l6.09-68.74h.36a3.81,3.81,0,0,0,1.47-6.88,3.73,3.73,0,0,0-2.84-.64A3.77,3.77,0,0,0,720,6a1.55,1.55,0,0,0,0,.21l-26.71,10.6a3.88,3.88,0,0,0-1.06-1.15,3.78,3.78,0,0,0-2.79-.64l-5-15h-1.3l5.13,15.43a3.84,3.84,0,0,0-1.38,1.12,3.74,3.74,0,0,0-.64,2.85,3.46,3.46,0,0,0,.31.94l-32.1,21.78L660.76,0h-1.24l-6.4,43.09-6.56,4.45a2.9,2.9,0,0,0-.56-.49,4.24,4.24,0,0,0-.72-.4L656.43,0h-1.26L644.08,46.38a3.47,3.47,0,0,0-.91,0,3.69,3.69,0,0,0-1.61.7L621.79,28a3.77,3.77,0,0,0-.57-5l15-23h-1.43L620.21,22.33a3.79,3.79,0,0,0-4.43,5.92l-43,50.64a3.8,3.8,0,0,0-5.05,1,3.71,3.71,0,0,0,.07,4.45l-45.47,47.27a3.8,3.8,0,0,0-5.9,3.78,3.71,3.71,0,0,0,1.09,2.05l-77,108.86a3.8,3.8,0,1,0-1.66,7.21,3.85,3.85,0,0,0,3.12-1.6h0a3.85,3.85,0,0,0,.63-1.59L480,240.75l4.26,21.59a3.76,3.76,0,0,0-1.77,1.35,3.87,3.87,0,0,0-.64,2.86,3.81,3.81,0,0,0,3.73,3.14,4.89,4.89,0,0,0,.66-.05,3.82,3.82,0,0,0,2.46-1.56l.17-.19,31.52,8a3.8,3.8,0,0,0,1.58,3.44,3.72,3.72,0,0,0,2.18.7,3.49,3.49,0,0,0,.65-.06,3.75,3.75,0,0,0,1.91-.94l88.51,70.15a3.79,3.79,0,0,0,3.3,5.64,3.53,3.53,0,0,0,.65,0,3.75,3.75,0,0,0,2.73-5.47l77.55-57.18a2.74,2.74,0,0,0,.45.39,3.72,3.72,0,0,0,2.18.7,3.79,3.79,0,0,0,3.81-3.79,2.89,2.89,0,0,0,0-.65,1.29,1.29,0,0,0-.08-.28l31.72-13.8-5.35,12.52a3.72,3.72,0,0,0-.88-.11,3.52,3.52,0,0,0-2.48,1.08,3.61,3.61,0,0,0-1,2.53,3.47,3.47,0,0,0,.58,1.87L651.89,363.5a3.54,3.54,0,1,0-2.14,6.35,3.93,3.93,0,0,0,1.07-.18l41.26,78.79c-.13.11-.27.21-.4.34a3.56,3.56,0,0,0-1,2.55,3.51,3.51,0,0,0,1.08,2.47,3.6,3.6,0,0,0,2.48,1h.29l16.2,61.57-38.1-34.19a4,4,0,0,0-3.39-6.12,3.94,3.94,0,0,0-2,.61l-45.65-52.8a4,4,0,0,0-4.9-6l-41.8-54.83a4,4,0,0,0-.11-5.59,4.15,4.15,0,0,0-2.82-1.11,3.91,3.91,0,0,0-2.32.81L469,259.89a4,4,0,0,0-6.09-5,3.94,3.94,0,0,0,.06,5.57,3.9,3.9,0,0,0,1.6,1l3.93,40.46-23.13,1a4,4,0,0,0-4-3.18,3.91,3.91,0,0,0-2.77,1.21,4,4,0,0,0,.09,5.61c.08.08.17.13.25.2l-13.41,31.45a3.77,3.77,0,0,0-1-.14h-.06a4,4,0,0,0-3.86,4.14,4.08,4.08,0,0,0,.64,2l-64.67,60-.46-47.38a6.33,6.33,0,0,0,1.22-.27,6.13,6.13,0,0,0,3.81-7.76h0a6.14,6.14,0,0,0-3.82-3.8l42.22-193h.62a6.12,6.12,0,0,0,6.1-6.12,6,6,0,0,0-.33-2h0a6.1,6.1,0,0,0-11.68.44l-65.58-9.27L366,115.65a4.29,4.29,0,0,0,3.44,1.76,4.34,4.34,0,0,0,.51,0h0a4.26,4.26,0,0,0,2.1-7.59,4.3,4.3,0,0,0-3.15-.86,4.08,4.08,0,0,0-1.52.51L309.76,33.89c.11-.11.22-.22.32-.34a4.22,4.22,0,0,0,.86-3.12,4.36,4.36,0,0,0-.49-1.53L347,1l19.07,18.85a2.31,2.31,0,0,0-.3.61h0a2.7,2.7,0,0,0,1.76,3.39h0a2.37,2.37,0,0,0,.36.09l2.74,57.17a2.52,2.52,0,0,0-.54.21,2.7,2.7,0,0,0,.42,5,2.51,2.51,0,0,0,.82.13,2.72,2.72,0,0,0,2.55-1.95,2.91,2.91,0,0,0,.11-.83l54-12.12a.13.13,0,0,0,.05.1A2.61,2.61,0,0,0,429.63,73a2.51,2.51,0,0,0,.82.13l9.94,44.64A2.73,2.73,0,0,0,439,119.4h0a2.7,2.7,0,0,0,1.74,3.4h0a2.8,2.8,0,0,0,.81.13,2.71,2.71,0,0,0,2.71-2.69,2.67,2.67,0,0,0-.3-1.24l14.65-12a2.53,2.53,0,0,0,.85.47,2.45,2.45,0,0,0,.81.13,2.71,2.71,0,0,0,1.09-.24l24.89,34.27a2.61,2.61,0,0,0-.56,1,2.69,2.69,0,0,0,1.74,3.39h0a2.51,2.51,0,0,0,.82.13,2.7,2.7,0,0,0,2.4-3.94,2.62,2.62,0,0,0-1.14-1.14L504,88.76h.16a2.68,2.68,0,0,0,1.24-.31,2.6,2.6,0,0,0,1.33-1.56,2.69,2.69,0,0,0-.17-2.06,2.74,2.74,0,0,0-.85-1l17-40.59a2.72,2.72,0,0,0,.49,0,2.57,2.57,0,0,0,1.25-.31,2.68,2.68,0,0,0,1.16-3.61,2.82,2.82,0,0,0-.73-.88l19-38.55h-1.28l-17.17,35L535.09,0h-1.2L523.41,38a2.08,2.08,0,0,0-.61,0l-6.39-15.51a2.68,2.68,0,0,0,.87-3.45,2.61,2.61,0,0,0-1.58-1.33,2.53,2.53,0,0,0-.72-.12L511.82,0h-1.17l3.24,17.79-.21.09a2.67,2.67,0,0,0-1.33,1.58v.13l-26.61-1.17a2.72,2.72,0,0,0-1.85-2.11,2.67,2.67,0,0,0-2,.16L468.74,0h-1.48l13.63,17.19-.07.09L454.14,5.2,455.79,0h-1.21l-1.5,4.72L442.63,0h-2.8l12.89,5.83-8,25.19a2.51,2.51,0,0,0-1.12.14L424.71,0h-1.35l19.25,31.75a2.66,2.66,0,0,0-.65,1L371.05,21.14a2.8,2.8,0,0,0-.18-.81L402.14,0H400L370.25,19.37a2.63,2.63,0,0,0-.49-.39l6.55-19h-1.22l-6.42,18.6a2.67,2.67,0,0,0-1.78.43L347.89.34l.44-.34h-2.42l.15.14L309.67,27.89c-.11-.1-.21-.22-.34-.32a4.14,4.14,0,0,0-3.13-.86,4.28,4.28,0,0,0-2.84,1.6h0L252,0h-2.6l53.34,29.42a4,4,0,0,0-.27,1.13l-58.58,3.94a4.22,4.22,0,0,0-4.35-3.32L233.11,0h-1.29l6.43,31.41a4.19,4.19,0,0,0-2.77,3.88l-23.73,2.94L190,11.67V9.27a3.21,3.21,0,0,0,.19-.31,6.06,6.06,0,0,0,.29-4.67A6.79,6.79,0,0,0,190,3.16V0h-1.27V1.65a6.13,6.13,0,0,0-6-1.16h0L183,0h-1.41l-.85,1.69a6.13,6.13,0,0,0-2,4.06l-7.92,15.69L153.12,41.81,109.4,25.73A4.18,4.18,0,0,0,106.94,21l5.62-21h-1.31l-5.53,20.65a4.18,4.18,0,0,0-1,0,4.25,4.25,0,0,0-3.7,4.74h0a4.26,4.26,0,0,0,1,2.27L47.89,91.21,46.51,90,62,0H60.66l-15.29,89-1.29-1.16L28.89,6.07,45.49,0h-3.7L28.66,4.81,27.77,0H26.49l1,5.25L0,15.3v1.35L27.7,6.51l14.85,80.1-6.06-5.25L0,24.22v2.36L33.12,78.44,0,49.76V51.6l35.75,31,6.33,9.91a4.23,4.23,0,0,0-.43,6,3.51,3.51,0,0,0,.33.34L6.34,150.69a4,4,0,0,0-1.52-.42L0,79.82V98.38l3.56,52a4.22,4.22,0,0,0-1.72,7.48l0,0a4.18,4.18,0,0,0,2.61.91H5A4.14,4.14,0,0,0,8.49,156l60.84,12.13-22.68,74a6,6,0,0,0-3.09.22l-.11,0L0,155.56v3.11L42.19,243c-.18.12-.36.24-.52.37L0,202.64v1.94L40.28,244,0,218.38V220l40,25.4a6.11,6.11,0,0,0,2.84,8.16,6.18,6.18,0,0,0,2.67.61h.19l7.19,48.6-.42.12a7.64,7.64,0,0,0-.92.42L0,229.7v2.42l50.36,72a6.1,6.1,0,0,0-1.75,6.55,9.1,9.1,0,0,0,.37.85L0,344.62v1.68l49.77-33.64a6.1,6.1,0,0,0,10.31-1.73l84,22.41a6,6,0,0,0,3.67,6.5l-10.84,73.62a6.38,6.38,0,0,0-2.17.32,6.12,6.12,0,0,0-4.05,4.76l-69-3.79a6.1,6.1,0,0,0-11.58-2.33v.12l-50-47v1.91l49.55,46.61a6.06,6.06,0,0,0,0,2.4l-49.59,17v1.43l50.06-17.14a6,6,0,0,0,2.78,2.84,5.66,5.66,0,0,0,1.6.52l-4.3,66.52a6.11,6.11,0,0,0-4.75,2.7L0,466.82v1.56l44.78,23.18a6.11,6.11,0,0,0,3,7.67,6.2,6.2,0,0,0,1.56.51L46,549.66,8.89,504.58,0,481.48v3.87l6.1,15.8L0,493.73v2.16l7.7,9.36,33,85.49a6.09,6.09,0,0,0,1.74,11.4l-.76,12.75-19.83,4.67a3.38,3.38,0,0,0-.18-.44A4.25,4.25,0,0,0,20,617.4L0,559.07v4.29l18.31,53.49a4.34,4.34,0,0,0-1.78,8.47,4.29,4.29,0,0,0,3.31-.33c.08,0,.15-.1.22-.14l1.68,2L33.5,661.3,0,686.3v1.59l34-25.31,2,5.87a6.1,6.1,0,0,0,2.63,11.62,5.91,5.91,0,0,0,2-.33A6.12,6.12,0,0,0,44.4,672h0a6.17,6.17,0,0,0-1.63-2.51l4.91-12.59c.1-.08.19-.18.29-.27l36.1,27.71-47.18,8.2L0,691.53v1.27l30.6.84L0,698.89v1.29l37-6.4,31.53.87-4.13.67L0,700.89v1.27l48-4.09L0,705.89v1.27l64.38-10.51,7-.6a4.48,4.48,0,0,0,.51.84L52,718.28a4.24,4.24,0,0,0-6.46,2.28L0,708.46v1.32l45.39,12a4,4,0,0,0,0,.49,4.67,4.67,0,0,0,.42,1.36l-44,30.7A4.48,4.48,0,0,0,.41,754L0,750.58v11.93H.83a4.25,4.25,0,0,0,3.69-4.75A4.29,4.29,0,0,0,3,755l43.52-30.37A4.3,4.3,0,0,0,49.62,726h.5a4.15,4.15,0,0,0,.48-.11L68,768.53a4.24,4.24,0,0,0-1.47,5.81,4.14,4.14,0,0,0,1.2,1.3L56.48,798h1.41l11-21.77a4.46,4.46,0,0,0,.72.18L69.76,798H71l-.14-21.6a4.23,4.23,0,0,0,3.49-3.31l32.56,2a.38.38,0,0,0,0,.15,4.27,4.27,0,0,0,4.22,3.74h.23l3.9,19h1.29l-4-19.31a4.17,4.17,0,0,0,1.89-1.37h0L152,798h2.6L115.06,776.2a4.1,4.1,0,0,0,.25-1.93l39.42-10.38a4.87,4.87,0,0,0,.24.57,4.32,4.32,0,0,0,5.87,1.81,4.28,4.28,0,0,0,1.54-1.42l56.91,27.23L211.53,798h2.09l7-5.29,10.94,5.19h8.33v-.14l17.56-8.86,25.31,6.65-37.48,2.35h20.36l21-1.32,5,1.32h4.94l-6-1.57,29.31-1.76-2.8,3.4h1.8l2.9-3.52,5.89-.37,4.69,3.89h2l-4.82-4,19-1.19.61,5.2h1.27l-.61-5.28,8.32-.52,2.61,4.07-.29,1.73h2.9l-1.15-1.8.72-4.3,26.42-1.66a3.22,3.22,0,0,0,.2.67L377,798h2.57l10.6-6a4.35,4.35,0,1,0,6.88-5.33,4.4,4.4,0,0,0-2.19-1.5.69.69,0,0,1-.39-.08l-1-14.24L408.74,798h1.65L393.23,767.5l-1.34-20.42A4.4,4.4,0,0,0,394,746l84.36,52h2.73l-.37-.23,16.42-44.12L552.67,763l5.22,35h1.45l-5.19-34.72,62,10.46a6.76,6.76,0,0,0,1.33,4.43,6.24,6.24,0,0,0,.92,1L605,798h1.76l12.81-18a6.71,6.71,0,0,0,3.32.86,6.72,6.72,0,0,0,5.39-2.75L662.43,798h2.83l-36.37-21.11a6.44,6.44,0,0,0,.54-1.78,6.74,6.74,0,0,0-5.69-7.6,6.65,6.65,0,0,0-4.13.73l-79.1-115.92,28.74,12.57a4.23,4.23,0,0,0-.14,1.06,4,4,0,0,0,1.21,2.78h0a4,4,0,0,0,5.61-.1,3.86,3.86,0,0,0,1-1.81l114.53,53.36L698.08,798h1.45l-6.64-77.11,46,21.42a6.3,6.3,0,0,0-.3,1.21,6.7,6.7,0,0,0,2.62,6.33L712.54,798h1.67l28.23-47.42a6.5,6.5,0,0,0,1.84.54,6.71,6.71,0,0,0,4.29-.81L782.66,798h1.77l-34.69-48.53a6.68,6.68,0,0,0,.92-9,6.76,6.76,0,0,0-1.33-1.34l28.56-47.75,13.86,63.32L787.24,798h1.44l4-38.78,5.2,23.75v-6.72l-4.72-21.58,4.72-45.2V695.6l-5.7,54.57L779,689.59,798,658v-2.8l-19.41,32.35-6.8-31.08,25.78-7.1a7.29,7.29,0,0,0,.43.89v-6.66a6.73,6.73,0,0,0-.81,4.39l-25.71,7.08-3-13.64,17.75-15.65L798,640.69v-2.32l-10.68-13.55L798,615.4v-1.91l-11.6,10.2L760.2,590.46a6.7,6.7,0,1,0-11.31-5.72h0a6,6,0,0,0-.07.84l-60.43,13.65a6.7,6.7,0,0,0-12.75.15L593.89,583l1.45-6h.4a3.9,3.9,0,0,0,2.76-1.22,3.75,3.75,0,0,0,.8-1.21l70.42,17.32v.4a4,4,0,1,0,4-4h-.28l-6.74-29.42a4,4,0,0,0,2.49-3.73l49.57-8.4,3,11.48a3.67,3.67,0,0,0-1.08.75,3.51,3.51,0,0,0-1,2.53,3.56,3.56,0,0,0,3.54,3.49h.07a3.57,3.57,0,0,0,3.43-4.11l52.83-18.24a3.71,3.71,0,0,0,.62.85h0a3.58,3.58,0,0,0,5-.09,3.9,3.9,0,0,0,.4-.51l12.34,5.4V547L786,541.8a3.41,3.41,0,0,0,.11-.9,3.5,3.5,0,0,0-1-2.43l12.77-17.82v-2.08l-13.76,19.19a3.17,3.17,0,0,0-1.35-.34l-8.62-73.83a3.43,3.43,0,0,0,2.51-3.08l21.22-1.8v-1.22l-21.32,1.8a3.54,3.54,0,0,0-.34-.83l21.66-17.74v-1.57l-22.43,18.37-.28-.22,21.45-45.47a3.75,3.75,0,0,0,.94.14h.32v-7h-.41L784.64,367a3.42,3.42,0,0,0,1.75-4L798,357.89v-1.33l-12,5.33a2.85,2.85,0,0,0-.47-.57,3.41,3.41,0,0,0-2.53-1,3.52,3.52,0,0,0-3.42,2.85L711,361.33a2.94,2.94,0,0,0-.16-.65l70.4-39.31,16.71,10V330l-15.49-9.3L798,312v-1.39l-16.69,9.32-24.51-14.71,14.79-17.33a3.55,3.55,0,0,0,4.36-.58h0l22,14.49v-1.45l-21.34-14.06a3.55,3.55,0,0,0-.77-4,3.42,3.42,0,0,0-.69-.51l3.73-10,14.63,6.36,4.44,10.36v-3.09l-2.79-6.52,2.82,1.22v-1.32l-3.51-1.52-8.12-18.95.26-.2L798,268.29v-1.62l-10.55-9.44a3.55,3.55,0,0,0-.26-4.1l10.81-4.7v-1.34l-11.86,5.16a3.53,3.53,0,0,0-1.77-.45,4,4,0,0,0-.77.11L769.5,219.48l.14-.11L798,246.74v-1.69L770.49,218.5a3.55,3.55,0,0,0-2.93-5.54h-.07a3.53,3.53,0,0,0-3.48,3.58v0a3.52,3.52,0,0,0,1.08,2.5h0a3.56,3.56,0,0,0,1.35.8l3.45,35.49-20.23.85a3.41,3.41,0,0,0-1-1.79,3.55,3.55,0,1,0-5.15,4.89l.22.21h0c.06.06.13.1.19.15l-5.72,13.42-32.89,14.3a4.41,4.41,0,0,0-.47-.58l76.89-103.36a3.72,3.72,0,0,0,1.73.43,3.68,3.68,0,0,0,.66-.06,2.73,2.73,0,0,0,.56-.15L798,208.89v-2.63l-12.2-23.14a3.94,3.94,0,0,0,.81-.82,3.8,3.8,0,0,0-.9-5.3h0a4,4,0,0,0-.64-.36L798,127.89v-4.82L783.89,176.3a3.81,3.81,0,0,0-3.44,1.53l-96.56-48.94a3.7,3.7,0,0,0,.14-1.62L798,93V91.69L683.69,126.12a3.67,3.67,0,0,0-.58-.87l32-40.33A3.83,3.83,0,0,0,717,85.4ZM460.13,102.25a2.71,2.71,0,0,0-2.45,1.86h0a2.72,2.72,0,0,0,.17,2l-14.64,12a2.62,2.62,0,0,0-.87-.47,2.54,2.54,0,0,0-.82-.11l-9.93-44.64h.1a2.67,2.67,0,0,0,1.2-3.53l37-27.28a3.22,3.22,0,0,0,.75.46Zm1.14.2,10.37-58.91,6.13,38.23-16.34,20.75Zm19.62-33.71a2.54,2.54,0,0,0,.67.11l.73,4.34a2.66,2.66,0,0,0-1.56,1.7h0a2.73,2.73,0,0,0,.5,2.53l-2.48,3.15-5.63-35.11,7.11,18.43a2.58,2.58,0,0,0-1.09,1.42h0a2.7,2.7,0,0,0,1.73,3.42Zm1.58,9.51a2.07,2.07,0,0,0,.43.1l3.77,51.78-7.7-48,3.15-4a2.53,2.53,0,0,0,.36.12ZM487.15,141l-24.9-34.26a2.65,2.65,0,0,0,.07-3.5L478,83.32,487.24,141Zm1.4-.87-4.49-61.86a2.63,2.63,0,0,0,1.33-.89l16.18,8.06a2.68,2.68,0,0,0,1.34,3ZM515,23h.32l6.38,15.52a2.7,2.7,0,0,0-1,1.39h0a2.71,2.71,0,0,0,1,3l-16.19,38.5Zm-31.51-1.44a2.53,2.53,0,0,0,.75-.24,2.67,2.67,0,0,0,1.33-1.58v-.13l26.61,1.17a2.89,2.89,0,0,0,.25.77,2.7,2.7,0,0,0,1.43,1.27L504,83.39a2.75,2.75,0,0,0-1.95,1l-16.17-8a2.7,2.7,0,0,0-1.79-3.23,3.87,3.87,0,0,0-.68-.12l-.72-4.33A2.73,2.73,0,0,0,484.28,67a2.69,2.69,0,0,0-1.74-3.39h-.18Zm-1.23,0h.08l-1.15,41.76-8.08-21a2.68,2.68,0,0,0,.8-3.7,2.5,2.5,0,0,0-.52-.6ZM453.79,6.31l26.6,12a2.68,2.68,0,0,0,.88,2.61L472.4,37.44a2.67,2.67,0,0,0-3.16,1.45l-22.09-5.15a2.73,2.73,0,0,0-.29-1.28,2.69,2.69,0,0,0-1.05-1.09Zm-9.74,30.06a2.81,2.81,0,0,0,.41,0,2.75,2.75,0,0,0,2.43-1.48L469,40.05a2.6,2.6,0,0,0,.23,1.13l-37,27.27-.31-.22Zm-1.43-.71A2.54,2.54,0,0,0,443,36L430.89,67.79a2.7,2.7,0,0,0-3,1.84h0a2.61,2.61,0,0,0-.12.83l-53.62,12Zm-73-12a2.65,2.65,0,0,0,1.27-1.39l70.88,11.62a2.5,2.5,0,0,0,.19.86l-68.78,47a2.57,2.57,0,0,0-1-.61,2.21,2.21,0,0,0-.37-.08l-2.75-57.18a4.33,4.33,0,0,0,.54-.21ZM731.34,294.23a3.56,3.56,0,0,0,2.55-1.08L734,293l20.88,12.54L709.3,358.78l-.12-.06,21.62-64.54A4.93,4.93,0,0,0,731.34,294.23Zm-2.14-.74a4.53,4.53,0,0,0,.46.3L708,358.33a2.88,2.88,0,0,0-.59-.06,3.5,3.5,0,0,0-2.49,1.08,3.43,3.43,0,0,0-1,2.13l-50.8,4a3.39,3.39,0,0,0-.46-1.05Zm-35,154.23a3.39,3.39,0,0,0-1,.18l-41.31-78.79a4.32,4.32,0,0,0,.39-.34,3.51,3.51,0,0,0,1-2.13l50.79-3.95a3.49,3.49,0,0,0,1,1.68h0a3.51,3.51,0,0,0,1.35.81Zm13.43-82.36a3.49,3.49,0,0,0,1.35-.3l28.56,42.75-41.22,40.58a3.37,3.37,0,0,0-1-.47Zm86.58,43.84-42.52,17.62L739.1,408l19.37-19.08,35.8,18.51a3.14,3.14,0,0,0-.09,1.8Zm-23.4,48.44-.11.09a3.67,3.67,0,0,0-.84,1.47l-72-8.14a3.72,3.72,0,0,0-.08-.57l53.48-22.17ZM750.55,427.3l-53.27,22.07a.54.54,0,0,1-.07-.13l41-40.4ZM669.34,484h.07a3.94,3.94,0,0,0,2.41-.9l39.51,35.45,3.56,13.56-71-29a4,4,0,0,0-.36-2.76l23.06-17.45A4,4,0,0,0,669.34,484Zm47,48.68L713,520l22.85,20.5v.1Zm9.25,5.12L717,535.11l-.25-.93ZM578.68,496.33l-23,27.93a4,4,0,0,0-2.07-.56,3.85,3.85,0,0,0-2.3.81l-30.2-29.19,36-29.49a3.92,3.92,0,0,0,2.63,1,4,4,0,0,0,1.76-.42l17.39,24.48-.07.06a3.93,3.93,0,0,0-.11,5.38ZM301.73,767.89a4.42,4.42,0,0,0-.49-1.89,4.8,4.8,0,0,0-.93-1.17l17.58-26.33L354.15,741l-4,16.79L338.5,771.94Zm35.77,5.23-13.39,16.3-23-19.12a4.12,4.12,0,0,0,.46-1,.43.43,0,0,0,0-.16Zm-84.71-8.41a4.3,4.3,0,0,0,.49,1.52L244.36,773l3.79-12.46,4.81,2.35a4.18,4.18,0,0,0-.17,1.79Zm-5.42-5.93L224,747.34a4.23,4.23,0,0,0-1.44-4.64l.13-.22,30-5.77a4.14,4.14,0,0,0,1.19.84ZM53.89,721.24l33-9.14L80.2,725.89h0a4.33,4.33,0,0,0-5.31,2.4l-21.15-5.6A4,4,0,0,0,53.89,721.24Zm34.61-9.59,67-18.55a4.27,4.27,0,0,0,3.11,2.46l-1,31.41h0a4.24,4.24,0,0,0-2.83,1.6,4.18,4.18,0,0,0-.86,3.14,4,4,0,0,0,.4,1.32l-6.69,4.54a4.24,4.24,0,0,0-6-.35,4.31,4.31,0,0,0-1,1.35L83.22,730a4.37,4.37,0,0,0-1.9-3.57ZM76.3,499.54a4.37,4.37,0,0,0,2.59,2.12,4.54,4.54,0,0,0,1.27.19h.38L92.83,553.6l-1.14.47a6.08,6.08,0,0,0-7.32-2.83,2.9,2.9,0,0,0-.41.16L54.08,498.65A6.13,6.13,0,0,0,56,496.43a5.8,5.8,0,0,0,.61-2.23l22.15-.81a4.36,4.36,0,0,0-2.7,5.53A3.76,3.76,0,0,0,76.3,499.54Zm66.41-81.14,54.45-17.16,33.07,46.24L216.16,462.1l-73.79-40.21A6.12,6.12,0,0,0,142.71,418.4Zm84.67-147.93-91.6,19.87-22.26-65a6.14,6.14,0,0,0,2.72-2.59l111.34,45.5a6.15,6.15,0,0,0-.2,2.22Zm-33.1-162.15a4.28,4.28,0,0,0-1.35-2.6l32.69-48.34,29.47,36,12.38,44.82-16.32,8.42-57.21-36.1a4.37,4.37,0,0,0,.34-2.2ZM351.06,528.1,334,532.89l-20.94-23.4,38.17,15.91A6.16,6.16,0,0,0,351.06,528.1ZM397.5,426.72a4.07,4.07,0,0,0,1.61-.37l32.53,48.7-46.9,46.21a4.21,4.21,0,0,0-1.15-.6Zm-15.14,93.75h0a3.81,3.81,0,0,0-1.2.23L357.3,475.13l-.47-48.59,36.8-2.85a4,4,0,0,0,1.1,1.92h0a3.82,3.82,0,0,0,1.57.91ZM581.2,421.74c.1.1.22.18.33.27l-20.48,37.15a4.23,4.23,0,0,0-1.41-.25,3.94,3.94,0,0,0-3.89,4c0,.06,0,.13,0,.19L503.59,474.3a3.85,3.85,0,0,0-.93-1.42,4,4,0,0,0-2.89-1.1L485.1,428.55a4.55,4.55,0,0,0,1-.74,4,4,0,0,0,1-3.77l38.73-17.15a4.18,4.18,0,0,0,.57.69h0a4,4,0,0,0,5.61-.1,4,4,0,0,0,1.09-2.65L580,418.44A4,4,0,0,0,581.2,421.74ZM481.82,622.57a3.73,3.73,0,0,0-1.24.59l-35.31-35.83,12.06-24.17a7.35,7.35,0,0,0,1.38.35,6.73,6.73,0,0,0,1,.07,6.63,6.63,0,0,0,3.73-1.16L476.62,578Zm-3.77-42.9,20.35,24-13.75,19.22a3.88,3.88,0,0,0-1.6-.42Zm.94,47.39-51.55,17.83L438.3,615.2a4.35,4.35,0,1,0-1.17-8.09,4.42,4.42,0,0,0-1.08.84l-.77-.55,9.4-18.85,35,35.53a3.87,3.87,0,0,0-.79,2.41A3.78,3.78,0,0,0,479,627.06ZM411.74,651.3l-26.08,52.27-7.56-50.28a4.3,4.3,0,0,0,2.7-5.88l28.69-17.52,4.26,16.2a3.92,3.92,0,0,0-2,5.17l0,.08Zm-43.4,75.15a6.61,6.61,0,0,0-2.62,4.41,6.73,6.73,0,0,0,1.86,5.66l-3.18,3.87-8.67-.59,20.72-86.34h.38l7.84,52-10,20a7.35,7.35,0,0,0-1.38-.35A6.68,6.68,0,0,0,368.34,726.45Zm2.21,11.83-.43,2.5-4-.27,2.53-3.08A6.75,6.75,0,0,0,370.55,738.28Zm-15.12,2.78,8,.54L352,755.52Zm-1-1.34-35.74-2.44L375,653.06l.23.1Zm17.51-1.21h.43A6.77,6.77,0,0,0,375,738l1.83,3.26-5.28-.36Zm4.29-1.22.13-.08a6.69,6.69,0,0,0,1.28-1.27l9.11,5.61h0a2,2,0,0,0-.07.35l-8.16-.56Zm2.17-2.57a6.1,6.1,0,0,0,.4-1.08l10.35,1.75.5,3.28a4.38,4.38,0,0,0-2.24,1.61Zm.64-2.49a6.77,6.77,0,0,0-.44-2.85l8.95-4.64,1.38,9.16Zm-1.1-4.11-.21-.31a6.91,6.91,0,0,0-1.77-1.64L385,708l2.29,15.25ZM435.18,612.6l-3.64,2.29,3.16-6.33.61.42a3.56,3.56,0,0,0-.29.7,4.32,4.32,0,0,0,.18,2.92Zm-6,3.66-19,11.63-11.86-45.07,35.11,24.85Zm-18.59,12.91,17.57-10.77L414.8,645.17ZM430.47,617l5.42-3.29a4.35,4.35,0,0,0,1.26,1l-11.26,30.69-7.08,2.43a4,4,0,0,0-.72-1,3.92,3.92,0,0,0-2-1Zm34.06-55.48a6.53,6.53,0,0,0,1.54-2.61l8.5,1.7,1.73,14.79Zm1.82-4A6.72,6.72,0,0,0,453,555.94h0a6.77,6.77,0,0,0,3,6.6l-11.84,23.74-58.62-59.47a3.87,3.87,0,0,0,.63-1.29l82,9.28a3.94,3.94,0,0,0,3.79,3.76l2.4,20.55Zm8.74-225a3.91,3.91,0,0,0-.81-.59l4.29-11.5,16.71,7.27,12.43,29a3.79,3.79,0,0,0-.74.58l-.07.09-31-20.41a3.88,3.88,0,0,0-.84-4.47Zm32,30.4h0a3.91,3.91,0,0,0,2.75,1.12h.05a4.64,4.64,0,0,0,.91-.13L527,401.38a3.27,3.27,0,0,0-.37.28l-.31-.09-.14.51-.08.1L482.52,376l24.2-13.51a3.25,3.25,0,0,0,.35.39Zm18.4,40.33a4,4,0,0,0-.28,1.54,3.77,3.77,0,0,0,.14,1l-38.77,17.12a4.2,4.2,0,0,0-.56-.7,4,4,0,0,0-5.61.1,3.89,3.89,0,0,0-1,2l-78-2.08a4.2,4.2,0,0,0-.2-.85l80.1-44.72ZM483.89,429,498.5,472a4,4,0,0,0-1.49,1c-.12.13-.22.27-.33.41l-40.42-20.9,24.63-24.26a3.88,3.88,0,0,0,2.34.79h.07A4.16,4.16,0,0,0,483.89,429Zm-82.57-5.46,78,2.08a3.72,3.72,0,0,0,.69,1.78l-24.87,24.54L401.22,424a4.84,4.84,0,0,0,.14-.51Zm54,29.91,40.78,21.09a3.62,3.62,0,0,0-.1,2.17l-48.43,20.08-14.38-21.53Zm14.1,78.29c-.05,0-.11.08-.17.14a3.83,3.83,0,0,0-1,1.7l-82-9.27a3.86,3.86,0,0,0-.1-.75l60.9-25.24Zm-23-34.47-60.68,25.15-.15-.23,46.72-46ZM470.47,531l-22.18-33.2,48.22-20a3.88,3.88,0,0,0,.61.79,5.3,5.3,0,0,0,.52.42l-24.39,51.79a4,4,0,0,0-2.75.2Zm28.3-51.46a4.13,4.13,0,0,0,1.1.17h.07a4,4,0,0,0,2.31-.81l16.92,16.36-44.38,36.38a4.12,4.12,0,0,0-.41-.32Zm21.3,16.59,30.3,29.28a4,4,0,0,0-.7,2L476,533.65a4,4,0,0,0-.43-1Zm-17-18.12a4,4,0,0,0,.73-2.33v-.15L556,464.31a5.85,5.85,0,0,0,.28.56l-36.12,29.59Zm28.28-76.55a4,4,0,0,0-3.24-.59l-16.23-37.5a4.54,4.54,0,0,0,.73-.58,3.94,3.94,0,0,0,1.06-2.11l36.27.17L561,370.75Zm1.75-57.33,35,15.22a2,2,0,0,0-.08.35l-17.63-.09Zm15.44,15.47-34.88-.17a3.91,3.91,0,0,0-4.44-3.29l-.33.06L497,328.37l32.59,14.17Zm-52.38-32.88-9.26-21.63c.13-.09.26-.18.38-.28l39.32,35.09ZM494.5,326l-15.57-6.76,5.08-13.6a4.13,4.13,0,0,0,.78.08,3.76,3.76,0,0,0,1-.13Zm-16.61-7.26-6.81-3L469.84,303l11.16-.47a4,4,0,0,0,1.13,2.07h0a4,4,0,0,0,.82.59Zm-.43,1.17-4.31,11.55a2.57,2.57,0,0,0-.55-.06l-1.38-14.2Zm-2.24,18.18.06-.09,31,20.41a4,4,0,0,0-.11,3l-24.82,13.86-28-16.79,16.93-19.77a3.93,3.93,0,0,0,4.91-.62Zm-22.94,19.74-24-14.43a4,4,0,0,0,.28-1.4l40.06-5.52a4,4,0,0,0,.77,1.41Zm.26,1.6,27.54,16.53L400.6,420.32l-.1-.12ZM400.67,425.1l53.57,27.7-21.67,21.36-32.39-48.5.17-.14a3.13,3.13,0,0,0,.29-.42Zm-16,102.56,58.92,59.76-9.53,19.09-36.2-25.62L384,528.05A3.76,3.76,0,0,0,384.7,527.66Zm24.45,100.91-29,17.79a4.22,4.22,0,0,0-2.06-1.38h0a4.23,4.23,0,0,0-2-.11L342.29,544.8a4.26,4.26,0,0,0,1.15-.87l53.38,37.77Zm-34.26,16.7h-.08a4.54,4.54,0,0,0-1.39,1.19l-56.89-31.77,23.05-69.51a4.76,4.76,0,0,0,.75.07,4.13,4.13,0,0,0,.78-.08Zm-180,65-33.35,18.39a4.68,4.68,0,0,0-.75-.79,4.22,4.22,0,0,0-1.85-.81l1-31.42h0a4.29,4.29,0,0,0,3.72-4l28.14.43a4.55,4.55,0,0,0,.47,1.49,4.31,4.31,0,0,0,2.58,2.11,4.05,4.05,0,0,0,.5.12Zm.31,30.51,13.21,3.11-10,1.93a4,4,0,0,0-.25-.6,4.34,4.34,0,0,0-2.58-2.13,3.86,3.86,0,0,0-.49-.1Zm-23.93-7.06-8.86-2.13a4.31,4.31,0,0,0,0-.88,4,4,0,0,0-.24-1l32.68-18-.2,6.33Zm23.32-14.09-.7,19.52-21-5.06Zm-32-49.57a4.32,4.32,0,0,0-2.31-2L169,628.69h.31a4.37,4.37,0,0,0,2-.51,4.27,4.27,0,0,0,1.87-2l44.75,13.71-19.48,44.57-11.19,1.81-24.33-12.75.06-.15A4.29,4.29,0,0,0,162.59,670.06Zm-95-63.62,7.55-19.14,13.54,16.46L70.89,608Zm1.09,2-2.09.49.49-1.23ZM193.31,489.2,252.68,487a4.64,4.64,0,0,0,.16.74l-31.66,13-27.58-9.13A4.18,4.18,0,0,0,193.31,489.2Zm156-138.31a5.58,5.58,0,0,0,.12,1l-101.9,32-4.85-41.59Zm-106.8-10-7.57-65.1a2,2,0,0,0,.58-.14,6.09,6.09,0,0,0,2.69-1.86l111.73,74.1a.22.22,0,0,1-.05.08,6.16,6.16,0,0,0-.5,1.52Zm10.43,101.38-5.18-5.79a4.35,4.35,0,0,0-5.39-6.62,4.3,4.3,0,0,0-2.12,2.57,4.37,4.37,0,0,0,.73,3.92l-9.72,10.11L198.55,400.8l47.74-15.05Zm4.43,37.89a2.16,2.16,0,0,0-.59.16,6,6,0,0,0-1,.45L231.94,447.5l9.95-10.28a4.23,4.23,0,0,0,1.25.64,4.54,4.54,0,0,0,1.27.19,4.25,4.25,0,0,0,2-.51c.13-.07.23-.16.35-.23l6.4,7.15Zm-2.56-33.9,17.54,19.63-10.63,14.9a6.17,6.17,0,0,0-3-.77Zm-.14,35.32a6.06,6.06,0,0,0-.89,1l-36.41-19.86L231,448.51Zm-.73,8.31-16.61,16.28-14.07-4.67,30.16-12.4A8.28,8.28,0,0,0,253.89,489.89Zm82.18,52-85.89,32.3a4.32,4.32,0,0,0-5.65-1.81l-7.18-10.74,88.27-24.91L336,540.18A4.11,4.11,0,0,0,336.07,541.89ZM173.23,622.62l69.84-43.52a4.38,4.38,0,0,0,1,.87l-25.65,58.7L173.55,625A4.28,4.28,0,0,0,173.23,622.62Zm-67.34-26.14h0a4.34,4.34,0,0,0-1.64-.17l-8.36-35.25,37.26,13,13.37,19L128,608.51l-19.11-7A4.34,4.34,0,0,0,105.89,596.48Zm-10.41-37-1.19-5,19.44-8,18,25.66Zm58.78,25.23a5.84,5.84,0,0,0,.68,1.37l-7.47,6.23-12.3-17.51,18.91,6.6a6.1,6.1,0,0,0,.22,3.28Zm-7,9.55,19,27a4.79,4.79,0,0,0-.84,1.06l-35.86-13.23Zm1-.81,7.56-6.3a6.41,6.41,0,0,0,1.51,1.08,6,6,0,0,0,2.7.63,6.06,6.06,0,0,0,6-7.08l9.33-2.64-6.15,40.91a4.35,4.35,0,0,0-2,.46Zm27.35-15.83-10,2.81a5.9,5.9,0,0,0-.82-1.42l12.49-12.12Zm3.12-12.22,36-35.25,20.48,30.66L177,577.24Zm-2,13.37L236,562l7.4,11.08a4.32,4.32,0,0,0-1.06,4.94l-69.84,43.52a4.35,4.35,0,0,0-2-1.35h0Zm59.77-18.33-20.81-31.22,22.06-21.6L323.25,536Zm-15.13-58.2,14.85,4.92L214.89,528l-12.12-18.15ZM213.94,529l-34.82,34.12,7-46.37,15.48-6.36Zm-36.36,35.62L163.89,578a6.21,6.21,0,0,0-1.16-.75,6,6,0,0,0-4.66-.29,4.91,4.91,0,0,0-.62.28l-24.16-38.79,51.44-21.15ZM156.29,578a6.23,6.23,0,0,0-1.7,2.08h0l-20.7-7.2L115,546l17-7ZM114.15,544.8l-31-44.16a4.27,4.27,0,0,0,1.18-1.88,3.89,3.89,0,0,0,.17-.89l21.07-1.27,25.68,41.17Zm-1.2.49L94,553.08,81.76,501.53a2.21,2.21,0,0,0,.35-.16ZM94.1,559l-1.8-.63a6.1,6.1,0,0,0-.09-3l.93-.38Zm.38,1.6L103,596.62a4.33,4.33,0,0,0-2.54,2.76,4.55,4.55,0,0,0-.18,1.64l-10.13,2.39L75.72,585.82l9-23a6,6,0,0,0,1.58.23,6.17,6.17,0,0,0,2-.33,6.06,6.06,0,0,0,3.51-3.1h0Zm-4.91,44.33,13.53,16.45a5.45,5.45,0,0,0-.83,1.08L72.74,608.81Zm1.51-.36,9.55-2.25c.06.15.11.3.18.44a4.36,4.36,0,0,0,2.58,2.12,4.2,4.2,0,0,0,1.27.19,4.37,4.37,0,0,0,2-.51h0l10.23,13.3-4.65,3.88a5.93,5.93,0,0,0-2.06-1.66,6,6,0,0,0-4.65-.29,6.34,6.34,0,0,0-1.33.66Zm16.66-.81a4.55,4.55,0,0,0,.74-1l18.4,6.75-9,7.54Zm20.64,6.34L165,623.51a4.26,4.26,0,0,0,.4,2.93,4.38,4.38,0,0,0,2.3,2l-8.67,39.37a4.32,4.32,0,0,0-2.39.52l-38-50.17Zm71,75.53,3.73-.6L199,688.34a4.81,4.81,0,0,0-.62-.47Zm-7.44,4.5a.44.44,0,0,0-.06.16,2.66,2.66,0,0,0-.12.56l-22.79-.35L187,687.54Zm.59-1.13-3.38-1.76,8.7-1.41-.67,1.53a4.35,4.35,0,0,0-4.61,1.64ZM196,711l51.1-28.18-51.23,34.38Zm0-1.47.42-13.7a4.34,4.34,0,0,0,3.33-6.37,1.74,1.74,0,0,1-.1-.16l5.82-4.75,50.08-8.08.06.18ZM205,683.32l-5.09.82,19.21-44,25.26,7.7a4.36,4.36,0,0,0,.46,2.7l.1.15Zm39.75-36.66L219.61,639l25.58-58.55a3.55,3.55,0,0,0,.65.12l2,63.67a4.74,4.74,0,0,0-1.27.42,4.36,4.36,0,0,0-1.8,2Zm2.38-66.12a4.35,4.35,0,0,0,2.68-1.63l38.83,21.68L251,644.89a3.84,3.84,0,0,0-1-.48,4.15,4.15,0,0,0-.78-.16Zm42.63,20.68,25.19,14.07L304,648.14l-51.09-.23a4.39,4.39,0,0,0-1-2.25Zm-36.85,48.6a6.18,6.18,0,0,0,.12-.62l50.68.23L291.57,686a4.36,4.36,0,0,0-2.79.43,3.35,3.35,0,0,0-.59.39l-36.3-35.3A4.31,4.31,0,0,0,252.89,649.82Zm52.14-.38,67.55.31a3.8,3.8,0,0,0,.14.67l-78.35,37.47a4.32,4.32,0,0,0-1.63-1.46Zm67.64-1.55a3.19,3.19,0,0,0-.12.6l-67.14-.3L316.1,616l56.68,31.65A1.36,1.36,0,0,0,372.67,647.89Zm-57.3-33.79-24.75-13.82L338,544.61a3.79,3.79,0,0,0,.34.2Zm-25.88-14.46-39.05-21.81c0-.09.07-.17.1-.27a4.18,4.18,0,0,0,.08-2.19L336.51,543a4.41,4.41,0,0,0,.53.75ZM336.43,539l-8.63-2.86,5.87-1.66,3.3,3.68A4.62,4.62,0,0,0,336.43,539Zm-3.8-5.68-7.2,2-86.66-28.71,16.12-15.7a6.07,6.07,0,0,0,8.54-.85,5.62,5.62,0,0,0,.62-.91l46.3,19.31Zm-68.05-45.5a6.16,6.16,0,0,0-.08-3.68h0a6.13,6.13,0,0,0-1.7-2.55l10.45-14.68,34.94,39Zm8.48-23L254.5,444.06l-6.85-58.74,102.17-32.21a6.06,6.06,0,0,0,1.48,2Zm77.65-118.1L238.89,272.63a6.09,6.09,0,0,0,.35-4.75h0a6.13,6.13,0,0,0-3-3.46l9.65-25.91a4.31,4.31,0,0,0,2.58.89H249a4.27,4.27,0,0,0,2.1-7.59,3.79,3.79,0,0,0-.6-.38L274,166.5a4.47,4.47,0,0,0,.82.08h.54a4.16,4.16,0,0,0,2.82-1.59,4.25,4.25,0,0,0,.88-3.15,5,5,0,0,0-.2-.85l13.72-7.13,60.34,191.22a6,6,0,0,0-2.18,1.63Zm-102-115.81,21.34-57.37L249.27,231A5,5,0,0,0,248.71,230.89Zm39.42-95.68a6.11,6.11,0,0,0,3.42-4l32.86,4.64-31,16.11Zm4,17.36-13.94,7.24a3.68,3.68,0,0,0-.81-.86,4.15,4.15,0,0,0-1.64-.78l8.41-22.61a6,6,0,0,0,1.46.19,5.75,5.75,0,0,0,1.17-.13Zm-17.83,5.51h-.05L269,139l11.59-6a6,6,0,0,0,2.29,2.05Zm-1.26.35a4.19,4.19,0,0,0-1.48,1.09l-19.06-12,15.39-7.93ZM280.13,127a6,6,0,0,0-.29,4.66c0,.07.06.12.08.18l-11.32,5.84L257.07,95.82l24.2,29.57a6.37,6.37,0,0,0-1.12,1.56Zm-28.94,21.23,19.7,12.42a4.22,4.22,0,0,0-.35,1.48l-57.33,5.7Zm19.46,15.17a4.2,4.2,0,0,0,1,1.84l-24.52,65.9a4.24,4.24,0,0,0-2.24,1.8L160.52,195l49.65-25.61ZM158.89,194.24l-33.27-14.93.56-1.63,80.23-8Zm-33.68-13.75L157.46,195,116,216.38a6.15,6.15,0,0,0-2.44-2.11Zm-.1-4-.63.06a4.24,4.24,0,0,0-.68-1.46l2.72-2.68Zm-2.19-2.3a5.73,5.73,0,0,0-.75-.45l20.21-68.63,7.18.65-22.11,64Zm-33.37-53A6,6,0,0,0,88.26,119l15.09-17.49,8.94.81,7,71.1a4.15,4.15,0,0,0-1.34.6l-27.63-30-4.25-15.16a6,6,0,0,0,3.48-7.6Zm14.82-20.82,6.93-8,.86,8.73Zm9.2,2.1L141.1,105,121,173.36a2.29,2.29,0,0,0-.37,0ZM151,105.89l34.83,3.16v.27a4.15,4.15,0,0,0,.81,2l-56.94,56.23Zm34.93,1.9-34.51-3.13,15-43.31,21.27,44a4,4,0,0,0-1.74,2.49Zm-19.81-49.9-4.39-9a4.42,4.42,0,0,0,1-.88,4.13,4.13,0,0,0,.88-2.5l7.16-.89Zm-.58,1.68-15.55,45-7.24-.66,16-54.35h1.1a5,5,0,0,0,.75-.16Zm-24.07,44.19-28-2.54-1-10.17,34-39.36,9.34-4.11a4.36,4.36,0,0,0,1,1.1,4.19,4.19,0,0,0,.82.48ZM112.24,89.17l-2.12-21.49L143.43,53Zm-1.13,1.31-8.46,9.8L53.16,95.8l-2.35-2,58.08-25.58Zm-9.47,11L87.19,118.2a5.09,5.09,0,0,0-.74-.46,6,6,0,0,0-4.66-.29,6.2,6.2,0,0,0-2.15,1.29L54.79,97.21Zm-19,27.78a5.88,5.88,0,0,0,2.1,0l3.54,12.6-7.12-7.74ZM89,144.56l7.8,27.75L71,167.17l9.69-31.62Zm2.08,2.26,26,28.17a4.16,4.16,0,0,0-.67,1.22l-18-3.59Zm25,30.62a4.45,4.45,0,0,0,0,.73,4.26,4.26,0,0,0,4.21,3.74h.54a4.16,4.16,0,0,0,2.82-1.59,3.55,3.55,0,0,0,.23-.43l-11.72,33.89a5.89,5.89,0,0,0-2.29-.07L98.7,173.91Zm.64,44a6.08,6.08,0,0,0-.09-3.63h0c0-.06,0-.12-.08-.19L159,195.71,244.3,234a4.1,4.1,0,0,0,.48,3.36l-9.89,26.58a6,6,0,0,0-3.44.14,6.16,6.16,0,0,0-3.36,2.85ZM233.43,276h0L241,340.81,156.14,334a6,6,0,0,0-.33-1.77,5.79,5.79,0,0,0-.56-1.18l73.79-57a6.17,6.17,0,0,0,4.43,1.89Zm-77.9,61a6.16,6.16,0,0,0,.5-1.52l85.14,6.8,4.92,42.14-48.43,15.26-43.52-60.84a6.18,6.18,0,0,0,1.43-1.94Zm60.75,126.84,36.74,20a6,6,0,0,0-.44,1.83l-59.42,2.17Zm-23.06,29.06,26.16,8.66L202,508.71l-9.73-14.56A4.13,4.13,0,0,0,193.22,492.89Zm7.56,16.31-14.44,5.94,3-19.86h0a4.24,4.24,0,0,0,1.85-.42ZM185,515.7l-52.44,21.56-25.4-40.74,78-4.7a4.35,4.35,0,0,0,3,3.27h0Zm.19-26a3.87,3.87,0,0,0-.16.89l-78.64,4.73-1.76-2.83,80.63-2.95a.2.2,0,0,0-.07.11Zm-80.38,5.72-20.4,1.23a4.83,4.83,0,0,0-.4-1.16,4.36,4.36,0,0,0-2.58-2.11h-.15l21.74-.8ZM74.71,584.58l-7.51-9.13,15.14-13.86a5.5,5.5,0,0,0,1.13.77Zm-.59,1.48-7.8,19.83-17-7.8a6,6,0,0,0,0-3.88,6.09,6.09,0,0,0-.85-1.59l17.71-16.2ZM48.73,599.31l17.08,7.85-.87,2.2-21.88,5.15.83-12.26a5.93,5.93,0,0,0,4.89-2.94ZM66,610.39l4.51-1.06,31.13,14.3a6.13,6.13,0,0,0,4,7.71,6,6,0,0,0,1.83.29,5.92,5.92,0,0,0,2-.34,6.08,6.08,0,0,0,3.81-7.72v0a4.43,4.43,0,0,0-.3-.67l4.75-4L155.67,669a4.34,4.34,0,0,0-1,1.71L49.28,653.6a3.53,3.53,0,0,0,0-.65Zm89,63.89a4.33,4.33,0,0,0,2.48,2,4.67,4.67,0,0,0,1.28.19,4.38,4.38,0,0,0,2-.52,4.31,4.31,0,0,0,1.45-1.3l22.9,11.92-21.76,3.51a4.24,4.24,0,0,0-4.58-2.92,4.2,4.2,0,0,0-2.83,1.6,4.34,4.34,0,0,0-.76,1.5l-37.64-.57a3.12,3.12,0,0,0-.09-.44Zm-12.73,17-25.1.84a4.06,4.06,0,0,0,.27-.65,5.78,5.78,0,0,0,.12-.57ZM117.06,688a4.34,4.34,0,0,0-5.93-1.59,4.4,4.4,0,0,0-2,2.5,4.2,4.2,0,0,0-.17,1.41l-8.22,1.54a3.81,3.81,0,0,0-.27-.66,4.3,4.3,0,0,0-2.6-2.16h0a4.36,4.36,0,0,0-4.28,1l-6.5-5,65.78-11.36Zm-7.5,4.35-5.88.2,5.52-1a4.32,4.32,0,0,0,.28.67,1,1,0,0,0,0,.17Zm-14.13,5a4.47,4.47,0,0,0,1.26.19,4.37,4.37,0,0,0,4.16-3.08,3.1,3.1,0,0,1,.1-.53l9.66-.33a4.22,4.22,0,0,0,1.44.75,4.28,4.28,0,0,0,1.28.2,4.22,4.22,0,0,0,2-.51,3.87,3.87,0,0,0,.87-.63l37.87-1.28-64.86,18,6.16-12.76Zm44.85,42.51a3.57,3.57,0,0,0,0,1.13,2.62,2.62,0,0,0,.12.54l-15.29,6.53-41-16.62Zm.58,2.84a3.43,3.43,0,0,0,.24.33l-8,8.26-6.31-2.56Zm-7.5,10.08,5.83,2.36L115.8,770.79Zm.95-1,7.69-7.89a4.15,4.15,0,0,0,2.47.81H145a4.17,4.17,0,0,0,3.67-3.58l9.37,1.41-17.58,11.77Zm14.37-12a3.91,3.91,0,0,0-.38-1.2l6.69-4.55a3.24,3.24,0,0,0,.5.48,4.23,4.23,0,0,0,2.6.9h.53a4.22,4.22,0,0,0,2.84-1.62,3.81,3.81,0,0,0,.57-1l7.74,1.86-10.18,6.82ZM171.45,735l22.42,5.4L193.8,743a4.32,4.32,0,0,0-3.67,3.06h0l-28.68-4.3Zm19.14,14.52a4.32,4.32,0,0,0,3.7,2.09,4.37,4.37,0,0,0,4.16-3.08,4.5,4.5,0,0,0,.17-1.46l12.76-2.46,4.31,1a3.84,3.84,0,0,0,0,.83l-47,12.36Zm23.79-5.49,2-.39a3.66,3.66,0,0,0-.42.78Zm-3-.72-16.24-3.9.65-20.73L256.55,678a4.7,4.7,0,0,0,.51.49h0l-35.17,62.83Zm40.12-11a4.36,4.36,0,0,0,.28,3.21L223.45,741l34.72-61.9a4.23,4.23,0,0,0,1.49.28h.55a4.26,4.26,0,0,0-1-8.45h0a4.25,4.25,0,0,0-3.72,4.26L207.51,683l38.23-31.19a4.08,4.08,0,0,0,1.65,1,4.25,4.25,0,0,0,3.31-.31l.1-.07,36.43,35.41a4.74,4.74,0,0,0-.64,1.27,4.36,4.36,0,0,0,1,4.2l-29.7,36.68a4.29,4.29,0,0,0-6.36,2.47ZM288.55,694a4.69,4.69,0,0,0,.94.43,4.45,4.45,0,0,0,1.25.18,4.35,4.35,0,0,0,4.37-4.31,4.54,4.54,0,0,0-.2-1.32l78.3-37.43a4,4,0,0,0,.68.79l-56.67,84.83L260,733.27a4.18,4.18,0,0,0-.49-1.7,3.57,3.57,0,0,0-.65-.89Zm-28.91,41.33.31-.06-.1-.54a.61.61,0,0,0,0-.19l56.51,3.85-17.18,25.73a4.35,4.35,0,0,0-.59-.25,4.26,4.26,0,0,0-3.3.32,4.16,4.16,0,0,0-.87.62l-35-28.91a5.6,5.6,0,0,0,.27-.55Zm89.69,25.6-2,8.25a4.37,4.37,0,0,0-4.56,3.07v.15l-2.62-.29Zm1.84-2.24,14-17,4.75.32-2.81,16.66-17,11.85a4.19,4.19,0,0,0-1.52-1Zm20.14-16.56,6.25.43,3.56,6.32-12.4,8.66Zm7.95.54,7.32.5a4.25,4.25,0,0,0,.44,1.59l-4.72,3.3Zm8.5,3.13a4.2,4.2,0,0,0,1.88,1.19,4.91,4.91,0,0,0,.93.17l1.23,17.77-8.87-15.75Zm1-21.69,10.29-5.34-5.79,15.85-3-.51Zm-.23-1.49L386,706l26.66-53.42a4,4,0,0,0,2.66,1h.08a3.91,3.91,0,0,0,2.77-1.21,4,4,0,0,0,1-3.44l6.1-2.11-25.56,69.92Zm38.36-76.26,52.51-18.12a3.78,3.78,0,0,0,.73,1,4,4,0,0,0,5.61-.1,4.09,4.09,0,0,0,.49-.61l43.09,18.86a6.25,6.25,0,0,0,.45,2L401.44,715.94ZM529.38,646h0l-42.67-18.66a3.8,3.8,0,0,0-1-3.81l13.55-18.91,31.94,37.66a6.58,6.58,0,0,0-1.79,3.72Zm-51.63-68.9-1.86-16.2,46.56,9.33L499.3,602.51Zm-2.08-17.75-2.45-21a3.82,3.82,0,0,0,1.77-1,3.9,3.9,0,0,0,1.1-2.47l73.71-6.26a3.93,3.93,0,0,0,1.09,1.88l-27.56,38.4Zm76.22-28.15a3.82,3.82,0,0,0,1.69.43l6.31,44.57-35.17-7Zm10.6-65.48a.27.27,0,0,1,.08-.07,2.79,2.79,0,0,0,.3-.38l58.9,31.26a.43.43,0,0,1-.08.3l-36.11-3.37a3.91,3.91,0,0,0-4.1-3.71,4,4,0,0,0-1.59.43Zm74.81,39.35a3.91,3.91,0,0,0,2.76,1.12h.06a3.39,3.39,0,0,0,1-.18l3.1,6.52L587.5,494.89l34.06,3.17a4,4,0,0,0,1.18,2.6h0a3.94,3.94,0,0,0,5.57-.05,3.82,3.82,0,0,0,.75-1.07l7.07,2.14c0,.21,0,.41,0,.62a3.92,3.92,0,0,0,1.16,2.76Zm-52.12-9.6L645,514.05l18,37.88a4.79,4.79,0,0,0-.55.46l-77.28-56.87Zm57.12,10a4,4,0,0,0,1.14-1.22l71.87,29.34.28,1.08L645.89,513Zm23.59-23.57-23.1,17.47a4,4,0,0,0-2.81-1.11,3.86,3.86,0,0,0-3.48,2.24l-7.08-2.15a4,4,0,0,0,.05-.6,4,4,0,0,0-6.82-2.7,2.79,2.79,0,0,0-.3.38l-58.9-31.26a3.86,3.86,0,0,0,.22-1.35,4,4,0,0,0-1.21-2.78l-.33-.26,20.48-37.16a3.83,3.83,0,0,0,1.34.24,4,4,0,0,0,2.83-1.18l79,56.59A4,4,0,0,0,665.89,481.89Zm-47.29-56.6h.07a3.93,3.93,0,0,0,2-.6l44.79,51.8-78-55.82a4,4,0,0,0,.32-.88l26.84,1.88a3.91,3.91,0,0,0,3.93,3.62Zm-3.85-4.85-26.86-1.9a3.94,3.94,0,0,0-4.24-3.62,4,4,0,0,0-2.54,1.21,3.92,3.92,0,0,0-.72,1.08l-47.5-13.77a3.7,3.7,0,0,0-.59-1.13L562,371.58l53.21,47.59a3.82,3.82,0,0,0-.5,1.26Zm-45-56.86a3.89,3.89,0,0,0,2.26.72h.08a3.76,3.76,0,0,0,1.79-.49l40.22,52.7-51.21-45.83Zm-7.8,6.29-10.06-9,16.23.08a4,4,0,0,0,.75,1.78ZM468.09,260.75l100.7,97.31a.76.76,0,0,0-.11.14l-38.45-16.71-42-37.6a3.88,3.88,0,0,0,.63-2.22,4,4,0,0,0-4-3.9,4.18,4.18,0,0,0-.93.14l-16-37Zm-2.31.8h0a3.58,3.58,0,0,0,.92-.13l16,37a3.92,3.92,0,0,0-.72.57,4,4,0,0,0-1.08,2.3l-11.24.47ZM445.36,304l23.21-1,1.19,12.15-24.5-10.65a2.77,2.77,0,0,0,.1-.5ZM440,307.27a3.81,3.81,0,0,0,1.42.27h.07a3.88,3.88,0,0,0,2.79-1.21,3.61,3.61,0,0,0,.49-.62l25.11,10.9,1.45,14.88a3.87,3.87,0,0,0-3,3.74l-40.06,5.52a3.92,3.92,0,0,0-1-1.7,3.88,3.88,0,0,0-.65-.5Zm-15.46,38.62h.07a4,4,0,0,0,2.78-1.21l.17-.22,23.87,14.32-51.9,60.63-.25-.13,24.6-73.48A3.74,3.74,0,0,0,424.55,345.89Zm-2.44-.86a3.6,3.6,0,0,0,.62.39l-24.61,73.47a4.7,4.7,0,0,0-.75,0,3.93,3.93,0,0,0-3.84,3.64l-36.73,2.86-.19-19.56Zm-65,188.23a5.91,5.91,0,0,0,2-.33,6.12,6.12,0,0,0,3.8-7.76,6,6,0,0,0-3.09-3.51,6.36,6.36,0,0,0-2.05-.59l-.46-43.18L380,521.3c-.17.13-.33.27-.48.41a4,4,0,0,0,.09,5.61h0a4,4,0,0,0,2.76,1.11h.39l13.52,51.42-52.13-37a4.15,4.15,0,0,0,.28-.69,4.34,4.34,0,0,0-2.86-5.43,4.39,4.39,0,0,0-3.35.33,1.9,1.9,0,0,0-.33.22l-2.9-3.24,16.43-4.64a6.1,6.1,0,0,0,5.65,3.8Zm-.76-12.18a6.37,6.37,0,0,0-1.22.29,6,6,0,0,0-3.34,2.81l-40.88-17L274,465.89,352.43,356c.08,0,.16.11.25.15a5.88,5.88,0,0,0,2.06.59l.47,48.63-20.94,19.42a4,4,0,0,0-5.19,6,3.91,3.91,0,0,0,2.75,1.12h.06a3.81,3.81,0,0,0,1.2-.23l22.8,43.53Zm-20.66-94.14a4,4,0,0,0-.56-1.28L355.23,407l.18,18.39Zm19.73-.29.44,45.77L334.19,431a4.83,4.83,0,0,0,.49-.41,3.89,3.89,0,0,0,1.09-2.45Zm38.66-281a6,6,0,0,0,4.12,5.93L356,344.58a5.91,5.91,0,0,0-1.78.07L293.79,153.14l32.77-17ZM244,35.74l58.62-3.94a4.22,4.22,0,0,0,4.13,3.35h.53a4.31,4.31,0,0,0,1.53-.5l57.68,75.54a2.73,2.73,0,0,0-.23.25L243.64,37A3.71,3.71,0,0,0,244,35.74Zm-1,2.36,122.62,73.39a4.2,4.2,0,0,0-.32,2.13,4.25,4.25,0,0,0,.21.87l-38.94,20.22-34.79-4.92a6.18,6.18,0,0,0-.31-2.13h0a6.13,6.13,0,0,0-7.77-3.81,5.44,5.44,0,0,0-1.32.66l-26.19-32L241.44,39.27A4.17,4.17,0,0,0,243,38.1Zm-3.28,1.56h.51L254.13,90.1,226.39,56.2l11.5-17a4.17,4.17,0,0,0,1.83.43Zm-4.09-3.12a4.26,4.26,0,0,0,1.21,2L225.6,55.15,212.69,39.38ZM224.78,56.36,191.89,105a4.42,4.42,0,0,0-1.24-.36l-.42-62.48,20.82-2.58ZM210.11,38.43l-19.89,2.46-.19-27ZM190.05,113.1a4.69,4.69,0,0,0,.53,0,4.21,4.21,0,0,0,2.68-1.45l56.63,35.67L209.5,168.15l-82.83,8.23,2.13-6.14,58.75-58A4.2,4.2,0,0,0,190.05,113.1Zm-.65-8.46a4.15,4.15,0,0,0-.61.14L167,59.7l5.29-15.31L189,42.32Zm-6-92.42a5.82,5.82,0,0,0,1.32.17,6.17,6.17,0,0,0,2-.33A5.56,5.56,0,0,0,188,11.4l.76.93.2,28.72-16.24,2Zm-4.51-4.16.06.19a5.94,5.94,0,0,0,1.3,2.15l-6.12,7.09Zm-7.35,14.56,9.76-11.3a7.9,7.9,0,0,0,.8.46L171.18,43.25l-7.77,1a4.23,4.23,0,0,0-1.63-2.36Zm-3.41,3.95-7.44,14.75a4.35,4.35,0,0,0-1.86-.2A4.22,4.22,0,0,0,156,42.74l-.06.09-1.39-.51Zm-14.5,16.77,1.69.62a4.31,4.31,0,0,0-.22,1.92,5.43,5.43,0,0,0,.13.58l-6.91,3ZM109,26.89l43.27,15.92-6.89,8L110,66.36,106.28,29A4.26,4.26,0,0,0,109,26.89Zm-6,1.56a4.18,4.18,0,0,0,2,.64l3.8,37.8-59,26-.94-.81ZM50.79,95.58l-1.68-.15v-.28a3.75,3.75,0,0,0-.13-.58l.43-.19Zm-2.57,2.73A4.32,4.32,0,0,0,49,96.68l3.42.31,26.33,22.8a5.87,5.87,0,0,0-.47.75,6.12,6.12,0,0,0,2.8,8.18l.25.11L80.07,133,48.19,98.34ZM45.1,90.65l-.14.79h-.23l-.25-1.32Zm-6-5.18L43,88.8l.53,2.86-.33.14ZM8.72,154.71a4.33,4.33,0,0,0,0-.72,4.13,4.13,0,0,0-1.33-2.57L43,99.48a4.1,4.1,0,0,0,1.85.41,4.69,4.69,0,0,0,.53,0,4.16,4.16,0,0,0,1.85-.71l32.39,35.15-10,32.56Zm62,13.65,26.54,5.29,11.37,40.48a6.09,6.09,0,0,0-3.53,7.42L50.81,245A6.12,6.12,0,0,0,48,242.5ZM60.19,306.72h0a6.14,6.14,0,0,0-6-4.13L47.06,254l.41-.1a6.13,6.13,0,0,0,3.87-7.56l54.25-23.5a6.11,6.11,0,0,0,5.3,3.07,5.62,5.62,0,0,0,1.29-.16l22.22,64.91L60.19,306.73ZM144.4,332l-84-22.41a5.38,5.38,0,0,0,0-1.5L134.89,292l12.58,36.76A6.12,6.12,0,0,0,144.4,332Zm-8.16-40.34,91.44-19.83h0a5.72,5.72,0,0,0,.56,1.17l-73.79,57a6,6,0,0,0-5.68-1.72Zm12.82,48.6a8.26,8.26,0,0,0,1,.09,6.17,6.17,0,0,0,2-.33,6,6,0,0,0,1-.45l43.26,60.48-54,17a6.06,6.06,0,0,0-4-3.42Zm-88,77.53a6.09,6.09,0,0,0,.54-1.66l69,3.8a5.89,5.89,0,0,0,.31,1.61,6.11,6.11,0,0,0,10.79,1.54l73.45,40.06-23.26,24.25a4.23,4.23,0,0,0-1.25-.64,4.34,4.34,0,0,0-3.31.32,4.62,4.62,0,0,0-1.24,1l-82.29,3L59.35,419.89a6,6,0,0,0,1.69-2.1Zm-5.17,3.41A5.42,5.42,0,0,0,57,421l.26.25.41-.44.49-.23,44,70.54-45.62,1.67a7.8,7.8,0,0,0-.26-1.06,6,6,0,0,0-3.07-3.5,6.15,6.15,0,0,0-1.62-.53Zm-5.08,78.62a6.08,6.08,0,0,0,1.69-.31c.14-.05.26-.12.39-.18l29.88,52.72a6.07,6.07,0,0,0-1.35,8.52l-15.08,13.8-19-23.13Zm-3.63,53.44,18.13,22-17.78,16.3a6.44,6.44,0,0,0-1.31-.89,6.23,6.23,0,0,0-1.58-.52Zm-5.15,37L10.52,508.71l35.33,43-2.6,38.37a5.88,5.88,0,0,0-1.25.17Zm-3.72,77.56a5.6,5.6,0,0,0-1,.14l-2.15-6.29,3.73-2.78ZM39,657.23l-4.26,3.17L24.22,629.77l15.32,18.29ZM23.08,626.44l-1.27-3.71a2.13,2.13,0,0,0,.14-.35,4.55,4.55,0,0,0,.18-1.64l19.43-4.58-1.91,30.08ZM41.13,655.6l-.71.53.41-6.52.88,1a4.43,4.43,0,0,0-.92,1.62,4.35,4.35,0,0,0,.34,3.37Zm.45,13a6.16,6.16,0,0,0-1.91-.69l.64-10.1,1.58-1.2a4.37,4.37,0,0,0,1.79,1.1,4.2,4.2,0,0,0,1.27.19,4.32,4.32,0,0,0,.88-.1Zm4.64-19.21a4.36,4.36,0,0,0-3.32.32c-.08,0-.14.1-.22.15L41,647.79l2-31.95,21.4-5.05L48.5,651.06a4.32,4.32,0,0,0-2.28-1.68Zm2.53,6.28a4.73,4.73,0,0,0,.35-.8l105.31,17.18v.17L85.77,684.08Zm23.14,35.92a4.35,4.35,0,0,0-.82,1.88l-27.7-.77,42.07-7.28,7.45,5.69a3.85,3.85,0,0,0-.37.86,4.27,4.27,0,0,0-.17,1l-.83.07-12.07.41a4.18,4.18,0,0,0-1.56-2.56,4.26,4.26,0,0,0-6,.73h0Zm1,6.12a4.16,4.16,0,0,0,2.38.76h.54a4.26,4.26,0,0,0,3.57-3.08l12.44-1.07h.66a4.36,4.36,0,0,0,1.78,2.56l-6.69,13.71L53.5,720a3.62,3.62,0,0,0-.55-.93Zm-3.21,70.18-.47.11L51.8,725.41a4.45,4.45,0,0,0,1.2-1c.11-.15.2-.32.3-.48l21.28,5.63a4.36,4.36,0,0,0,3,4.66,4.54,4.54,0,0,0,1.27.19,4.38,4.38,0,0,0,2-.52,4.19,4.19,0,0,0,1.7-1.64l40.8,16.54-49.53,21.1A4.29,4.29,0,0,0,69.68,767.89Zm43.95,3.29a4.23,4.23,0,0,0-6.63,2.56l-32.56-2v-.14a5.23,5.23,0,0,0-.12-.54l50.78-21.69,7,2.84Zm40.86-8.61L115,773a.69.69,0,0,1-.05-.13l25.62-17.16,14,5.68a4.25,4.25,0,0,0-.12,1.23Zm5.6-4.38h0a4.35,4.35,0,0,0-5,2l-13.2-5.3,18-12.07,30.06,4.5a4.61,4.61,0,0,0,.13,1.11L162.5,760.18a4.28,4.28,0,0,0-2.41-1.95Zm3,3.43,53-13.93a4.25,4.25,0,0,0,3.89,2.58h.53a4.24,4.24,0,0,0,2.83-1.6c0-.07.08-.15.13-.22L247.05,760l-4.37,14.34-9.24,7-70.31-18.43a4.24,4.24,0,0,0,0-1.23ZM242,776.36,240,783l-5-1.32Zm-21.55,14.83L165.1,764.7l67,17.62Zm11.67,5.58-10.39-5,11.93-9.07,5.92,1.55-3.23,10.64A4.32,4.32,0,0,0,232.13,796.77Zm7.13-.07a4.31,4.31,0,0,0-1.69-1.42l3.25-10.67,14.72,3.86Zm18-9.08-16-4.22,2.54-8.32,10.33-7.86a4.25,4.25,0,0,0,2.94,1.22h.53a4.26,4.26,0,1,0-4-6.62l-5-2.45,6.52-21.4a4.89,4.89,0,0,0,.66,0,4.2,4.2,0,0,0,2.86-1.13l35.08,29a4.72,4.72,0,0,0-.45,1,4.4,4.4,0,0,0,0,2.64Zm63.75,5.6-34.28,2.14-27.62-7.26,34.78-17.56a4.24,4.24,0,0,0,2.26,1.66,4.32,4.32,0,0,0,4.17-.93l23,19.12Zm2-.12,1.47-1.79,1.9,1.58Zm5.21-.33-2.93-2.44,14-17,3.46.38a4.33,4.33,0,0,0,3.06,4,4.88,4.88,0,0,0,1.08.18l1.59,13.63Zm21.56-1.35-1.59-13.71a3.68,3.68,0,0,0,.66-.23l8.62,13.46Zm11.39,3-1.47-2.3,1.88-.12Zm.63-3.7-2.91.17-9-14.06a4.31,4.31,0,0,0,1-5.21l15.94-11.12Zm30.34-22.41L393.3,785a4.36,4.36,0,0,0-3.77,3.06,4.61,4.61,0,0,0-.17.9l-26.1,1.64,5.27-31.27,13.33-9.3Zm-.25-29.66a3.8,3.8,0,0,0-.89-.1l-.44-2.89,2.28.38ZM479.49,797l-84.6-52.14a6.22,6.22,0,0,0,.29-.71,4.39,4.39,0,0,0-2.1-5.1l1-2.8,101.61,17.15Zm16.74-45-101.7-17.12,6.19-17,129.71-67.27.21.32a6.68,6.68,0,0,0,2.38,2Zm1.44.24,36.78-98.79a5.63,5.63,0,0,0,.69.14,6.73,6.73,0,0,0,1,.07h.27l16,107.82ZM618.53,769a6.66,6.66,0,0,0-2.11,3.29l-62.53-10.56L537.71,653.41a6.4,6.4,0,0,0,1.47-.57ZM537,640.29a6.63,6.63,0,0,0-4.72,1.1l-32.17-38,23.66-33,36.3,7.27,8.22,58.43-26.1,8.14A6.7,6.7,0,0,0,537,640.29Zm32.69-3.1,10.56-3.3-3.82,15.66-5-.42Zm.42,11.85-27.36-2.26a6.32,6.32,0,0,0-.13-1.14l25.87-8.07Zm-.62-13.28L561.34,578l31,6.21-11.73,48.11Zm.27,27.93L541.2,651.21a7.31,7.31,0,0,0,.56-.81l28.13,13.1c0,.07-.11.12-.15.19Zm1.28-1.23-28.64-13.35a7.09,7.09,0,0,0,.22-.91l27.69,2.29,1.6,11.57a4.57,4.57,0,0,0-.87.4Zm2.13-.58-1.59-11.28,4.5.37-2.66,10.92Zm3.83,3.35a3.71,3.71,0,0,0-2.32-3l2.71-11.12,109,9,5,58.41Zm164.25,73.83a6.82,6.82,0,0,0-1.73,1.9L692.79,719.2l-5-59,47.32,3.91a6.72,6.72,0,0,0,5.76,6.49h.51l2.89,67.15a6.58,6.58,0,0,0-3,1.31Zm36.24-49.72-29.39,49a7.07,7.07,0,0,0-1.87-.55h-.52l-2.89-67.15a6.74,6.74,0,0,0,5.65-7.66l21.93-6Zm-7.42-33.9-22,6a6.53,6.53,0,0,0-.76-1.4l19.94-17.58Zm-11-64.08,26.24,33.28-17.21,15.17L757.62,592a6,6,0,0,0,1.45-.68Zm-70.38,11a6.27,6.27,0,0,0,0-1.73L748.89,587a6.72,6.72,0,0,0,5.63,5.32,8.39,8.39,0,0,0,1,.06l.72-.06,10.65,48.55L746.35,659a6.68,6.68,0,0,0-8.55-.43l-.07.06-50.54-52.92a6.76,6.76,0,0,0,1.5-3.36ZM686,606.78l.07-.06,50.54,52.92a6.68,6.68,0,0,0-1.46,3.07l-47.57-3.94L683.3,608a6.67,6.67,0,0,0,2.76-1.22Zm-10.15-2.71a7,7,0,0,0,.78,1.35,6.67,6.67,0,0,0,4.42,2.62q.4,0,.81.06l4.31,50.54-108.53-9,4-16.2Zm-.53-3.29a6.87,6.87,0,0,0,.1,1.92L582,631.89l11.58-47.43Zm-82.65-18-31.57-6.32-6.33-45a3.81,3.81,0,0,0,1-.47l36.76,39.73a3.94,3.94,0,0,0,.35,5.3,4.09,4.09,0,0,0,1.22.8Zm.8-12.93-36.76-39.74a3.94,3.94,0,0,0-.15-5.05l23-27.93a3.94,3.94,0,0,0,2,.55h.06l12.71,71.73a3.7,3.7,0,0,0-.87.48Zm78.72,18.8a4,4,0,0,0-1.38.92,4.09,4.09,0,0,0-.8,1.22l-70.41-17.32a2.54,2.54,0,0,0,0-.39,3.92,3.92,0,0,0-1.2-2.79,4,4,0,0,0-2.83-1.12l-12.72-71.73a4,4,0,0,0,1.48-.91l77.29,56.86a4,4,0,0,0,1.8,5.36,3.92,3.92,0,0,0,1.71.42h.27ZM669,554a3.93,3.93,0,0,0-4.86-2.53l-17.51-36.87L716,536.11l2.48,9.43Zm48.36-17.41,17.92,5.57a4,4,0,0,0,0,.6l-15.55,2.64Zm61.8,4.48a1.43,1.43,0,0,0,.06.5l-52.83,18.23a3.4,3.4,0,0,0-3.4-1.81l-3-11.38,15.45-2.67a4,4,0,0,0,1,1.58,3.91,3.91,0,0,0,2.75,1.12h.07a4,4,0,0,0,2.78-1.21,4,4,0,0,0-.1-5.61,3.86,3.86,0,0,0-2.75-1.11h-.07a3.88,3.88,0,0,0-2.42.9l-24.27-21.73-16.66-63.34a2.29,2.29,0,0,0,.55-.31l83.51,84.71a3.53,3.53,0,0,0-.68,2.12Zm2.54-3.45a3.28,3.28,0,0,0-1,.47l-83.5-84.7a3.66,3.66,0,0,0,.52-1.07l72,8.14a3.54,3.54,0,0,0,1.06,2.35h0a3.58,3.58,0,0,0,2.27,1Zm-7.49-80.78a3.06,3.06,0,0,0-1-.13,3.42,3.42,0,0,0-1.38.3l-19.44-29.07,42.3-17.53a3.62,3.62,0,0,0,.52.65h0a2.94,2.94,0,0,0,.44.35ZM781,366.73a3.53,3.53,0,0,0,2.06.66,4.93,4.93,0,0,0,.54-.05l12.82,37.79a3.48,3.48,0,0,0-1.27.84,2.1,2.1,0,0,0-.26.33L759.39,388Zm-70-4.2,68.51,1.83a3.71,3.71,0,0,0,.58,1.51l-21.83,21.51-47.37-24.49a1.56,1.56,0,0,1,.1-.37Zm46.35,25.75-19,18.68-28.43-42.57a.52.52,0,0,0,.11-.1,2.16,2.16,0,0,0,.27-.33Zm22.71-67.65-69.79,39h0L756,306.23Zm-24.35-16-21-12.64a3.51,3.51,0,0,0,.22-1.16L770.07,286a3.57,3.57,0,0,0,.64,1.18ZM774,281.43h-.39l-1.2-12.35,5.34,2.32Zm9.71-22.57a3.7,3.7,0,0,0,.66.07h.06a3.86,3.86,0,0,0,.76-.1l7.61,17.76-13.51-5.87Zm-5.53,11.38-5.9-2.57-.75-7.73,8.69-3.78h.68a3.5,3.5,0,0,0,1.68,2.3Zm-6.78-11.58-.2-2.12,5.62-.24Zm-3.75-38.59a4.18,4.18,0,0,0,.71-.09l14.06,32.44a3.14,3.14,0,0,0-.6.49,3.56,3.56,0,0,0-.88,1.6l-1,.45-8.82.37Zm3.36,47-8-3.48,7.35-3.19Zm-21.34-9.68,20.31-.85.25,2.58-8.76,3.81-11.87-5.16a2.25,2.25,0,0,0,.06-.36ZM745,260.26a3.66,3.66,0,0,0,1.23.22,3.52,3.52,0,0,0,2.54-1.08,3,3,0,0,0,.42-.52L760,263.59l-20.17,8.77ZM739.12,274l22.41-9.74,9.65,4.19,1.27,13a3.52,3.52,0,0,0-2.61,3.28l-35.15,4.84a3.32,3.32,0,0,0-1.43-1.89ZM654.25,43.81l33-22.42a4.93,4.93,0,0,0,.49.42l-42.3,81h0Zm23.39,86.68-23.06,32.62-33-29.59a3.78,3.78,0,0,0-.08-4.2L642,109.42H642a3.78,3.78,0,0,0,5.08-.67l29.61,17.61A3.81,3.81,0,0,0,677.64,130.49Zm-164.4,98.64-.08,0L527.89,197a3.77,3.77,0,0,0,1,.14,4,4,0,0,0,1.82-.47L547.33,218,535.6,246.72l-21-13A3.77,3.77,0,0,0,513.24,229.13ZM566,171.89l.09.05-18.23,44.75-16.25-20.8a2.82,2.82,0,0,0,.33-.36h0a3.82,3.82,0,0,0,.39-3.67l32.9-20.69a2.2,2.2,0,0,0,.31.3v.3Zm-1.68-2.53a4.16,4.16,0,0,0,.25.83l-32.89,20.7a3.65,3.65,0,0,0-.65-.59,3.78,3.78,0,0,0-2.13-.69l-5.1-34.14,7.7-11.84,33.16,23.45a3.8,3.8,0,0,0-.34,2.25Zm-36.64,20.42a3.76,3.76,0,0,0-2.48,4.7c0,.12.08.24.13.36L501,210.05l8.59-32.68L522.82,157ZM499.46,211l-19,11.85c-.09-.11-.2-.2-.3-.3l27.26-41.91Zm-.46,1.74-4.11,15.52-13.49-2.79a3.72,3.72,0,0,0-.3-1.61Zm-3.19,17,11.45,2.37a3.84,3.84,0,0,0,0,.48l-13.08,3.3Zm.31-1.2,4.4-16.75,25.5-15.9a3.36,3.36,0,0,0,.65.6l.08,0-14.7,32.07a3.78,3.78,0,0,0-4.11,1.46,3.85,3.85,0,0,0-.43.83Zm52-9.39,53.27,68.33-.07.08-64.74-40.15Zm.54-1.32,18.54-45.42a4,4,0,0,0,.84.11,3.47,3.47,0,0,0,.64-.06,3.37,3.37,0,0,0,.87-.27l21.79,33.94a3.72,3.72,0,0,0-.56.63,3.77,3.77,0,0,0,3,6l9.35,73.68a5.21,5.21,0,0,0-.74.3Zm67.54-83.21a3.79,3.79,0,0,0,2.18.69,4,4,0,0,0,.77-.09l18.11,47.43a3.91,3.91,0,0,0-1.2,1.09,3.78,3.78,0,0,0-.62,2.88l-38.52,20.06a3.89,3.89,0,0,0-.84-.83,3.8,3.8,0,0,0-3.7-.37l-21.79-33.95a4.13,4.13,0,0,0,.56-.62,3.78,3.78,0,0,0-3.54-6l6-46.1a3.79,3.79,0,0,0,3-1.59,2.68,2.68,0,0,0,.18-.33l37.91,13.88a3.8,3.8,0,0,0,1.55,3.82ZM640.48,107a3.8,3.8,0,0,0,.64,1.52l-20.47,19.9h-.06l-.39-.22L641.07,68.3a1.13,1.13,0,0,0,.26,0l2.06,34.43a3.77,3.77,0,0,0-2.91,4.33Zm1.35,76.2L654.74,165l40.65,36.5c-.08.13-.15.25-.22.39L642.92,186.4a3.8,3.8,0,0,0-1-3.19Zm-1-.71a3.75,3.75,0,0,0-2.42-.31L620.3,134.78l.46-.31,33.13,29.65Zm-43.2,25.79a2.64,2.64,0,0,0-.15-.55l38.39-20A3.73,3.73,0,0,0,637,189a2.91,2.91,0,0,0,.42.25l-13.78,41-26.36-19.63a3.66,3.66,0,0,0,.43-2.34ZM595,212.57a3.69,3.69,0,0,0,1.54-.9l26.69,19.87-18.41,54.77a3.75,3.75,0,0,0-.47-.05Zm29.27,19.74,23.2,17.27-40.92,37.49a1.34,1.34,0,0,0-.15-.13,3.3,3.3,0,0,0-.41-.23Zm.41-1.23,13.92-41.4a4.18,4.18,0,0,0,.61,0,3.83,3.83,0,0,0,1.41-.3L666.5,232.1l-18.15,16.63Zm17-42.26a3.5,3.5,0,0,0,.64-.69h0a5.86,5.86,0,0,0,.3-.55L694.89,203a3.38,3.38,0,0,0,0,1.1,3.8,3.8,0,0,0,.57,1.45l-28,25.66Zm13.86-24.93,23.14-32.72a3.84,3.84,0,0,0,1.66.38h.28L697.16,200a3.85,3.85,0,0,0-.89.54ZM643.89,53.94a3.8,3.8,0,0,0,3.65-4.43,3.55,3.55,0,0,0-.32-.95l5.67-3.82-8.33,55.73-1.94-32.3a3.69,3.69,0,0,0,2.27-1.5,3.8,3.8,0,0,0-.91-5.29,3.58,3.58,0,0,0-1.09-.49ZM617.53,29.43a4,4,0,0,0,1.13.17,3.83,3.83,0,0,0,2.26-.77L640.69,48a3.8,3.8,0,0,0,.92,5.27,4.18,4.18,0,0,0,1.06.52l-1,6.92a3.79,3.79,0,0,0-2.09,6.89l.39.23-20.86,59.93a3.78,3.78,0,0,0-3.76,1.54,1.77,1.77,0,0,0-.19.33l-37.9-13.87a3.82,3.82,0,0,0-1.49-3.78ZM573.89,84.31a3.75,3.75,0,0,0-.21-4.65l42.11-49.51-41.12,81.28a3.39,3.39,0,0,0-.84-.17L571.7,85.79A3.75,3.75,0,0,0,573.89,84.31Zm-4.62,1.27a3.7,3.7,0,0,0,1.22.3l2.12,25.49a3.72,3.72,0,0,0-2.18,1.47,3.81,3.81,0,0,0,.91,5.3,3.76,3.76,0,0,0,1.1.54l-6.06,46.64a3.91,3.91,0,0,0-1,.7l-33.2-23.47Zm-2.51,1.6L531.2,141.89l-7.66-5.42a3.82,3.82,0,0,0-.38-3.92Zm-43.93,50.24,7.71,5.45-7,10.72-2.27-15.23a3.81,3.81,0,0,0,1.55-.94Zm-2.75,1.15,2.48,16.57-12,18.42,9.21-35ZM441.69,247.23l-.18-.19,77-108.85h.12l-10.15,38.6-29.27,45a3.78,3.78,0,0,0-5,5Zm.9,1.85a3.8,3.8,0,0,0-.25-.81l32.45-20.44a3.9,3.9,0,0,0,.64.58,3.83,3.83,0,0,0,2.19.7h.12l2.07,10.47ZM479,228.89a3.88,3.88,0,0,0,1.78-1.34h0a4.12,4.12,0,0,0,.42-.84l13.44,2.79-1.79,6.79-11.8,3Zm7.05,33.3h-.47l-4.28-21.66,11.2-2.86Zm35.07,11.91a4.44,4.44,0,0,0-.38.67l-31.33-8a3.82,3.82,0,0,0-1.52-3.9,4,4,0,0,0-.64-.36l6.62-25.18,13.76-3.52a3.86,3.86,0,0,0,1.27,1.59,3.82,3.82,0,0,0,2.19.69h.48l11,36.87a3.91,3.91,0,0,0-1.45,1.1Zm2.63-1.56-11-36.86a3.77,3.77,0,0,0,1.18-.92l21.22,13.13L525,272.56a3.73,3.73,0,0,0-1.33-.06Zm2.67.65-.21-.12,10-24.5,64.55,40a.27.27,0,0,1-.07.21L528,276.29a3.82,3.82,0,0,0-1.6-3.14ZM616,348.28l-88.51-70.19a3.24,3.24,0,0,0,.27-.6L600.42,290a3.8,3.8,0,0,0,3.78,3.83h.28l12.61,53.76a4,4,0,0,0-1.1.66Zm5.2.1a3.23,3.23,0,0,0-.45-.38,3.69,3.69,0,0,0-2.45-.68l-12.62-53.76a3.85,3.85,0,0,0,1.65-1.31h0a3.86,3.86,0,0,0,.64-1.6l90.41-.53a3.73,3.73,0,0,0,.37,1.08Zm77.18-59.49-90.41.53a3.69,3.69,0,0,0-.57-1.44l41.09-37.65,50.27,37.42A3.57,3.57,0,0,0,698.37,288.89Zm1.1-2.13L649.4,249.48l17.79-16.3,32.46,53.43a.35.35,0,0,0-.18.11Zm1.23-.79-32.58-53.68,28.17-25.82c.06,0,.1.09.15.13a4.06,4.06,0,0,0,1.74.66l3.17,78.48a3.61,3.61,0,0,0-.65.15Zm80-103.23L703.89,286.08a3.82,3.82,0,0,0-1.27-.39l-3.18-78.49a3.79,3.79,0,0,0,2.34-1.52h0a3.79,3.79,0,0,0,.66-2.59l77.64-21.44a3.72,3.72,0,0,0,.66,1Zm-97.37-52.67,96.56,48.82a3.83,3.83,0,0,0-.16,1.54l-77.66,21.46a3.69,3.69,0,0,0-3.71-2.18l-16.58-68.45a3.85,3.85,0,0,0,1.59-1.23Zm-1.22-5.54a3.73,3.73,0,0,0-4.74.87l-29.6-17.61a3.8,3.8,0,0,0,.21-2l65.68-22.4a3.4,3.4,0,0,0,.53.77Zm31.78-45.12a3.74,3.74,0,0,0-.64,2.81l-65.64,22.36a3.8,3.8,0,0,0-1.05-1.24l42.29-81a3.64,3.64,0,0,0,1.18.19,3.78,3.78,0,0,0,3.8-3.78,2.89,2.89,0,0,0-.05-.65v-.17l26.74-10.6a3.88,3.88,0,0,0,1.06,1.15,4.05,4.05,0,0,0,1.25.57l-6.11,68.84A3.79,3.79,0,0,0,713.89,79.41Z" transform="translate(0.04 0.06)"/></svg>