<svg xmlns="http://www.w3.org/2000/svg" viewBox="0 0 287.77 94.99"><defs><style>.cls-1{fill:#fff;}</style></defs><title>mr8cho-white-logo</title><g id="Layer_2" data-name="Layer 2"><g id="Layer_1-2" data-name="Layer 1"><path class="cls-1" d="M176,84.51c-.08-.2-.06-.31.18-.35,1.26-.17,2.18-.9,3.38-1.08a2.64,2.64,0,0,1,2.77,1.61c1.69,2.94-1.58,8.3-6.5,9.93a1.1,1.1,0,0,1-1.18-.13,4.15,4.15,0,0,1-.77-.79c-.34-.47-.44-.75-.05-1.94a32.45,32.45,0,0,1,3.36-6.48A1.32,1.32,0,0,1,176,84.51ZM177.66,87a38.68,38.68,0,0,0-2.93,5.77c-.24.77-.11,1,.44.82,5-1.91,7.32-7.16,6.24-8.88-.64-1-2-.06-3.27.36A2.93,2.93,0,0,1,177.66,87Z"/><path class="cls-1" d="M188,90.77c-.38,1.56-1.54,3.41-2.9,3.87a2,2,0,0,1-2.31-.81c-.81-1.06-.53-2.66.29-4.13A4.24,4.24,0,0,1,186,87.32a1.24,1.24,0,0,1,1.25.62c.42.57,1,.7.86,2,0,.15,0,.27,0,.42s.22,0,.36,0,.13.1.06.19A.79.79,0,0,1,188,90.77Zm-1.56-.46a2.33,2.33,0,0,1-.84-1.62,6.19,6.19,0,0,0-1.41,1.73c-.77,1.39-1.05,3.08-.57,3.49s1.63-.22,2.53-1.91a9.8,9.8,0,0,0,.64-1.47A1.59,1.59,0,0,1,186.4,90.31Zm.63-1.64c-.09-.58-.46-.47-.55.06a1.49,1.49,0,0,0,.4,1.3A3.58,3.58,0,0,0,187,88.67Z"/><path class="cls-1" d="M193.82,88.4c.39.77-.35,1.74-.72,2.73-.07.22-.14.28-.38.15-.44-.22-.7-.77-.44-1.6.2-.66.75-1.45.49-1.65s-1.69.92-2.51,2.59c-1,2.07-.63,3.6.46,3.62,1.54,0,2.86-1.45,3.61-2.61.1-.15.26-.17.33,0a1.6,1.6,0,0,1-.33,1.1,4.57,4.57,0,0,1-3.54,2c-2.33,0-3.12-2.24-1.93-4.61s3-3.3,3.95-2.75A2.39,2.39,0,0,1,193.82,88.4Z"/><path class="cls-1" d="M199.73,87.26c.63,0,1,1,.72,1.8a5.71,5.71,0,0,1,2.71-1.71c.67,0,.81,1.1.45,2s-1.23,2-1.69,3-.26,1.89.4,1.87,1.58-1.23,2.29-2.52c.1-.16.24-.16.34,0a1.81,1.81,0,0,1-.17,1.15,3.47,3.47,0,0,1-2.75,2c-1.6,0-2.19-1.27-1.51-2.77s2.31-3.58,2-3.67-.77.14-2,1.34a15.9,15.9,0,0,0-3.19,5c-.11.22-.26.27-.42.09-.31-.28-.57-1,0-2.31.61-1.53,2.59-4.06,2.22-4.19-.22-.09-1.12.4-2.29,1.69a16.34,16.34,0,0,0-2.7,4.61c-.07.16-.18.23-.35.09-.4-.35-.49-1-.18-1.89a29.43,29.43,0,0,1,2.88-5.47c.13-.2.27-.19.39,0a2.31,2.31,0,0,1,0,2C197.69,88.33,199.07,87.24,199.73,87.26Z"/><path class="cls-1" d="M206.88,94.24c1.52.07,2.86-1.4,3.65-2.61.09-.15.24-.15.31,0a1.51,1.51,0,0,1-.31,1.14,4.66,4.66,0,0,1-3.6,2c-2.33,0-3.14-2.26-2-4.63s3.07-3.32,4-2.79a3.35,3.35,0,0,1,1.08,1,2.37,2.37,0,0,1-.59,2.49c-.9,1.1-2.13,1.58-3.41.54C205.46,93,205.9,94.18,206.88,94.24ZM208.4,90c.59-.77,1-1.72.73-1.92s-1.91.79-2.77,2.53l-.15.31C207.11,91.5,207.87,90.71,208.4,90Z"/><path class="cls-1" d="M211.32,86.86c-.18-.26-.07-.39.2-.37a10.83,10.83,0,0,0,1.52-.07,23.63,23.63,0,0,1,1.4-2.28c.16-.24.35-.22.44,0a2.51,2.51,0,0,1-.24,2.07,1.18,1.18,0,0,1,1.14.55c.13.23.05.35-.22.35a5.42,5.42,0,0,0-1.43.08c-.72,1.23-1.76,3-2.46,4.55-.61,1.34-.41,2.48.37,2.51s1.87-1.26,2.55-2.64c.11-.22.31-.26.38,0a1.57,1.57,0,0,1-.18,1c-.24.53-1.45,2.14-2.92,2.09-1.21,0-2.18-1.4-1.3-3.51.38-.91,1.15-2.46,1.94-3.91A1.53,1.53,0,0,1,211.32,86.86Z"/><path class="cls-1" d="M214.18,92.07a22.55,22.55,0,0,1,2.35-4.46c.17-.22.3-.28.44-.11a1.9,1.9,0,0,1,0,2c-.39.81-1.16,2.06-1.55,3-.44,1.07-.4,1.78.19,1.75.82,0,1.83-1.25,2.38-2.52.1-.16.22-.14.3,0a1.34,1.34,0,0,1-.13,1.14,3.29,3.29,0,0,1-2.74,1.91C214,94.75,213.67,93.58,214.18,92.07Zm4.1-4.79a.66.66,0,0,1-1-.28,1.14,1.14,0,0,1,.09-1.35c.29-.32.83-.1,1.07.4A1.12,1.12,0,0,1,218.28,87.28Z"/><path class="cls-1" d="M225.82,85c-1.1,0-1.89-.37-2.09-1-.06-.17,0-.26.2-.24,1.64.13,4.68-.55,5.73-.51.77,0,1.47.22,1.74.93.06.15,0,.3-.22.28a12.87,12.87,0,0,0-3.12.27,3.83,3.83,0,0,1-.6,1.95,77.11,77.11,0,0,0-4.1,7.93c-.07.18-.16.18-.29,0a1.63,1.63,0,0,1-.24-1.67,41.75,41.75,0,0,1,4.11-8.07A10.75,10.75,0,0,1,225.82,85Z"/><path class="cls-1" d="M232.76,87.39c.17-.24.31-.28.44-.11a2,2,0,0,1,0,2c-.4.82-1.32,2.2-1.76,3.17s-.48,1.82.15,1.78,1.76-1.28,2.4-2.55c.09-.16.22-.18.3,0a1.67,1.67,0,0,1-.17,1.14,3.28,3.28,0,0,1-2.64,2A1.42,1.42,0,0,1,230,93.3a3.2,3.2,0,0,1-2.29,1.43c-1.71,0-2.06-2.33-.53-4.55s2.93-3,3.85-3a1.12,1.12,0,0,1,1.12,1.32C232.34,88.07,232.56,87.68,232.76,87.39Zm-1.47.75c-.58,0-1.92,1.14-2.93,2.77s-1.22,3.2-.5,3.22,1.71-1.16,2.64-2.78C231.66,89.33,231.83,88.2,231.29,88.14Z"/><path class="cls-1" d="M234.84,86.82c-.19-.24,0-.35.24-.35s.93,0,1.46,0c.56-1,1.09-1.78,1.38-2.2.18-.24.35-.24.44,0a2.57,2.57,0,0,1-.27,2.13c1,0,1.92-.11,2.68-.15.55-1,1-1.76,1.32-2.15.18-.23.35-.2.44,0a2.5,2.5,0,0,1-.24,2.1,1.32,1.32,0,0,1,1.14.58c.13.22,0,.35-.24.33s-.79,0-1.38,0c-.69,1.29-1.81,3.09-2.51,4.63-.61,1.36-.39,2.48.37,2.51s1.85-1.26,2.55-2.64c.11-.22.31-.26.38,0a1.57,1.57,0,0,1-.18,1c-.24.53-1.45,2.14-2.94,2.09a1.74,1.74,0,0,1-1.6-1.5,3.16,3.16,0,0,1-2.49,1.5c-1.23,0-2.17-1.4-1.31-3.51A42.53,42.53,0,0,1,236,87.39,1.66,1.66,0,0,1,234.84,86.82Zm2.73.53c-.71,1.23-1.7,2.88-2.38,4.39-.61,1.34-.39,2.48.38,2.51s1.89-1.37,2.48-2.73c.42-1,1.32-2.75,2.18-4.33C239.32,87.24,238.36,87.32,237.57,87.35Z"/><path class="cls-1" d="M254,90.75c-.39,1.56-1.53,3.41-2.87,3.85a2,2,0,0,1-2.31-.77,3.39,3.39,0,0,1-.11-3.34,2.56,2.56,0,0,1-1.14.24c-.38,1.58-1.52,3.43-2.88,3.87a2,2,0,0,1-2.29-.77c-.83-1.08-.54-2.7.27-4.13a4.37,4.37,0,0,1,2.94-2.38,1.16,1.16,0,0,1,1.23.6c.42.59,1,.7.88,2,0,.09,0,.18,0,.28a3.51,3.51,0,0,0,2-1.4,3.57,3.57,0,0,1,2.35-1.5,1.22,1.22,0,0,1,1.23.6c.44.59,1,.7.88,2a1.93,1.93,0,0,1-.05.42,1.94,1.94,0,0,0,.35,0c.16,0,.16.1.07.19A.73.73,0,0,1,254,90.75Zm-10.23-.35c-.79,1.38-1.06,3.08-.55,3.49s1.6-.24,2.5-1.89a8.3,8.3,0,0,0,.66-1.53,2.19,2.19,0,0,1-1.19-1.78A6.19,6.19,0,0,0,243.74,90.4Zm2.32-1.67A1.3,1.3,0,0,0,246.5,90a4.53,4.53,0,0,0,.11-1.34C246.53,88.07,246.13,88.18,246.06,88.73Zm6.38,1.56a2.11,2.11,0,0,1-.86-1.6,6,6,0,0,0-1.41,1.71c-.79,1.38-1,3.08-.55,3.49s1.59-.24,2.49-1.89a7.89,7.89,0,0,0,.66-1.51A.94.94,0,0,1,252.44,90.29Zm.59-1.63c-.07-.59-.44-.48-.53,0a1.52,1.52,0,0,0,.42,1.3A4,4,0,0,0,253,88.66Z"/><path class="cls-1" d="M266,90.73c.46,1.23-.71,2.61-1.49,3.16a3.72,3.72,0,0,1-3.83.38,3.54,3.54,0,0,1-1.58-3.08,9.31,9.31,0,0,1,5.25-8,2.4,2.4,0,0,1,2.48,0,3.46,3.46,0,0,1,1,1.34,2.11,2.11,0,0,1-.16,1.62c-.28.56-.54,1.28-.74,1.81-.05.15-.18.26-.4.11a1.42,1.42,0,0,1-.44-1.76c.29-1,.95-2,.53-2.46s-3.31.94-5,3.67-1.43,5.4-.53,6.13c1.18,1,3.12-.27,4.52-3C265.72,90.49,265.92,90.49,266,90.73Z"/><path class="cls-1" d="M268.42,94.68c-1.69,0-2.06-2.33-.53-4.54s2.92-3,3.85-3a1.09,1.09,0,0,1,1.08,1.21c.28-.46.52-.83.65-1s.29-.28.44-.11a2,2,0,0,1,0,2c-.37.82-1.34,2.26-1.75,3.19s-.36,1.73.2,1.67c1.18-.11,2.83-2.37,3.69-5.06-1.48-.54.26-3,1-3.09.57,0,.39,1,0,2.32a4.6,4.6,0,0,0,2-.87c.26-.18.39-.22.55,0,.35.38.79,1.23.26,1.85a11.22,11.22,0,0,0-2.09,3.19c-.31,1-.11,1.73.46,1.77.77.05,1.68-1.16,2.27-2.54.08-.14.2-.18.28,0a1.66,1.66,0,0,1-.08,1.2,3,3,0,0,1-2.57,1.87c-1.39-.06-1.94-1.32-1.5-2.79A10.81,10.81,0,0,1,279,88.53a4.58,4.58,0,0,1-2.17.68c-.9,2.58-2.55,5.36-4.52,5.5a1.34,1.34,0,0,1-1.54-1.5A3.27,3.27,0,0,1,268.42,94.68Zm.68-3.8c-1,1.58-1.19,3.17-.48,3.19s1.69-1.1,2.63-2.75c1.13-2,1.3-3.16.77-3.2S270.11,89.26,269.1,90.88Z"/><path class="cls-1" d="M282.87,94.24c1.52.07,2.86-1.4,3.65-2.61.09-.15.24-.15.31,0a1.47,1.47,0,0,1-.31,1.14,4.65,4.65,0,0,1-3.6,2c-2.33,0-3.14-2.26-1.94-4.63s3.06-3.32,4-2.79a3.35,3.35,0,0,1,1.08,1,2.36,2.36,0,0,1-.58,2.49c-.9,1.1-2.13,1.58-3.42.54C281.46,93,281.9,94.18,282.87,94.24ZM284.39,90c.59-.77,1-1.72.74-1.92s-1.91.79-2.78,2.53c-.05.11-.11.22-.14.31C283.11,91.5,283.86,90.71,284.39,90Z"/><path class="cls-1" d="M154.53,44.18a24.83,24.83,0,1,0-31.07,0,27.78,27.78,0,1,0,31.07,0ZM117.82,26.84a20.8,20.8,0,1,1,32.84,16,26.41,26.41,0,0,0,3.76-5.28,20.37,20.37,0,0,0,2.47-9.12,19.55,19.55,0,0,0-7.6-16.17,19.23,19.23,0,0,0-8.11-3.65A20.53,20.53,0,0,0,139,8.31c-.73-.05-1.47,0-2.2,0a17,17,0,0,0-4.48.87,16.17,16.17,0,0,0-4,2.1,16.63,16.63,0,0,0-3.16,3.11,16.57,16.57,0,0,0-2.1,3.85,16.27,16.27,0,0,0-.88,4.23,13.45,13.45,0,0,0,.46,4.34,11.74,11.74,0,0,0,1.94,3.91,11.61,11.61,0,0,0,7.07,4.43,10.88,10.88,0,0,0,4.18,0,9.08,9.08,0,0,0,3.8-1.76,9.25,9.25,0,0,0,2.57-3.17,8.77,8.77,0,0,0,.86-3.91,6.76,6.76,0,0,0-1.68-4.58,6.37,6.37,0,0,0-2.83-1.89c-1.76-.5-2.64-.12-2.63,0s.86.28,2.18,1a6,6,0,0,1,2,1.87,5.27,5.27,0,0,1,.82,3.48,6.39,6.39,0,0,1-1,2.74,6.12,6.12,0,0,1-7.34,2.41A7.33,7.33,0,0,1,128.49,28a6.94,6.94,0,0,1-.83-2.43,7.91,7.91,0,0,1,.08-2.56,9.84,9.84,0,0,1,.86-2.48,10.09,10.09,0,0,1,1.51-2.07,9.71,9.71,0,0,1,2-1.51,8.84,8.84,0,0,1,2.28-.84,9.53,9.53,0,0,1,2.38-.14c.43.08.86.11,1.28.19a12.19,12.19,0,0,1,1.22.34,10.56,10.56,0,0,1,4.18,2.58,10.74,10.74,0,0,1,2.46,4,9.84,9.84,0,0,1,.29,4.5,9.33,9.33,0,0,1-1.73,4,17.1,17.1,0,0,1-3.61,3.53,43.56,43.56,0,0,1-5.13,3.19l-.8.45-.92.56-1.38.8c-1,.6-2.16,1.28-3.29,2-.6.4-1.21.84-1.81,1.29A20.78,20.78,0,0,1,117.82,26.84ZM127.9,61.41a2.2,2.2,0,1,1-1.15,2.31A2.19,2.19,0,0,1,127.9,61.41Zm1.51-6.59a2.44,2.44,0,1,1-2.16,3.32A2.44,2.44,0,0,1,129.41,54.82Zm-.29,12.59a2,2,0,1,1-.15,2.2A2,2,0,0,1,129.12,67.41Zm3.61,3.74a1.78,1.78,0,1,1,0,2A1.79,1.79,0,0,1,132.73,71.15Zm-.27-16.91a2.71,2.71,0,1,1,3.15-1.44A2.72,2.72,0,0,1,132.46,54.24Zm3.41-8.76a2.71,2.71,0,1,1,1.74,3.81A2.71,2.71,0,0,1,135.87,45.48Zm4.76-4.59a2.71,2.71,0,1,1,1.74,3.8A2.72,2.72,0,0,1,140.63,40.89Zm5-4.47A2.74,2.74,0,0,1,148.77,35a2.71,2.71,0,1,1-3.15,1.44Zm.25-20.57a1.61,1.61,0,1,1,2.63-.43A1.61,1.61,0,0,1,145.87,15.85Zm4.64,12a2.2,2.2,0,1,1,3.19,1.58A2.2,2.2,0,0,1,150.51,27.88Zm.86,7.15a2.44,2.44,0,1,1,2.16-3.31A2.45,2.45,0,0,1,151.37,35ZM153.53,24a2,2,0,1,1,.16-2.19A2,2,0,0,1,153.53,24Zm-1.61-4.77a1.78,1.78,0,1,1,0-2A1.78,1.78,0,0,1,151.92,19.18Zm-7.5-5.68a1.45,1.45,0,0,1-2.4,0,1.47,1.47,0,0,1,0-1.61,1.45,1.45,0,0,1,2.43,1.57Zm-3.69-1.41a1.3,1.3,0,1,1-.1-1.33A1.32,1.32,0,0,1,140.73,12.09Zm-3.55,0a1.17,1.17,0,0,1-2,.48,1.14,1.14,0,0,1-.28-1.15,1.17,1.17,0,0,1,2.24.67Zm-3.05.84a1.05,1.05,0,1,1-.55-1.38A1.05,1.05,0,0,1,134.13,12.89ZM131.32,14a.94.94,0,1,1-.54-1.23A.94.94,0,0,1,131.32,14ZM126,17.67a.77.77,0,1,1,.84.69A.78.78,0,0,1,126,17.67Zm-.27,3.06a.7.7,0,0,1-.85-.48.69.69,0,0,1,.48-.85.69.69,0,1,1,.37,1.33Zm1.61-5.28a.85.85,0,1,1,.64,1A.86.86,0,0,1,127.3,15.45ZM139,89a22.56,22.56,0,0,1-21.23-32.61,21.45,21.45,0,0,0-1.13,6.89A22.21,22.21,0,0,0,121.33,77,23.06,23.06,0,0,0,126.8,82a22.34,22.34,0,0,0,6.64,2.9c.58.14,1.15.29,1.73.38s1.16.16,1.74.23,1.15,0,1.72.07h.86c.28,0,.6,0,.91,0a19,19,0,0,0,6.9-1.82,18.51,18.51,0,0,0,8.86-9.06,17.89,17.89,0,0,0,1.44-5.48,17.42,17.42,0,0,0-.31-5.2,13.48,13.48,0,0,0-4.66-7.57,11.58,11.58,0,0,0-4-2.11c-1.56-.44-3.38-.8-4.92-.1A2.51,2.51,0,0,0,142.14,56a2.85,2.85,0,0,0,.64,2.11c.5.68,1.14,1.23,1.63,1.91a7.88,7.88,0,0,1,1.25,2.59,4.86,4.86,0,0,1,0,2.78,14.07,14.07,0,0,1-.61,1.46,7.08,7.08,0,0,1-1,1.33,5.48,5.48,0,0,1-2.74,1.52,4.45,4.45,0,0,1-1.5,0h-.2l-.26,0a4.71,4.71,0,0,1-.52-.09l-.5-.13c-.17,0-.32-.12-.49-.17a7.85,7.85,0,0,1-1.83-1,8.24,8.24,0,0,1-1.52-1.49,6.36,6.36,0,0,1-1-1.84,7,7,0,0,1-.49-2c0-.35,0-.73,0-1.1a4.53,4.53,0,0,0,.05-.53V61l.06-.26c0-.17.06-.35.09-.53l.16-.53a5.53,5.53,0,0,1,.34-1,4,4,0,0,1,.17-.37c0-.09.1-.19.15-.29a8.32,8.32,0,0,1,.47-.8,18.89,18.89,0,0,1,3.42-3.8c.72-.63,1.51-1.25,2.41-1.93l1.5-1.15c.18-.14.3-.25.52-.41l.67-.5c1.45-1.06,3-2.24,4.58-3.59A22.57,22.57,0,0,1,139,89Zm-2.13-16a1.6,1.6,0,1,1,.28,1.76A1.6,1.6,0,0,1,136.91,73Zm4,0a1.44,1.44,0,1,1,0,1.6A1.45,1.45,0,0,1,140.88,73Zm8.49-9.67a.94.94,0,1,1-.54-1.23A.95.95,0,0,1,149.37,63.29Zm.3,3.17a1.05,1.05,0,0,1-1.93-.83,1,1,0,0,1,1.38-.55A1.05,1.05,0,0,1,149.67,66.46Zm-1.08,2.32a1.17,1.17,0,1,1-2,.48A1.18,1.18,0,0,1,148.59,68.78Zm-2.05,4a1.3,1.3,0,1,1-.1-1.32A1.31,1.31,0,0,1,146.54,72.76Z"/><path class="cls-1" d="M64,21.52a2.93,2.93,0,0,0-1.51.46l0,51.72a2.6,2.6,0,0,0,.55,1.62,1.45,1.45,0,0,0,1.2.71h3.75v2.63H64.32a4.34,4.34,0,0,1-3.26-1.46,5,5,0,0,1-1.33-3.5l-.09-46.8L36.49,77.53a2.54,2.54,0,0,1-4.86,0L8.44,26.9l-.1,46.8A5,5,0,0,1,7,77.2a4.32,4.32,0,0,1-3.25,1.46H0V76H3.76A1.43,1.43,0,0,0,5,75.32,2.54,2.54,0,0,0,5.5,73.7L5.55,22A3,3,0,0,0,4,21.52H0V18.9H4a6.07,6.07,0,0,1,3.17,1,5,5,0,0,1,2.15,2.3L34.06,76,58.72,22.15a5.39,5.39,0,0,1,2.16-2.3,6,6,0,0,1,3.16-1h4v2.62Z"/><path class="cls-1" d="M93.15,37.23v2.59h-.6q-8.61,0-12.28,6a17.79,17.79,0,0,0-2.38,9.5v23.3H75V43a2.75,2.75,0,0,0-.51-1.66,1.54,1.54,0,0,0-1.23-.71H69.5V38h3.76a4.31,4.31,0,0,1,3.25,1.42A5,5,0,0,1,77.89,43v1.25q4.44-7,14.66-7Z"/><path class="cls-1" d="M82.62,71.16h2.89v7.5H82.62Z"/><path class="cls-1" d="M203,65.66h2.58v4.5a6.53,6.53,0,0,1-1.08,3.62,10.55,10.55,0,0,1-3.3,2.84,21,21,0,0,1-11,2.7q-9.37,0-14.25-6.66-4.12-5.62-4.13-14.3T175.92,44q4.88-6.7,14.25-6.71a20.6,20.6,0,0,1,11,2.76,10.39,10.39,0,0,1,3.34,2.91,6.75,6.75,0,0,1,1,3.63v4.37H203V46.57a3.74,3.74,0,0,0-.67-2.17,9,9,0,0,0-2.75-2.29,18.65,18.65,0,0,0-9.42-2.21q-9.42,0-13.38,7.58a23.58,23.58,0,0,0-2.37,10.88,23.24,23.24,0,0,0,2.37,10.8q4,7.53,13.38,7.54a18.86,18.86,0,0,0,9.42-2.17,8,8,0,0,0,2.75-2.25,3.68,3.68,0,0,0,.67-2.12Z"/><path class="cls-1" d="M230.68,37.19q9.42,0,13.42,7a22.56,22.56,0,0,1,2.54,11.13v23.3h-2.59V55.36a19.5,19.5,0,0,0-2.16-9.54q-3.34-6-11.21-6t-11.21,6a19.72,19.72,0,0,0-2.13,9.54V73.7a5.21,5.21,0,0,1-1.25,3.5,3.71,3.71,0,0,1-3,1.46h-3.42V76h3.42a1.3,1.3,0,0,0,1.09-.71,2.75,2.75,0,0,0,.5-1.62V23.81a2.81,2.81,0,0,0-.5-1.66,1.3,1.3,0,0,0-1.09-.71h-3.42V18.85h3.42a3.71,3.71,0,0,1,3,1.46,5.23,5.23,0,0,1,1.25,3.5V44.23Q221.39,37.2,230.68,37.19Z"/><path class="cls-1" d="M269.27,37.27q10.88,0,15.5,8.17a25.62,25.62,0,0,1,3,12.88q0,10.33-4.71,15.67t-13.79,5.38q-9.09,0-13.8-5.38t-4.71-15.67a25.62,25.62,0,0,1,3-12.88Q258.4,37.28,269.27,37.27Zm0,39.47q15.87,0,15.87-18.42A23.06,23.06,0,0,0,282.6,47q-4-7.12-13.33-7.13T255.93,47a23.18,23.18,0,0,0-2.54,11.29Q253.39,76.74,269.27,76.74Z"/></g></g></svg>