<?xml version="1.0"?>
<svg xmlns="http://www.w3.org/2000/svg" height="512px" version="1.1" viewBox="-74 1 598 598.70105" width="512px">
<g id="surface1">
<path d="M 237.363281 3.203125 C 235.472656 1.160156 232.816406 0 230.035156 0 L 10.402344 0 C 4.886719 -0.015625 0.40625 4.4375 0.386719 9.953125 C 0.386719 10.222656 0.398438 10.492188 0.417969 10.761719 L 40.351562 519.542969 L 40.351562 589.015625 C 40.351562 594.53125 44.820312 599 50.332031 599 L 190.101562 599 C 195.613281 599 200.082031 594.53125 200.082031 589.015625 L 200.082031 519.542969 L 240.015625 10.761719 C 240.226562 7.984375 239.265625 5.242188 237.363281 3.203125 Z M 180.117188 579.035156 L 60.320312 579.035156 L 60.320312 529.117188 L 180.117188 529.117188 Z M 180.867188 509.148438 L 59.570312 509.148438 L 21.195312 19.96875 L 219.246094 19.96875 Z M 180.867188 509.148438 " style=" fill-rule:nonzero;fill-opacity:1;" stroke="#039be5" fill="#039be5"/>
<path d="M 120.21875 179.699219 C 142.273438 179.699219 160.152344 161.820312 160.152344 139.765625 C 160.152344 117.710938 142.273438 99.832031 120.21875 99.832031 C 98.164062 99.832031 80.285156 117.710938 80.285156 139.765625 C 80.285156 161.820312 98.164062 179.699219 120.21875 179.699219 Z M 120.21875 119.800781 C 131.246094 119.800781 140.1875 128.738281 140.1875 139.765625 C 140.1875 150.792969 131.246094 159.734375 120.21875 159.734375 C 109.191406 159.734375 100.25 150.792969 100.25 139.765625 C 100.25 128.738281 109.191406 119.800781 120.21875 119.800781 Z M 120.21875 119.800781 " style=" fill-rule:nonzero;fill-opacity:1;" stroke="#039be5" fill="#039be5"/>
<path d="M 180.117188 119.800781 L 200.085938 119.800781 L 200.085938 139.765625 L 180.117188 139.765625 Z M 180.117188 119.800781 " style=" fill-rule:nonzero;fill-opacity:1;" stroke="#039be5" fill="#039be5"/>
<path d="M 110.234375 59.898438 L 130.203125 59.898438 L 130.203125 79.867188 L 110.234375 79.867188 Z M 110.234375 59.898438 " style=" fill-rule:nonzero;fill-opacity:1;" stroke="#039be5" fill="#039be5"/>
<path d="M 40.351562 129.785156 L 60.320312 129.785156 L 60.320312 149.75 L 40.351562 149.75 Z M 40.351562 129.785156 " style=" fill-rule:nonzero;fill-opacity:1;" stroke="#039be5" fill="#039be5"/>
<path d="M 110.234375 199.667969 L 130.203125 199.667969 L 130.203125 219.632812 L 110.234375 219.632812 Z M 110.234375 199.667969 " style=" fill-rule:nonzero;fill-opacity:1;" stroke="#039be5" fill="#039be5"/>
<path d="M 148.453125 83.300781 L 162.570312 69.179688 L 176.6875 83.300781 L 162.570312 97.417969 Z M 148.453125 83.300781 " style=" fill-rule:nonzero;fill-opacity:1;" stroke="#039be5" fill="#039be5"/>
<path d="M 56.675781 90.355469 L 70.796875 76.234375 L 84.921875 90.363281 L 70.804688 104.480469 Z M 56.675781 90.355469 " style=" fill-rule:nonzero;fill-opacity:1;" stroke="#039be5" fill="#039be5"/>
<path d="M 56.679688 189.183594 L 70.804688 175.054688 L 84.925781 189.175781 L 70.796875 203.300781 Z M 56.679688 189.183594 " style=" fill-rule:nonzero;fill-opacity:1;" stroke="#039be5" fill="#039be5"/>
<path d="M 155.511719 189.171875 L 169.628906 175.054688 L 183.753906 189.179688 L 169.636719 203.296875 Z M 155.511719 189.171875 " style=" fill-rule:nonzero;fill-opacity:1;" stroke="#039be5" fill="#039be5"/>
<path d="M 449.667969 569.050781 L 449.667969 289.515625 C 449.667969 272.976562 436.261719 259.566406 419.71875 259.566406 L 399.753906 259.566406 L 399.753906 239.601562 C 405.265625 239.601562 409.734375 235.128906 409.734375 229.617188 L 409.734375 179.699219 C 409.734375 174.1875 405.265625 169.714844 399.753906 169.714844 L 379.785156 169.714844 L 379.785156 129.785156 C 379.785156 113.242188 366.375 99.832031 349.835938 99.832031 C 333.292969 99.832031 319.886719 113.242188 319.886719 129.785156 L 319.886719 169.714844 L 299.917969 169.714844 C 294.40625 169.714844 289.933594 174.1875 289.933594 179.699219 L 289.933594 229.617188 C 289.933594 235.128906 294.40625 239.601562 299.917969 239.601562 L 299.917969 259.566406 L 279.953125 259.566406 C 263.410156 259.566406 250 272.976562 250 289.515625 L 250 569.050781 C 250 585.589844 263.410156 599 279.953125 599 L 419.71875 599 C 436.257812 599 449.667969 585.589844 449.667969 569.050781 Z M 339.851562 129.785156 C 339.851562 124.269531 344.320312 119.800781 349.835938 119.800781 C 355.347656 119.800781 359.820312 124.269531 359.820312 129.785156 L 359.820312 169.714844 L 339.851562 169.714844 Z M 309.902344 189.683594 L 389.769531 189.683594 L 389.769531 219.632812 L 309.902344 219.632812 Z M 319.886719 239.601562 L 379.785156 239.601562 L 379.785156 259.566406 L 319.886719 259.566406 Z M 429.703125 569.050781 C 429.703125 574.5625 425.234375 579.03125 419.71875 579.03125 L 279.953125 579.03125 C 274.4375 579.03125 269.96875 574.5625 269.96875 569.050781 L 269.96875 289.515625 C 269.96875 284.003906 274.4375 279.535156 279.953125 279.535156 L 419.71875 279.535156 C 425.234375 279.535156 429.703125 284.003906 429.703125 289.515625 Z M 429.703125 569.050781 " style=" fill-rule:nonzero;fill-opacity:1;" stroke="#039be5" fill="#039be5"/>
<path d="M 399.753906 349.417969 L 299.917969 349.417969 C 294.40625 349.417969 289.933594 353.886719 289.933594 359.398438 L 289.933594 509.148438 C 289.933594 514.664062 294.40625 519.132812 299.917969 519.132812 L 399.753906 519.132812 C 405.265625 519.132812 409.734375 514.664062 409.734375 509.148438 L 409.734375 359.402344 C 409.734375 353.886719 405.265625 349.417969 399.753906 349.417969 Z M 389.769531 499.167969 L 309.902344 499.167969 L 309.902344 369.382812 L 389.769531 369.382812 Z M 389.769531 499.167969 " style=" fill-rule:nonzero;fill-opacity:1;" stroke="#039be5" fill="#039be5"/>
</g>
</svg>
